<?xml version="1.0" encoding="UTF-8" standalone="no"?>
<!-- Created with Inkscape (http://www.inkscape.org/) -->

<svg
   xmlns:dc="http://purl.org/dc/elements/1.1/"
   xmlns:cc="http://creativecommons.org/ns#"
   xmlns:rdf="http://www.w3.org/1999/02/22-rdf-syntax-ns#"
   xmlns:svg="http://www.w3.org/2000/svg"
   xmlns="http://www.w3.org/2000/svg"
   xmlns:sodipodi="http://sodipodi.sourceforge.net/DTD/sodipodi-0.dtd"
   xmlns:inkscape="http://www.inkscape.org/namespaces/inkscape"
   width="104.611"
   height="31.181"
   id="svg2"
   version="1.1"
   inkscape:version="0.48.2 r9819"
   sodipodi:docname="New document 1">
  <defs
     id="defs4" />
  <sodipodi:namedview
     id="base"
     pagecolor="#ffffff"
     bordercolor="#666666"
     borderopacity="1.0"
     inkscape:pageopacity="0.0"
     inkscape:pageshadow="2"
     inkscape:zoom="0.7"
     inkscape:cx="226.61434"
     inkscape:cy="43.659699"
     inkscape:document-units="px"
     inkscape:current-layer="layer1"
     showgrid="false"
     fit-margin-top="0"
     fit-margin-left="0"
     fit-margin-right="0"
     fit-margin-bottom="0"
     inkscape:window-width="1920"
     inkscape:window-height="1018"
     inkscape:window-x="-8"
     inkscape:window-y="-8"
     inkscape:window-maximized="1" />
  <metadata
     id="metadata7">
    <rdf:RDF>
      <cc:Work
         rdf:about="">
        <dc:format>image/svg+xml</dc:format>
        <dc:type
           rdf:resource="http://purl.org/dc/dcmitype/StillImage" />
        <dc:title></dc:title>
      </cc:Work>
    </rdf:RDF>
  </metadata>
  <g
     inkscape:label="Layer 1"
     inkscape:groupmode="layer"
     id="layer1"
     transform="translate(-233.40879,-528.20025)">
    <g
       id="g3006"
       transform="translate(233.40879,528.20025)">
      <path
         id="path2986"
         d="M 15.591,0 C 6.981,0 0,6.98 0,15.591 c 0,8.61 6.981,15.59 15.591,15.59 8.61,0 15.591,-6.98 15.591,-15.59 C 31.182,6.98 24.201,0 15.591,0 z m 8.422,10.011 h -2.348 v 9.669 c 0,3.714 -2.539,6.089 -6.24,6.089 -3.55,0 -6.14,-2.276 -6.14,-6.237 V 10.011 H 7.151 V 7.663 h 6.616 v 2.348 H 12.06 v 9.249 c 0,2.697 1.659,3.837 3.471,3.837 1.863,0 3.572,-1.163 3.572,-3.837 V 10.011 H 16.969 V 7.663 h 7.044 v 2.348 z"
         inkscape:connector-curvature="0"
         style="fill:#244372" />
      <g
         id="g2988">
	<path
   id="path2990"
   d="m 66.328,13.302 c 0,-3.125 -2.499,-5.212 -6.386,-5.212 H 52.4 v 17.716 h 2.134 v -7.043 h 4.853 l 5.317,7.043 h 2.448 l -5.619,-7.393 c 2.776,-0.496 4.795,-2.209 4.795,-5.111 z m -11.794,3.753 v -7.044 h 5.257 c 2.852,0 4.518,1.29 4.518,3.448 0,2.258 -1.893,3.596 -4.543,3.596 h -5.232 z"
   inkscape:connector-curvature="0"
   style="fill:#244372" />

	<path
   id="path2992"
   d="m 76.699,7.831 c -5.376,0 -9.036,4.192 -9.036,9.005 0,4.813 3.61,8.955 8.985,8.955 5.376,0 9.036,-4.191 9.036,-9.005 0.001,-4.812 -3.609,-8.955 -8.985,-8.955 z m 0,16.149 c -4.039,0 -6.966,-3.226 -6.966,-7.194 0,-3.968 2.877,-7.144 6.915,-7.144 4.038,0 6.966,3.225 6.966,7.194 0,3.969 -2.877,7.144 -6.915,7.144 z"
   inkscape:connector-curvature="0"
   style="fill:#244372" />

	<path
   id="path2994"
   d="m 95.625,7.831 c -5.376,0 -9.035,4.192 -9.035,9.005 0,4.813 3.609,8.955 8.985,8.955 5.376,0 9.036,-4.191 9.036,-9.005 0,-4.812 -3.609,-8.955 -8.986,-8.955 z m 0,16.149 c -4.038,0 -6.965,-3.226 -6.965,-7.194 0,-3.968 2.877,-7.144 6.915,-7.144 4.039,0 6.966,3.225 6.966,7.194 0,3.969 -2.877,7.144 -6.916,7.144 z"
   inkscape:connector-curvature="0"
   style="fill:#244372" />

	<path
   id="path2996"
   d="m 43.489,23.98 c -3.886,0 -6.84,-3.15 -6.84,-7.194 0,-4.044 2.928,-7.145 6.84,-7.145 2.398,0 4.064,0.992 5.553,2.382 l 1.363,-1.439 C 48.638,8.947 46.72,7.831 43.515,7.831 c -5.2,0 -8.935,4.043 -8.935,9.004 0,5.012 3.76,8.955 8.859,8.955 3.205,0 5.224,-1.215 7.067,-3.051 l -1.313,-1.265 c -1.692,1.589 -3.281,2.506 -5.704,2.506 z"
   inkscape:connector-curvature="0"
   style="fill:#244372" />

</g>
      <rect
         id="rect2998"
         height="31.181"
         width="104.611"
         display="none"
         x="0"
         y="0"
         style="fill:none;display:none" />
    </g>
  </g>
</svg>
