<?xml version="1.0" encoding="UTF-8" standalone="no"?>
<!-- Created with Inkscape (http://www.inkscape.org/) -->

<svg
   xmlns:dc="http://purl.org/dc/elements/1.1/"
   xmlns:cc="http://creativecommons.org/ns#"
   xmlns:rdf="http://www.w3.org/1999/02/22-rdf-syntax-ns#"
   xmlns:svg="http://www.w3.org/2000/svg"
   xmlns="http://www.w3.org/2000/svg"
   xmlns:xlink="http://www.w3.org/1999/xlink"
   xmlns:sodipodi="http://sodipodi.sourceforge.net/DTD/sodipodi-0.dtd"
   xmlns:inkscape="http://www.inkscape.org/namespaces/inkscape"
   width="125"
   height="25.808193"
   id="svg2"
   version="1.1"
   inkscape:version="0.48.2 r9819"
   sodipodi:docname="New document 1">
  <defs
     id="defs4" />
  <sodipodi:namedview
     id="base"
     pagecolor="#ffffff"
     bordercolor="#666666"
     borderopacity="1.0"
     inkscape:pageopacity="0.0"
     inkscape:pageshadow="2"
     inkscape:zoom="0.35"
     inkscape:cx="329.27221"
     inkscape:cy="150.1955"
     inkscape:document-units="px"
     inkscape:current-layer="layer1"
     showgrid="false"
     fit-margin-top="0"
     fit-margin-left="0"
     fit-margin-right="0"
     fit-margin-bottom="0"
     inkscape:window-width="1920"
     inkscape:window-height="1018"
     inkscape:window-x="-8"
     inkscape:window-y="-8"
     inkscape:window-maximized="1" />
  <metadata
     id="metadata7">
    <rdf:RDF>
      <cc:Work
         rdf:about="">
        <dc:format>image/svg+xml</dc:format>
        <dc:type
           rdf:resource="http://purl.org/dc/dcmitype/StillImage" />
        <dc:title></dc:title>
      </cc:Work>
    </rdf:RDF>
  </metadata>
  <g
     inkscape:label="Layer 1"
     inkscape:groupmode="layer"
     id="layer1"
     transform="translate(-45.727786,-656.74949)">
    <g
       transform="matrix(0.18383083,0,0,0.18383083,40.630566,552.88069)"
       id="layer1-9"
       inkscape:label="Layer 1">
      <g
         transform="translate(27.727774,565.02382)"
         id="g2986">
        <defs
           id="defs2988">
          <rect
             y="0"
             x="0"
             id="SVGID_1_"
             width="679.97302"
             height="140.39101" />
        </defs>
        <clipPath
           id="SVGID_2_">
          <use
             height="1"
             width="1"
             y="0"
             x="0"
             style="overflow:visible"
             xlink:href="#SVGID_1_"
             overflow="visible"
             id="use2992" />
        </clipPath>
        <path
           style="fill:#c3d2e9"
           inkscape:connector-curvature="0"
           clip-path="url(#SVGID_2_)"
           d="m 111,17.391 v 75.307 c 0,28.575 -19.407,46.859 -47.888,46.859 C 35.797,139.557 16,122.036 16,91.557 V 17.391 H 0 v -17 h 52 v 17 H 37 v 72.067 c 0,20.764 12.664,29.528 26.612,29.528 C 77.95,118.987 91,110.034 91,89.458 V 17.391 H 76 v -17 h 52 v 17 h -17 z"
           id="path2994" />
        <path
           style="fill:#ffffff"
           inkscape:connector-curvature="0"
           clip-path="url(#SVGID_2_)"
           d="m 248.666,106.191 10.218,9.847 c -14.343,14.29 -30.057,23.746 -55.005,23.746 -39.679,0 -68.947,-30.698 -68.947,-69.699 C 134.932,31.47 164.005,0 204.471,0 c 24.944,0 39.874,8.685 53.628,21.428 l -10.608,11.201 c -11.592,-10.816 -24.556,-18.536 -43.22,-18.536 -30.444,0 -53.231,24.134 -53.231,55.604 0,31.471 22.986,55.99 53.231,55.99 18.861,0.001 31.236,-7.141 44.395,-19.496 m 96.039,-23.577 43.732,57.777 H 369.38 l -41.378,-55 H 289 v 55 h -16 v -138 h 59.326 c 30.252,0 49.697,16.174 49.697,40.499 0,22.589 -15.71,35.864 -37.318,39.724 M 330.953,71.391 c 20.625,0 35.359,-10.007 35.359,-27.576 0,-16.8 -12.964,-26.424 -35.163,-26.424 H 289 v 54 h 41.953 z m 201.719,-1.693 c 0,37.454 -28.486,70.086 -70.323,70.086 -41.839,0 -69.933,-32.246 -69.933,-69.699 C 392.416,32.629 420.9,0 462.742,0 c 41.838,0 69.93,32.243 69.93,69.698 m -16.109,0.386 c 0,-30.892 -22.787,-55.991 -54.214,-55.991 -31.431,0 -53.821,24.714 -53.821,55.604 0,30.892 22.781,55.99 54.215,55.99 31.427,0.001 53.82,-24.711 53.82,-55.603 m 163.41,-0.386 c 0,37.454 -28.484,70.086 -70.326,70.086 -41.836,0 -69.93,-32.246 -69.93,-69.699 0,-37.456 28.482,-70.085 70.32,-70.085 41.846,0 69.936,32.243 69.936,69.698 m -16.108,0.386 c 0,-30.892 -22.785,-55.991 -54.219,-55.991 -31.428,0 -53.818,24.714 -53.818,55.604 0,30.892 22.785,55.99 54.209,55.99 31.438,0.001 53.828,-24.711 53.828,-55.603"
           id="path2996" />
      </g>
    </g>
  </g>
</svg>
