<?xml version="1.0" encoding="utf-8"?>
<!-- Generator: Adobe Illustrator 15.0.2, SVG Export Plug-In . SVG Version: 6.00 Build 0)  -->
<svg version="1.2" baseProfile="tiny" id="Layer_1" xmlns="http://www.w3.org/2000/svg" xmlns:xlink="http://www.w3.org/1999/xlink"
	 x="0px" y="0px" width="537.69px" height="110.812px" viewBox="0 0 537.69 110.812" overflow="inherit" xml:space="preserve">
<g>
	<path fill="#FFFFFF" d="M88.358,13.617v59.711c0,22.593-15.162,37.063-37.689,37.063c-21.607,0-37.073-13.863-37.073-37.972V13.617
		H0V0.021h40.779v13.596H30.586v57.144c0,16.425,9.048,23.362,20.083,23.362c11.341,0,20.696-7.088,20.696-23.362V13.617H61.172
		V0.021h40.776v13.596H88.358z"/>
	<path fill="#009FE3" d="M196.535,83.999l8.074,7.78c-11.338,11.308-23.765,18.787-43.502,18.787
		c-31.386,0-54.538-24.276-54.538-55.13C106.568,24.896,129.564,0,161.581,0c19.726,0,31.539,6.869,42.421,16.951l-8.399,8.859
		c-9.168-8.555-19.418-14.664-34.184-14.664c-24.084,0-42.108,19.088-42.108,43.984s18.18,44.29,42.108,44.29
		C176.334,99.42,186.127,93.774,196.535,83.999z M272.496,67.117l33.396,43.695h-15.408L259.288,70.37h-31.605v40.442h-12.559V2.062
		h47.585c23.921,0,39.3,11.892,39.3,31.133C302.008,51.065,289.582,64.063,272.496,67.117z M261.626,59.837
		c16.298,0,28.292-12.048,28.292-25.947c0-13.287-10.593-21.634-28.136-21.634h-34.1v47.582H261.626z M421.171,55.13
		c0,29.627-22.538,55.437-55.622,55.437c-33.096,0-55.322-25.503-55.322-55.13S332.766,0,365.856,0
		C398.952,0,421.171,25.506,421.171,55.13z M408.426,55.437c0-24.439-18.018-44.291-42.877-44.291
		c-24.866,0-42.571,19.551-42.571,43.984s18.019,44.29,42.878,44.29C390.721,99.42,408.426,79.875,408.426,55.437z M537.69,55.13
		c0,29.627-22.533,55.437-55.629,55.437s-55.316-25.503-55.316-55.13S449.278,0,482.368,0C515.469,0,537.69,25.506,537.69,55.13z
		 M524.951,55.437c0-24.439-18.024-44.291-42.89-44.291c-24.859,0-42.577,19.551-42.577,43.984s18.024,44.29,42.884,44.29
		C507.233,99.42,524.951,79.875,524.951,55.437z"/>
</g>
</svg>
