<?xml version="1.0" encoding="utf-8"?>
<!-- Generator: Adobe Illustrator 15.0.2, SVG Export Plug-In . SVG Version: 6.00 Build 0)  -->
<svg version="1.2" baseProfile="tiny" id="Layer_1" xmlns="http://www.w3.org/2000/svg" xmlns:xlink="http://www.w3.org/1999/xlink"
	 x="0px" y="0px" width="586.641px" height="120.901px" viewBox="0 0 586.641 120.901" overflow="inherit" xml:space="preserve">
<g>
	<path fill="#FFFFFF" d="M96.402,14.857v65.147c0,24.649-16.542,40.438-41.121,40.438c-23.574,0-40.448-15.126-40.448-41.429V14.857
		H0V0.023h44.492v14.834H33.371v62.346c0,17.921,9.872,25.49,21.911,25.49c12.374,0,22.581-7.733,22.581-25.49V14.857H66.741V0.023
		h44.488v14.834H96.402z"/>
	<path fill="#FFFFFF" d="M214.427,91.647l8.809,8.487c-12.371,12.338-25.929,20.498-47.463,20.498
		c-34.243,0-59.502-26.486-59.502-60.149C116.271,27.162,141.36,0,176.292,0c21.521,0,34.41,7.494,46.282,18.494l-9.163,9.665
		c-10.003-9.334-21.187-15.998-37.296-15.998c-26.277,0-45.941,20.826-45.941,47.988s19.835,48.322,45.941,48.322
		C192.388,108.471,203.073,102.312,214.427,91.647z M297.304,73.228l36.437,47.673h-16.812l-34.036-44.124h-34.482v44.124h-13.702
		V2.25h51.917c26.099,0,42.878,12.974,42.878,33.967C329.503,55.715,315.945,69.896,297.304,73.228z M285.445,65.285
		c17.782,0,30.868-13.145,30.868-28.31c0-14.496-11.558-23.604-30.698-23.604h-37.205v51.913H285.445z M459.515,60.149
		c0,32.324-24.591,60.483-60.687,60.483c-36.108,0-60.358-27.824-60.358-60.149C338.47,28.159,363.061,0,399.164,0
		C435.272,0,459.515,27.828,459.515,60.149z M445.61,60.483c0-26.664-19.658-48.322-46.781-48.322
		c-27.129,0-46.446,21.331-46.446,47.988s19.658,48.322,46.781,48.322C426.292,108.471,445.61,87.147,445.61,60.483z
		 M586.641,60.149c0,32.324-24.584,60.483-60.693,60.483c-36.108,0-60.352-27.824-60.352-60.149C465.596,28.159,490.18,0,526.283,0
		C562.398,0,586.641,27.828,586.641,60.149z M572.742,60.483c0-26.664-19.664-48.322-46.794-48.322
		c-27.122,0-46.452,21.331-46.452,47.988s19.664,48.322,46.787,48.322C553.412,108.471,572.742,87.147,572.742,60.483z"/>
</g>
</svg>
