<?xml version="1.0" encoding="UTF-8" standalone="no"?>
<svg width="157px" height="153px" viewBox="0 0 157 153" version="1.1" xmlns="http://www.w3.org/2000/svg" xmlns:xlink="http://www.w3.org/1999/xlink" xmlns:sketch="http://www.bohemiancoding.com/sketch/ns">
    <!-- Generator: bin/sketchtool 1.4 (305) - http://www.bohemiancoding.com/sketch -->
    <title>Logo with shadow</title>
    <desc>Created with bin/sketchtool.</desc>
    <defs>
        <linearGradient x1="83.9662734%" y1="83.4340597%" x2="11.8232041%" y2="5.66810858%" id="linearGradient-1">
            <stop stop-color="#000000" stop-opacity="0" offset="0%"></stop>
            <stop stop-color="#000000" stop-opacity="0" offset="18.3793048%"></stop>
            <stop stop-color="#000000" offset="100%"></stop>
        </linearGradient>
        <filter x="-50%" y="-50%" width="200%" height="200%" filterUnits="objectBoundingBox" id="filter-2">
            <feOffset dx="0" dy="2" in="SourceAlpha" result="shadowOffsetOuter1"></feOffset>
            <feGaussianBlur stdDeviation="2" in="shadowOffsetOuter1" result="shadowBlurOuter1"></feGaussianBlur>
            <feColorMatrix values="0 0 0 0 0   0 0 0 0 0   0 0 0 0 0  0 0 0 0.12679178 0" in="shadowBlurOuter1" type="matrix" result="shadowMatrixOuter1"></feColorMatrix>
            <feMerge>
                <feMergeNode in="shadowMatrixOuter1"></feMergeNode>
                <feMergeNode in="SourceGraphic"></feMergeNode>
            </feMerge>
        </filter>
    </defs>
    <g id="First-steps-for-staff" stroke="none" stroke-width="1" fill="none" fill-rule="evenodd" sketch:type="MSPage">
        <g id="First-Steps-for-Staff-1" sketch:type="MSArtboardGroup" transform="translate(-677.000000, -145.000000)">
            <g id="Logo-with-shadow-+-You-can-always-custo-+-Bring-some-individua-+-Group-5-+-Group-4-+-Group-3-+-Group-2-+-Group" sketch:type="MSLayerGroup" transform="translate(381.000000, 147.000000)">
                <g id="Logo-with-shadow-+-You-can-always-custo-+-Bring-some-individua" sketch:type="MSShapeGroup">
                    <g id="Logo-with-shadow" transform="translate(300.000000, 0.000000)">
                        <path d="M22.5054137,93.0393151 C21.1126213,91.8803438 19.758549,90.6460038 18.4490955,89.3365503 C-2.84346352,68.0439913 -4.2753686,34.9538373 15.250846,15.4276227 C34.7770606,-4.0985919 67.8672146,-2.66668683 89.1597736,18.6258722 L89.3365503,18.4490955 L166.443727,95.5562726 L95.7330493,166.266951 L22.5054137,93.0393151 L22.5054137,93.0393151 Z" id="shadow" fill-opacity="0.149999991" fill="url(index.html#linearGradient-1)"></path>
                        <g id="Logo">
                            <circle id="circle" fill="#3A91E0" filter="url(#filter-2)" cx="50" cy="50" r="50"></circle>
                            <path d="M68.5185185,31.4285714 L68.5185185,60.2380952 C67.485119,71.6894794 60.265253,78.5714286 50,78.5714286 C39.5078125,78.5714286 32.1428571,71.9766664 31.4814815,60.2380952 L31.4814815,31.4285714 L26.1904762,31.4285714 L26.1904762,26.1904762 L44.7089947,26.1904762 L44.7089947,31.4285714 L39.4179894,31.4285714 L39.4179894,60.2380952 C39.9553571,67.5299728 44.6666667,70.8290476 50,70.7142857 C55.1897321,70.8290476 60.0446429,67.4592111 60.5820106,60.2380952 L60.5820106,31.4285714 L55.2910053,31.4285714 L55.2910053,26.1904762 L73.8095238,26.1904762 L73.8095238,31.4285714 L68.5185185,31.4285714" id="Imported-Layers" fill="#FFFFFF"></path>
                        </g>
                    </g>
                </g>
            </g>
        </g>
    </g>
</svg>