<?xml version="1.0" encoding="UTF-8" standalone="no"?>
<svg width="17px" height="20px" viewBox="0 0 17 20" version="1.1" xmlns="http://www.w3.org/2000/svg" xmlns:xlink="http://www.w3.org/1999/xlink">
    <defs></defs>
    <g id="RHS-[ok]" stroke="none" stroke-width="1"   fill-rule="evenodd">
        <g id="RHS---Iddle" transform="translate(-1277.000000, -22.000000)"  >
            <g id="Header---basic">
                <g id="Icons" transform="translate(1170.000000, 13.000000)">
                    <g id="Alerts" transform="translate(96.000000, 0.000000)">
                        <path d="M19.5,29 C20.6,29 21.5,28.1 21.5,27 L17.5,27 C17.5,28.1 18.4,29 19.5,29 L19.5,29 Z M26,23 L26,17.5 C26,14.4 23.9,11.9 21,11.2 L21,10.5 C21,9.7 20.3,9 19.5,9 C18.7,9 18,9.7 18,10.5 L18,11.2 C15.1,11.9 13,14.4 13,17.5 L13,23 L11,25 L11,26 L28,26 L28,25 L26,23 L26,23 Z" id="Shape"></path>
                    </g>
                </g>
            </g>
        </g>
    </g>
</svg>
