<?xml version="1.0" encoding="UTF-8" standalone="no"?>
<!-- Created with Inkscape (http://www.inkscape.org/) -->

<svg
   xmlns:dc="http://purl.org/dc/elements/1.1/"
   xmlns:cc="http://creativecommons.org/ns#"
   xmlns:rdf="http://www.w3.org/1999/02/22-rdf-syntax-ns#"
   xmlns:svg="http://www.w3.org/2000/svg"
   xmlns="http://www.w3.org/2000/svg"
   xmlns:sodipodi="http://sodipodi.sourceforge.net/DTD/sodipodi-0.dtd"
   xmlns:inkscape="http://www.inkscape.org/namespaces/inkscape"
   width="150"
   height="45"
   id="svg2"
   version="1.1"
   viewBox="0 0 150 45"
   style="enable-background:new 0 0 150 45;" xml:space="preserve">

  <g
     inkscape:label="Layer 1"
     inkscape:groupmode="layer"
     id="layer1"
     transform="translate(-244.84286,-508.9343)">
    <g
       inkscape:label="Layer 1"
       transform="matrix(1.4340344,0,0,1.4340344,192.6314,-586.66834)"
       id="layer1-4">
	<g
   transform="translate(233.40879,528.20025)"
   id="g3006">
		<path
   d="m -181.4,235.8 c -8.6,0 -15.6,7 -15.6,15.6 0,8.6 7,15.6 15.6,15.6 8.6,0 15.6,-7 15.6,-15.6 0,-8.6 -7,-15.6 -15.6,-15.6 z m 8.4,10 h -2.3 v 9.7 c 0,3.7 -2.5,6.1 -6.2,6.1 -3.6,0 -6.1,-2.3 -6.1,-6.2 v -9.5 h -2.1 v -2.3 h 6.6 v 2.3 h -1.7 v 9.2 c 0,2.7 1.7,3.8 3.5,3.8 1.9,0 3.6,-1.2 3.6,-3.8 v -9.2 h -2.1 v -2.3 h 7 v 2.2 z"
   class="st0"
   inkscape:connector-curvature="0"
   id="path2986"/>

		<g
   id="g2988">
			<path
   d="m -130.7,249.1 c 0,-3.1 -2.5,-5.2 -6.4,-5.2 h -7.5 v 17.7 h 2.1 v -7 h 4.9 l 5.3,7 h 2.4 l -5.6,-7.4 c 2.8,-0.5 4.8,-2.2 4.8,-5.1 z m -11.8,3.8 v -7 h 5.3 c 2.9,0 4.5,1.3 4.5,3.4 0,2.3 -1.9,3.6 -4.5,3.6 0,0 -5.3,0 -5.3,0 z"
   class="st0"
   inkscape:connector-curvature="0"
   id="path2990"/>

			<path
   d="m -120.3,243.6 c -5.4,0 -9,4.2 -9,9 0,4.8 3.6,9 9,9 5.4,0 9,-4.2 9,-9 0,-4.8 -3.6,-9 -9,-9 z m 0,16.2 c -4,0 -7,-3.2 -7,-7.2 0,-4 2.9,-7.1 6.9,-7.1 4,0 7,3.2 7,7.2 0,4 -2.9,7.1 -6.9,7.1 z"
   class="st0"
   inkscape:connector-curvature="0"
   id="path2992"/>

			<path
   d="m -101.4,243.6 c -5.4,0 -9,4.2 -9,9 0,4.8 3.6,9 9,9 5.4,0 9,-4.2 9,-9 0,-4.8 -3.6,-9 -9,-9 z m 0,16.2 c -4,0 -7,-3.2 -7,-7.2 0,-4 2.9,-7.1 6.9,-7.1 4,0 7,3.2 7,7.2 0,4 -2.8,7.1 -6.9,7.1 z"
   class="st0"
   inkscape:connector-curvature="0"
   id="path2994"/>

			<path
   d="m -153.5,259.8 c -3.9,0 -6.8,-3.2 -6.8,-7.2 0,-4 2.9,-7.1 6.8,-7.1 2.4,0 4.1,1 5.6,2.4 l 1.4,-1.4 c -1.8,-1.6 -3.7,-2.8 -6.9,-2.8 -5.2,0 -8.9,4 -8.9,9 0,5 3.8,9 8.9,9 3.2,0 5.2,-1.2 7.1,-3.1 l -1.3,-1.3 c -1.9,1.6 -3.5,2.5 -5.9,2.5 z"
   class="st0"
   inkscape:connector-curvature="0"
   id="path2996" />

		</g>

		<rect
   height="31.200001"
   width="104.6"
   class="st1"
   y="235.8"
   x="-197"
   id="rect2998"
   style="fill:#ffffff;display:none" />

	</g>

</g>
  </g>
</svg>
