<?xml version="1.0" encoding="UTF-8" standalone="no"?>
<svg width="38px" height="38px" viewBox="0 0 38 38" version="1.1" xmlns="http://www.w3.org/2000/svg" xmlns:xlink="http://www.w3.org/1999/xlink">
    <defs></defs>
    <g id="RHS-[ok]" stroke="none" stroke-width="1"   fill-rule="evenodd">
        <g id="RHS---Iddle" transform="translate(-20.000000, -13.000000)"  >
            <g id="Header---basic">
                <path d="M39,51 C49.4934102,51 58,42.4934102 58,32 C58,21.5065898 49.4934102,13 39,13 C28.5065898,13 20,21.5065898 20,32 C20,42.4934102 28.5065898,51 39,51 Z M46.037037,24.9428571 L46.037037,35.8904762 C45.6443452,40.2420022 42.9007961,42.8571429 39,42.8571429 C35.0129688,42.8571429 32.2142857,40.3511332 31.962963,35.8904762 L31.962963,24.9428571 L29.952381,24.9428571 L29.952381,22.952381 L36.989418,22.952381 L36.989418,24.9428571 L34.978836,24.9428571 L34.978836,35.8904762 C35.1830357,38.6613897 36.9733333,39.9150381 39,39.8714286 C40.9720982,39.9150381 42.8169643,38.6345002 43.021164,35.8904762 L43.021164,24.9428571 L41.010582,24.9428571 L41.010582,22.952381 L48.047619,22.952381 L48.047619,24.9428571 L46.037037,24.9428571 Z" id="Logo"></path>
            </g>
        </g>
    </g>
</svg>
