<?xml version="1.0" encoding="UTF-8" standalone="no"?>
<svg width="20px" height="20px" viewBox="0 0 20 20" version="1.1" xmlns="http://www.w3.org/2000/svg" xmlns:xlink="http://www.w3.org/1999/xlink">
    <defs></defs>
    <g id="RHS-[ok]" stroke="none" stroke-width="1"   fill-rule="evenodd">
        <g id="RHS---Iddle" transform="translate(-1227.000000, -22.000000)"  >
            <g id="Header---basic">
                <g id="Icons" transform="translate(1170.000000, 13.000000)">
                    <g id="Messages" transform="translate(48.000000, 0.000000)">
                        <path d="M28,13 L26,13 L26,22 L13,22 L13,24 C13,24.6 13.4,25 14,25 L25,25 L29,29 L29,14 C29,13.4 28.6,13 28,13 L28,13 Z M24,19 L24,10 C24,9.4 23.6,9 23,9 L10,9 C9.4,9 9,9.4 9,10 L9,24 L13,20 L23,20 C23.6,20 24,19.6 24,19 L24,19 Z" id="Shape"></path>
                    </g>
                </g>
            </g>
        </g>
    </g>
</svg>
