<?xml version="1.0" encoding="UTF-8" standalone="no"?>
<svg width="18px" height="18px" viewBox="0 0 18 18" version="1.1" xmlns="http://www.w3.org/2000/svg" xmlns:xlink="http://www.w3.org/1999/xlink">
    <defs></defs>
    <g id="RHS-[ok]"  stroke-width="1">
        <g id="RHS---Iddle" transform="translate(-1180.000000, -23.000000)">
            <g id="Header---basic">
                <g id="Icons" transform="translate(1170.000000, 13.000000)">
                    <g id="Search">
                        <path d="M22.8571429,21.3142857 L22.0342857,21.3142857 L21.7257143,21.0057143 C22.7542857,19.8742857 23.3714286,18.3314286 23.3714286,16.6857143 C23.3714286,12.9828571 20.3885714,10 16.6857143,10 C12.9828571,10 10,12.9828571 10,16.6857143 C10,20.3885714 12.9828571,23.3714286 16.6857143,23.3714286 C18.3314286,23.3714286 19.8742857,22.7542857 21.0057143,21.7257143 L21.3142857,22.0342857 L21.3142857,22.8571429 L26.4571429,28 L28,26.4571429 L22.8571429,21.3142857 L22.8571429,21.3142857 Z M16.6857143,21.3142857 C14.1142857,21.3142857 12.0571429,19.2571429 12.0571429,16.6857143 C12.0571429,14.1142857 14.1142857,12.0571429 16.6857143,12.0571429 C19.2571429,12.0571429 21.3142857,14.1142857 21.3142857,16.6857143 C21.3142857,19.2571429 19.2571429,21.3142857 16.6857143,21.3142857 L16.6857143,21.3142857 Z" id="Shape"></path>
                    </g>
                </g>
            </g>
        </g>
    </g>
</svg>