<?xml version="1.0" encoding="UTF-8" standalone="no"?>
<svg width="20px" height="23px" viewBox="0 0 20 23" version="1.1" xmlns="http://www.w3.org/2000/svg" xmlns:xlink="http://www.w3.org/1999/xlink">
    <defs></defs>
    <g id="RHS-[ok]" stroke="none" stroke-width="1"   fill-rule="evenodd">
        <g id="RHS---Iddle" transform="translate(-1323.000000, -21.000000)"  >
            <g id="Header---basic">
                <g id="Icons" transform="translate(1170.000000, 13.000000)">
                    <g id="Timer" transform="translate(144.000000, 0.000000)">
                        <path d="M15.3197259,15.7828284 C14.8039477,16.1001417 16.7009039,20.6775295 17.1636043,21.4229271 C17.5674576,22.0794771 18.4247802,22.2790959 19.0767147,21.8775504 C19.7321108,21.4713895 19.9363451,20.6152207 19.5324919,19.9621323 C19.074407,19.2144269 15.8343503,15.4643613 15.3197259,15.7828284 L15.3197259,15.7828284 Z M14.9331807,10.7715869 C16.0039687,10.3988881 17.1509118,10.192346 18.3474712,10.192346 C19.5440306,10.192346 20.6909737,10.3988881 21.7617617,10.7715869 C22.1413837,10.9031277 22.6444694,10.6388923 22.4217732,10.0665746 C22.2590781,9.65118273 22.1021523,9.24502178 22.0386896,9.08001889 C21.8875331,8.6888582 21.3463698,8.36577563 21.1109811,8.31269778 C20.2201963,8.11192503 19.2971032,8 18.3474712,8 C17.3978392,8 16.4747461,8.11192503 15.5828075,8.31269778 C15.3474187,8.36577563 14.8074093,8.6888582 14.6562528,9.08001889 C14.5927901,9.24502178 14.4347105,9.65118273 14.2731692,10.0665746 C14.050473,10.6388923 14.5535587,10.9042816 14.9331807,10.7715869 L14.9331807,10.7715869 Z M28.8453471,11.6762182 C28.6238048,11.4108289 28.3884161,11.151209 28.1380271,10.90082 C27.8887919,10.650431 27.629172,10.4161961 27.3649366,10.1934999 C27.1883951,10.0446512 26.6691552,9.92349518 26.3403033,10.2523471 C26.0126053,10.581199 24.4387316,12.1527649 24.4387316,12.1527649 C24.9025859,12.4850785 25.3537476,12.8508541 25.7714472,13.2673998 C26.1891468,13.6839456 26.5526147,14.1351073 26.8860821,14.6001155 C26.8860821,14.6001155 28.4588019,13.0285495 28.7865,12.6996976 C29.1165057,12.3696918 28.9953498,11.8516058 28.8453471,11.6762182 L28.8453471,11.6762182 Z M18.3474712,11.3462124 C13.1839193,11.3462124 9,15.5301317 9,20.6925297 C9,25.8560816 13.1839193,30.0400009 18.3474712,30.0400009 C23.5087153,30.0400009 27.6937885,25.8560816 27.6937885,20.6925297 C27.6937885,15.5312856 23.5087153,11.3462124 18.3474712,11.3462124 L18.3474712,11.3462124 Z M18.3474712,27.7322682 C14.4612494,27.7322682 11.3088865,24.5810593 11.3088865,20.6936836 C11.3088865,16.8063079 14.4600955,13.6550989 18.3474712,13.6550989 C22.2348469,13.6550989 25.3872097,16.8063079 25.3872097,20.6936836 C25.3872097,24.5799054 22.2348469,27.7322682 18.3474712,27.7322682 L18.3474712,27.7322682 Z" id="Shape-Copy-7"></path>
                    </g>
                </g>
            </g>
        </g>
    </g>
</svg>
