<?xml version="1.0" encoding="UTF-8" standalone="no"?>
<svg width="17px" height="16px" viewBox="3 3 14 13" version="1.1" xmlns="http://www.w3.org/2000/svg" xmlns:xlink="http://www.w3.org/1999/xlink">
    <defs></defs>
    
    <g id="Rectangle-176-+-Shape-Copy-11">
        <path d="M10,6.54545455 C11.7818182,6.54545455 13.1818182,7.94545455 13.1818182,9.72727273 C13.1818182,10.1090909 13.1181818,10.5545455 12.9272727,10.8727273 L14.7727273,12.7181818 C15.7272727,11.8909091 16.4909091,10.8727273 16.9363636,9.72727273 C15.8545455,6.92727273 13.1181818,4.95454545 9.93636364,4.95454545 C9.04545455,4.95454545 8.21818182,5.14545455 7.39090909,5.4 L8.79090909,6.8 C9.17272727,6.60909091 9.61818182,6.54545455 10,6.54545455 L10,6.54545455 Z M3.63636364,4.82727273 L5.1,6.29090909 L5.35454545,6.54545455 C4.27272727,7.37272727 3.44545455,8.45454545 3,9.72727273 C4.08181818,12.5272727 6.81818182,14.5 10,14.5 C10.9545455,14.5 11.9090909,14.3090909 12.8,13.9909091 L13.0545455,14.2454545 L14.9,16.0909091 L15.7272727,15.2636364 L4.46363636,4 L3.63636364,4.82727273 L3.63636364,4.82727273 Z M7.13636364,8.32727273 L8.09090909,9.28181818 L8.09090909,9.72727273 C8.09090909,10.8090909 8.91818182,11.6363636 10,11.6363636 C10.1272727,11.6363636 10.2545455,11.6363636 10.4454545,11.5727273 L11.4,12.5272727 C10.9545455,12.7818182 10.5090909,12.9090909 10,12.9090909 C8.21818182,12.9090909 6.81818182,11.5090909 6.81818182,9.72727273 C6.81818182,9.21818182 6.94545455,8.77272727 7.13636364,8.32727273 L7.13636364,8.32727273 Z M9.87272727,7.81818182 L11.8454545,9.79090909 L11.8454545,9.66363636 C11.8454545,8.58181818 11.0181818,7.75454545 9.93636364,7.75454545 C9.93636364,7.81818182 9.93636364,7.81818182 9.87272727,7.81818182 L9.87272727,7.81818182 Z" id="Shape-Copy-11"></path>
    </g>
                            
</svg>