<?xml version="1.0" encoding="utf-8"?>
<!-- Generator: Adobe Illustrator 18.1.0, SVG Export Plug-In . SVG Version: 6.00 Build 0)  -->
<svg version="1.1" id="Layer_1" xmlns="http://www.w3.org/2000/svg" xmlns:xlink="http://www.w3.org/1999/xlink" x="0px" y="0px"
	 viewBox="0 0 104.6 31.2" enable-background="new 0 0 104.6 31.2" xml:space="preserve">
<g>
	<defs>
		<rect id="SVGID_1_" y="0" width="104.6" height="31.2"/>
	</defs>
	<clipPath id="SVGID_2_">
		<use xlink:href="#SVGID_1_"  overflow="visible"/>
	</clipPath>
	<path clip-path="url(#SVGID_2_)" fill="#FFFFFF" d="M24,10h-2.3v9.7c0,3.7-2.5,6.1-6.2,6.1c-3.6,0-6.1-2.3-6.1-6.2V10H7.2V7.7h6.6
		V10h-1.7v9.2c0,2.7,1.7,3.8,3.5,3.8c1.9,0,3.6-1.2,3.6-3.8V10H17V7.7h7V10z M15.6,0C7,0,0,7,0,15.6c0,8.6,7,15.6,15.6,15.6
		s15.6-7,15.6-15.6C31.2,7,24.2,0,15.6,0"/>
	<path clip-path="url(#SVGID_2_)" fill="#FFFFFF" d="M54.5,17.1v-7h5.3c2.9,0,4.5,1.3,4.5,3.4c0,2.3-1.9,3.6-4.5,3.6H54.5z
		 M66.3,13.3c0-3.1-2.5-5.2-6.4-5.2h-7.5v17.7h2.1v-7h4.9l5.3,7h2.4l-5.6-7.4C64.3,17.9,66.3,16.2,66.3,13.3"/>
	<path clip-path="url(#SVGID_2_)" fill="#FFFFFF" d="M76.7,24c-4,0-7-3.2-7-7.2s2.9-7.1,6.9-7.1s7,3.2,7,7.2S80.7,24,76.7,24
		 M76.7,7.8c-5.4,0-9,4.2-9,9c0,4.8,3.6,9,9,9c5.4,0,9-4.2,9-9C85.7,12,82.1,7.8,76.7,7.8"/>
	<path clip-path="url(#SVGID_2_)" fill="#FFFFFF" d="M95.6,24c-4,0-7-3.2-7-7.2s2.9-7.1,6.9-7.1c4,0,7,3.2,7,7.2S99.7,24,95.6,24
		 M95.6,7.8c-5.4,0-9,4.2-9,9c0,4.8,3.6,9,9,9s9-4.2,9-9C104.6,12,101,7.8,95.6,7.8"/>
	<path clip-path="url(#SVGID_2_)" fill="#FFFFFF" d="M43.5,24c-3.9,0-6.8-3.1-6.8-7.2s2.9-7.1,6.8-7.1c2.4,0,4.1,1,5.6,2.4l1.4-1.4
		c-1.8-1.6-3.7-2.8-6.9-2.8c-5.2,0-8.9,4-8.9,9c0,5,3.8,9,8.9,9c3.2,0,5.2-1.2,7.1-3.1l-1.3-1.3C47.5,23.1,45.9,24,43.5,24"/>
</g>
</svg>
