<?xml version="1.0" encoding="UTF-8" standalone="no"?>
<svg width="14px" height="14px" viewBox="0 0 14 14" version="1.1" xmlns="http://www.w3.org/2000/svg" xmlns:xlink="http://www.w3.org/1999/xlink">
    <defs></defs>
    <g id="Sign-up" stroke="none" stroke-width="1" fill="none" fill-rule="evenodd">
        <g id="Login-1" transform="translate(-508.000000, -437.000000)" fill="#3A91E0">
            <g id="Group" transform="translate(467.000000, 92.000000)">
                <g transform="translate(40.000000, 261.000000)" id="Rectangle-12-Copy-2-+-00-copy-+-Target-to-Internatio-+-Shape-Copy-6-+-Select-your-universi">
                    <g>
                        <g id="Target-to-Internatio-+-Shape-Copy-6" transform="translate(1.000000, 83.000000)">
                            <path d="M12.4444444,1 L1.55555556,1 C0.7,1 0,1.7 0,2.55555556 L0,13.4444444 C0,14.3 0.7,15 1.55555556,15 L12.4444444,15 C13.3,15 14,14.3 14,13.4444444 L14,2.55555556 C14,1.7 13.3,1 12.4444444,1 L12.4444444,1 Z M5.44444444,11.8888889 L1.55555556,8 L2.64444444,6.91111111 L5.44444444,9.71111111 L11.3555556,3.8 L12.4444444,4.88888889 L5.44444444,11.8888889 L5.44444444,11.8888889 Z" id="Shape-Copy"></path>
                        </g>
                    </g>
                </g>
            </g>
        </g>
    </g>
</svg>