<?xml version="1.0" encoding="UTF-8" standalone="no"?>
<svg width="20px" height="20px" viewBox="0 0 20 20" version="1.1" xmlns="http://www.w3.org/2000/svg" xmlns:xlink="http://www.w3.org/1999/xlink" xmlns:sketch="http://www.bohemiancoding.com/sketch/ns">
    <!-- Generator: bin/sketchtool 1.4 (305) - http://www.bohemiancoding.com/sketch -->
    <title>Shape</title>
    <desc>Created with bin/sketchtool.</desc>
    <defs></defs>
    <g id="News" stroke="none" stroke-width="1" sketch:type="MSPage">
        <g id="News-:-Details" sketch:type="MSArtboardGroup" transform="translate(-1051.000000, -1152.000000)">
            <g id="Comments-block" sketch:type="MSLayerGroup" transform="translate(439.000000, 916.000000)">
                <g id="New-Comment-Form" transform="translate(0.000000, 227.000000)" sketch:type="MSShapeGroup">
                    <g id="-Show-past-subjects-+-check-box-+-Post-type-button-3-Copy-2" transform="translate(577.000000, 9.000000)">
                        <g id="Shape-+-Rectangle-43-Copy" transform="translate(35.000000, 0.000000)">
                            <path d="M10,0 C4.5,0 0,4.5 0,10 C0,15.5 4.5,20 10,20 C15.5,20 20,15.5 20,10 C20,4.5 15.5,0 10,0 L10,0 Z M13.5,6 C14.3,6 15,6.7 15,7.5 C15,8.3 14.3,9 13.5,9 C12.7,9 12,8.3 12,7.5 C12,6.7 12.7,6 13.5,6 L13.5,6 Z M6.5,6 C7.3,6 8,6.7 8,7.5 C8,8.3 7.3,9 6.5,9 C5.7,9 5,8.3 5,7.5 C5,6.7 5.7,6 6.5,6 L6.5,6 Z M10,16 C7.4,16 5.2,14.3 4.4,12 L15.6,12 C14.8,14.3 12.6,16 10,16 L10,16 Z" id="Shape"></path>
                        </g>
                    </g>
                </g>
            </g>
        </g>
    </g>
</svg>