<?xml version="1.0" encoding="UTF-8" standalone="no"?>
<svg width="17px" height="18px" viewBox="0 0 17 18" version="1.1" xmlns="http://www.w3.org/2000/svg" xmlns:xlink="http://www.w3.org/1999/xlink" xmlns:sketch="http://www.bohemiancoding.com/sketch/ns">
    <!-- Generator: bin/sketchtool 1.4 (305) - http://www.bohemiancoding.com/sketch -->
    <title>today</title>
    <desc>Created with bin/sketchtool.</desc>
    <defs></defs>
    <g id="Profile" stroke="none" stroke-width="1" fill-rule="evenodd" sketch:type="MSPage">
        <g id="Profile-:-Calendar" sketch:type="MSArtboardGroup" transform="translate(-933.000000, -330.000000)" >
            <g id="profile" sketch:type="MSLayerGroup" transform="translate(330.000000, 64.000000)">
                <g id="Feed-Tabs" transform="translate(50.000000, 251.000000)" sketch:type="MSShapeGroup">
                    <g id="Group" transform="translate(0.000000, 9.000000)">
                        <g id="icon-+-FEED-Copy-5" transform="translate(546.000000, 0.000000)">
                            <g id="icon">
                                <g id="list" transform="translate(7.000000, 6.000000)">
                                    <g id="today">
                                        <path d="M14.4,1.8 L13.5,1.8 L13.5,0 L11.7,0 L11.7,1.8 L4.5,1.8 L4.5,0 L2.7,0 L2.7,1.8 L1.8,1.8 C0.81,1.8 0,2.61 0,3.6 L0,16.2 C0,17.19 0.81,18 1.8,18 L14.4,18 C15.39,18 16.2,17.19 16.2,16.2 L16.2,3.6 C16.2,2.61 15.39,1.8 14.4,1.8 L14.4,1.8 Z M14.4,16.2 L1.8,16.2 L1.8,6.3 L14.4,6.3 L14.4,16.2 L14.4,16.2 Z" id="Shape"></path>
                                        <rect id="Rectangle-path" x="4" y="9" width="5" height="5"></rect>
                                    </g>
                                </g>
                            </g>
                        </g>
                    </g>
                </g>
            </g>
        </g>
    </g>
</svg>