<?xml version="1.0" encoding="UTF-8" standalone="no"?>
<svg width="12px" height="12px" viewBox="0 0 12 12" version="1.1" xmlns="http://www.w3.org/2000/svg" xmlns:xlink="http://www.w3.org/1999/xlink" xmlns:sketch="http://www.bohemiancoding.com/sketch/ns">
    <!-- Generator: bin/sketchtool 1.4 (305) - http://www.bohemiancoding.com/sketch -->
    <title>Shape</title>
    <desc>Created with bin/sketchtool.</desc>
    <defs></defs>
    <g id="Profile" stroke="none" stroke-width="1"   fill-rule="evenodd" sketch:type="MSPage">
        <g id="Profile-:-Groups" sketch:type="MSArtboardGroup" transform="translate(-512.000000, -283.000000)"  >
            <g id="profile" sketch:type="MSLayerGroup" transform="translate(330.000000, 64.000000)">
                <g id="Profile-info-baseo-+-Melbourne-Campus-+-Rectangle-823-+-Shape-+-Melbourne-Campus-+-Rectangle-823-+-Shape-Copy-+-Melbourne-Campus-+-Rectangle-823-+-Shape-Copy-2" transform="translate(1.000000, 200.000000)" sketch:type="MSShapeGroup">
                    <g id="Melbourne-Campus-+-Rectangle-823-+-Shape-+-Melbourne-Campus-+-Rectangle-823-+-Shape-Copy-+-Melbourne-Campus-+-Rectangle-823-+-Shape-Copy-2" transform="translate(179.000000, 17.000000)">
                        <g id="Melbourne-Campus-+-Rectangle-823-+-Shape">
                            <g id="Rectangle-823-+-Shape">
                                <path d="M2,14 L2,5 C2,4.66862915 2.26862915,4.4 2.6,4.4 L5,4.4 L5,2 L11,2 L11,4.4 L13.4,4.4 C13.7313708,4.4 14,4.66862915 14,5 L14,14 L9.2,14 L9.2,11 L6.8,11 L6.8,14 L2,14 L2,14 Z M6.2,6.8 L7.4,6.8 L7.4,5.6 L8.6,5.6 L8.6,6.8 L9.8,6.8 L9.8,3.2 L8.6,3.2 L7.4,3.2 L6.2,3.2 L6.2,6.8 Z M3.2,12.8 L5.6,12.8 L5.6,11 L3.2,11 L3.2,12.8 L3.2,12.8 Z M3.2,9.8 L5.6,9.8 L5.6,8 L3.2,8 L3.2,9.8 L3.2,9.8 Z M10.4,12.8 L12.8,12.8 L12.8,11 L10.4,11 L10.4,12.8 L10.4,12.8 Z M10.4,9.8 L12.8,9.8 L12.8,8 L10.4,8 L10.4,9.8 L10.4,9.8 Z M6.8,9.8 L9.2,9.8 L9.2,8 L6.8,8 L6.8,9.8 L6.8,9.8 Z" id="Shape"></path>
                            </g>
                        </g>
                    </g>
                </g>
            </g>
        </g>
    </g>
</svg>
