<?xml version="1.0" encoding="UTF-8" standalone="no"?>
<svg width="9px" height="12px" viewBox="0 0 9 12" version="1.1" xmlns="http://www.w3.org/2000/svg" xmlns:xlink="http://www.w3.org/1999/xlink" xmlns:sketch="http://www.bohemiancoding.com/sketch/ns">
    <!-- Generator: bin/sketchtool 1.4 (305) - http://www.bohemiancoding.com/sketch -->
    <title>Shape Copy 6</title>
    <desc>Created with bin/sketchtool.</desc>
    <defs></defs>
    <g id="Profile" stroke="none" stroke-width="1"   fill-rule="evenodd" sketch:type="MSPage">
        <g id="Profile-:-Groups" sketch:type="MSArtboardGroup" transform="translate(-771.000000, -283.000000)"  >
            <g id="profile" sketch:type="MSLayerGroup" transform="translate(330.000000, 64.000000)">
                <g id="Profile-info-baseo-+-Melbourne-Campus-+-Rectangle-823-+-Shape-+-Melbourne-Campus-+-Rectangle-823-+-Shape-Copy-+-Melbourne-Campus-+-Rectangle-823-+-Shape-Copy-2" transform="translate(1.000000, 200.000000)" sketch:type="MSShapeGroup">
                    <g id="Melbourne-Campus-+-Rectangle-823-+-Shape-+-Melbourne-Campus-+-Rectangle-823-+-Shape-Copy-+-Melbourne-Campus-+-Rectangle-823-+-Shape-Copy-2" transform="translate(179.000000, 17.000000)">
                        <g id="Melbourne-Campus-+-Rectangle-823-+-Shape-Copy-2" transform="translate(257.000000, 0.000000)">
                            <g id="Rectangle-823-+-Shape">
                                <path d="M10.3283582,7.19402985 L11.1641791,10.358209 L8.41791045,8.08955224 L5.67164179,10.358209 L6.50746269,7.25373134 L4,5.1641791 L7.2238806,4.98507463 L8.41791045,2 L9.6119403,4.98507463 L12.8358209,5.1641791 L10.3283582,7.19402985 L10.3283582,7.19402985 Z M9.6119403,12.2089552 L9.01492537,12.2089552 L9.01492537,10.358209 L8.41791045,9.76119403 L7.82089552,10.358209 L7.82089552,12.2089552 L7.2238806,12.2089552 C6.56443612,12.2089552 6.02985075,12.7435406 6.02985075,13.4029851 L6.02985075,14 L10.8059701,14 L10.8059701,13.4029851 C10.8059701,12.7435406 10.2713848,12.2089552 9.6119403,12.2089552 L9.6119403,12.2089552 Z" id="Shape-Copy-6"></path>
                            </g>
                        </g>
                    </g>
                </g>
            </g>
        </g>
    </g>
</svg>
