<?xml version="1.0" encoding="UTF-8" standalone="no"?>
<svg width="12px" height="17px" viewBox="0 0 12 17" version="1.1" xmlns="http://www.w3.org/2000/svg" xmlns:xlink="http://www.w3.org/1999/xlink">
    <defs></defs>
    <g id="Header-[ok]" stroke="none" stroke-width="1"   fill-rule="evenodd">
        <g id="Timer-with-classes-dropdown" transform="translate(-540.000000, -125.000000)"  >
            <g id="Class-items-+-more-button-iddle-+-Classes-dropdown" transform="translate(20.000000, 52.000000)">
                <g id="Classes-dropdown" transform="translate(505.000000, 42.000000)">
                    <g id="text" transform="translate(0.000000, 21.000000)">
                        <g id="item">
                            <g id="APG4345-+-Shape-Copy" transform="translate(15.000000, 10.000000)">
                                <path d="M12,4.67160582 L12,13.5436509 C12,13.9910673 11.6125819,14.2044901 11.1428804,14.5379096 C10.7657478,14.8061881 10.2857608,14.4736257 10.2857608,14.0347804 L10.2857608,5.3658727 C10.2857608,5.18502047 10.2223339,5.01273942 10.0166252,4.90731371 C9.81091652,4.801888 3.38423369,1.4231225 3.38423369,1.4231225 C3.28052222,1.38455212 2.82796307,1.09913129 2.22455086,1.40940859 C1.65113784,1.70425773 1.3391463,2.02482047 1.25943418,2.17567352 L8.27067258,6.01728361 C8.45666754,6.11499524 8.57152156,6.26584829 8.57152156,6.45955732 L8.57152156,15.7181633 C8.57152156,15.9153008 8.44981058,16.1261523 8.25524443,16.2195783 C8.16610399,16.2641485 8.06753523,16.2855765 7.9698236,16.2855765 C7.85411245,16.2855765 7.73754419,16.2572916 7.63897543,16.1964361 C7.45469471,16.0841534 0.975727591,12.111404 0.548024906,11.853411 C0.3423162,11.7299858 0.10146559,11.4771355 0.0963228721,11.2894263 L0.00032547593,2.47309402 C0.00032547593,2.30338434 -0.0193882751,2.0042496 0.248033043,1.58854659 C0.84544541,0.65942893 2.9299603,-0.397399547 3.98507454,0.150299883 L11.6982939,4.0544797 C11.8842889,4.1504771 12,4.34247189 12,4.67160582 L12,4.67160582 Z" id="book-red-ico"></path>
                            </g>
                        </g>
                    </g>
                </g>
            </g>
        </g>
    </g>
</svg>
