<?xml version="1.0" encoding="UTF-8" standalone="no"?>
<svg width="12px" height="12px" viewBox="0 0 12 12" version="1.1" xmlns="http://www.w3.org/2000/svg" xmlns:xlink="http://www.w3.org/1999/xlink">
    <defs></defs>
    <g id="Header-[ok]" stroke="none" stroke-width="1"   fill-rule="evenodd">
        <g id="Messages-dropdown-default" transform="translate(-1302.000000, -114.000000)"  >
            <g id="Dropdown-menu" transform="translate(1025.000000, 93.000000)">
                <g id="Mark-all-as-read-+-Shape" transform="translate(277.000000, 19.000000)">
                    <path d="M3.54,6.86 L2.7,7.7 L5.4,10.4 L11.4,4.4 L10.56,3.56 L5.4,8.72 L3.54,6.86 L3.54,6.86 Z M10.8,8 C10.8,10.64 8.64,12.8 6,12.8 C3.36,12.8 1.2,10.64 1.2,8 C1.2,5.36 3.36,3.2 6,3.2 C6.48,3.2 6.9,3.26 7.32,3.38 L8.28,2.42 C7.56,2.18 6.78,2 6,2 C2.7,2 0,4.7 0,8 C0,11.3 2.7,14 6,14 C9.3,14 12,11.3 12,8 L10.8,8 L10.8,8 Z" id="Shape"></path>
                </g>
            </g>
        </g>
    </g>
</svg>
