<?xml version="1.0" encoding="UTF-8" standalone="no"?>
<svg width="18px" height="18px" viewBox="0 0 18 18" version="1.1" xmlns="http://www.w3.org/2000/svg" xmlns:xlink="http://www.w3.org/1999/xlink">
    <defs></defs>
    <g id="Header-[ok]" stroke="none" stroke-width="1" fill-rule="evenodd">
        <g id="Notifications-dropdown" transform="translate(-1131.000000, -444.000000)" >
            <g id="Dropdown-menu" transform="translate(1025.000000, 93.000000)">
                <g id="Message-Copy-2" transform="translate(25.000000, 256.000000)">
                    <g id="Button-+-Button-Copy" transform="translate(55.000000, 87.000000)">
                        <g id="Button">
                            <g id="Accept-+-Shape" transform="translate(26.000000, 8.000000)">
                                <path d="M9.9,4.5 L8.1,4.5 L8.1,8.1 L4.5,8.1 L4.5,9.9 L8.1,9.9 L8.1,13.5 L9.9,13.5 L9.9,9.9 L13.5,9.9 L13.5,8.1 L9.9,8.1 L9.9,4.5 L9.9,4.5 Z M9,0 C4.05,0 0,4.05 0,9 C0,13.95 4.05,18 9,18 C13.95,18 18,13.95 18,9 C18,4.05 13.95,0 9,0 L9,0 Z M9,16.2 C5.04,16.2 1.8,12.96 1.8,9 C1.8,5.04 5.04,1.8 9,1.8 C12.96,1.8 16.2,5.04 16.2,9 C16.2,12.96 12.96,16.2 9,16.2 L9,16.2 Z" id="Shape"></path>
                            </g>
                        </g>
                    </g>
                </g>
            </g>
        </g>
    </g>
</svg>