<?xml version="1.0" encoding="UTF-8" standalone="no"?>
<svg width="14px" height="14px" viewBox="0 0 14 14" version="1.1" xmlns="http://www.w3.org/2000/svg" xmlns:xlink="http://www.w3.org/1999/xlink">
    <defs></defs>
    <g id="Custom-Groups" stroke="none" stroke-width="1" fill-rule="evenodd">
        <g id="Group-view---Custom-Groups-root-2" transform="translate(-918.000000, -494.000000)">
            <g id="Group-filter" transform="translate(896.000000, 451.000000)">
                <g id="Dropdown-menu" transform="translate(0.000000, 16.000000)">
                    <g id="option" transform="translate(0.000000, 16.000000)">
                        <g id="Post-type-button-3" transform="translate(15.000000, 4.000000)">
                            <g id="Shape-+-Rectangle-43">
                                <g id="image" transform="translate(7.000000, 7.000000)">
                                    <path d="M7,7.875 C4.66375,7.875 0,9.03875 0,11.375 L0,14 L14,14 L14,11.375 C14,9.03875 9.33625,7.875 7,7.875 L7,7.875 Z M7,0 C5.06700338,0 3.5,1.56700338 3.5,3.5 C3.5,5.43299662 5.06700338,7 7,7 C8.93299662,7 10.5,5.43299662 10.5,3.5 C10.5,1.56700338 8.93299662,0 7,0 L7,0 Z" id="Shape-Copy-13"></path>
                                </g>
                            </g>
                        </g>
                    </g>
                </g>
            </g>
        </g>
    </g>
</svg>
