<?xml version="1.0" encoding="UTF-8" standalone="no"?>
<svg width="16px" height="16px" viewBox="0 0 16 16" version="1.1" xmlns="http://www.w3.org/2000/svg" xmlns:xlink="http://www.w3.org/1999/xlink" xmlns:sketch="http://www.bohemiancoding.com/sketch/ns">
    <!-- Generator: bin/sketchtool 1.4 (305) - http://www.bohemiancoding.com/sketch -->
    <title>Button Copy 4</title>
    <desc>Created with bin/sketchtool.</desc>
    <defs></defs>
    <g id="New-post" stroke="none" stroke-width="1"   fill-rule="evenodd" sketch:type="MSPage">
        <g id="New-post-:-post-options-for-other-staff" sketch:type="MSArtboardGroup" transform="translate(-1050.000000, -440.000000)">
            <g id="Group-+-Group" sketch:type="MSLayerGroup" transform="translate(380.000000, 213.000000)">
                <g id="Group" transform="translate(0.000000, 140.000000)" sketch:type="MSShapeGroup">
                    <g id="Button-Copy-4" transform="translate(657.000000, 78.000000)">
                        <rect id="Rectangle-12" x="0" y="0" width="43" height="34" rx="2"></rect>
                        <path d="M21.8,13 L20.2,13 L20.2,16.2 L17,16.2 L17,17.8 L20.2,17.8 L20.2,21 L21.8,21 L21.8,17.8 L25,17.8 L25,16.2 L21.8,16.2 L21.8,13 L21.8,13 Z M21,9 C16.6,9 13,12.6 13,17 C13,21.4 16.6,25 21,25 C25.4,25 29,21.4 29,17 C29,12.6 25.4,9 21,9 L21,9 Z M21,23.4 C17.48,23.4 14.6,20.52 14.6,17 C14.6,13.48 17.48,10.6 21,10.6 C24.52,10.6 27.4,13.48 27.4,17 C27.4,20.52 24.52,23.4 21,23.4 L21,23.4 Z" id="Shape"  ></path>
                    </g>
                </g>
            </g>
        </g>
    </g>
</svg>
