<?xml version="1.0" encoding="UTF-8" standalone="no"?>
<svg width="48px" height="48px" viewBox="0 0 48 48" version="1.1" xmlns="http://www.w3.org/2000/svg" xmlns:xlink="http://www.w3.org/1999/xlink" xmlns:sketch="http://www.bohemiancoding.com/sketch/ns">
    <!-- Generator: bin/sketchtool 1.4 (305) - http://www.bohemiancoding.com/sketch -->
    <title>User Copy 3</title>
    <desc>Created with bin/sketchtool.</desc>
    <defs>
        <circle id="path-1" cx="24" cy="24" r="24"></circle>
    </defs>
    <g id="Clubs-&amp;-Societes" stroke="none" stroke-width="1" fill="none" fill-rule="evenodd" sketch:type="MSPage">
        <g id="Event&amp;Ticket---1" sketch:type="MSArtboardGroup" transform="translate(-759.000000, -960.000000)">
            <g id="Sell-tickets-for-fre-+-Group-+-Post-at-Copy" sketch:type="MSLayerGroup" transform="translate(434.000000, 848.000000)">
                <g id="Group" transform="translate(0.000000, 49.000000)">
                    <g id="User-Copy-3-+-Sell-tickets-online-Copy-Copy" transform="translate(325.000000, 63.000000)">
                        <g id="User-Copy-3">
                            <mask id="mask-2" sketch:name="Mask" fill="white">
                                <use xlink:href="#path-1"></use>
                            </mask>
                            <use id="Mask" stroke="#1E88E5" stroke-width="2" sketch:type="MSShapeGroup" xlink:href="#path-1"></use>
                            <path d="M14,33 L18,33 L18,21 L14,21 L14,33 L14,33 Z M36,22 C36,20.9 35.1,20 34,20 L27.7,20 L28.7,15.4 L28.7,15.1 C28.7,14.7 28.5,14.3 28.3,14 L27.2,13 L20.6,19.6 C20.2,19.9 20,20.4 20,21 L20,31 C20,32.1 20.9,33 22,33 L31,33 C31.8,33 32.5,32.5 32.8,31.8 L35.8,24.7 C35.9,24.5 35.9,24.2 35.9,24 L35.9,22 L36,22 C36,22.1 36,22 36,22 L36,22 Z" id="Shape" fill="#3A91E0" sketch:type="MSShapeGroup" mask="url(#mask-2)"></path>
                        </g>
                    </g>
                </g>
            </g>
        </g>
    </g>
</svg>