<?xml version="1.0" encoding="UTF-8" standalone="no"?>
<svg width="18px" height="18px" viewBox="0 0 18 18" version="1.1" xmlns="http://www.w3.org/2000/svg" xmlns:xlink="http://www.w3.org/1999/xlink">
    <defs></defs>
    <g id="RHS-[ok]" stroke="none" stroke-width="1">
        <g id="RHS---Iddle" transform="translate(-30.000000, -779.000000)">
            <g id="Navbar-Copy" transform="translate(0.000000, 64.000000)">
                <g id="Nav" transform="translate(20.000000, 68.000000)">
                    <g id="li-3-copy-3" transform="translate(0.000000, 640.000000)">
                        <g id="Icon" transform="translate(3.000000, 0.000000)">
                            <g id="megaphone" transform="translate(7.000000, 7.000000)">
                                <path d="M16.223,6.03 C14.639,2.344 12.091,-0.46 10.802,0.063 C8.613,0.954 12.106,5.227 1.355,9.596 C0.426,9.975 0.191,11.484 0.58,12.388 C0.968,13.29 2.238,14.189 3.167,13.812 C3.328,13.746 3.918,13.556 3.918,13.556 C4.581,14.447 5.275,13.919 5.522,14.484 C5.818,15.164 6.461,16.642 6.68,17.144 C6.899,17.646 7.395,18.111 7.755,17.974 C8.114,17.837 9.337,17.372 9.805,17.195 C10.273,17.017 10.384,16.599 10.241,16.271 C10.087,15.916 9.455,15.812 9.274,15.398 C9.094,14.986 8.505,13.66 8.336,13.242 C8.106,12.674 8.595,12.211 9.306,12.138 C14.2,11.626 15.115,14.65 16.781,13.972 C18.068,13.447 17.806,9.713 16.223,6.03 L16.223,6.03 Z M15.672,12.006 C15.385,12.121 13.459,10.604 12.229,7.739 C10.998,4.876 11.153,2.259 11.439,2.142 C11.725,2.027 13.604,3.859 14.834,6.722 C16.065,9.585 15.958,11.889 15.672,12.006 L15.672,12.006 Z" id="Shape"></path>
                            </g>
                        </g>
                    </g>
                </g>
            </g>
        </g>
    </g>
</svg>