<?xml version="1.0" encoding="UTF-8" standalone="no"?>
<svg width="20px" height="11px" viewBox="0 0 20 11" version="1.1" xmlns="http://www.w3.org/2000/svg" xmlns:xlink="http://www.w3.org/1999/xlink" xmlns:sketch="http://www.bohemiancoding.com/sketch/ns">
    <!-- Generator: bin/sketchtool 1.4 (305) - http://www.bohemiancoding.com/sketch -->
    <title>Shape Copy</title>
    <desc>Created with bin/sketchtool.</desc>
    <defs></defs>
    <g id="News" stroke="none" stroke-width="1" fill-rule="evenodd" sketch:type="MSPage">
        <g id="News-:-Details" sketch:type="MSArtboardGroup" transform="translate(-1016.000000, -1158.000000)" >
            <g id="Comments-block" sketch:type="MSLayerGroup" transform="translate(439.000000, 916.000000)">
                <g id="New-Comment-Form" transform="translate(0.000000, 227.000000)" sketch:type="MSShapeGroup">
                    <g id="-Show-past-subjects-+-check-box-+-Post-type-button-3-Copy-2" transform="translate(577.000000, 9.000000)">
                        <g id="Attach-+-Shape-+-Rectangle-43" transform="translate(0.000000, 6.000000)">
                            <g id="Shape-+-Rectangle-43">
                                <path d="M5.5,11 C2.5,11 0,8.5 0,5.5 C0,2.5 2.5,0 5.5,0 L16,0 C18.2,0 20,1.8 20,4 C20,6.2 18.2,8 16,8 L7.5,8 C6.1,8 5,6.9 5,5.5 C5,4.1 6.1,3 7.5,3 L15,3 L15,4.5 L7.5,4.5 C6.9,4.5 6.5,4.9 6.5,5.5 C6.5,6.1 6.9,6.5 7.5,6.5 L16,6.5 C17.4,6.5 18.5,5.4 18.5,4 C18.5,2.6 17.4,1.5 16,1.5 L5.5,1.5 C3.3,1.5 1.5,3.3 1.5,5.5 C1.5,7.7 3.3,9.5 5.5,9.5 L15,9.5 L15,11 L5.5,11 L5.5,11 Z" id="Shape-Copy"></path>
                            </g>
                        </g>
                    </g>
                </g>
            </g>
        </g>
    </g>
</svg>