<?xml version="1.0" encoding="UTF-8" standalone="no"?>
<svg width="18px" height="18px" viewBox="0 0 18 18" version="1.1" xmlns="http://www.w3.org/2000/svg" xmlns:xlink="http://www.w3.org/1999/xlink">
    <defs></defs>
    <g id="Account-Settings" stroke="none" stroke-width="1">
        <g id="Account-Settings-1" transform="translate(-789.000000, -142.000000)">
            <g id="tab-base-+-Tab--Copy-+-Tab-active-Copy" transform="translate(380.000000, 128.000000)">
                <g id="Tab-active-Copy-3" transform="translate(403.000000, 1.000000)">
                    <g id="icon-+-FEED" transform="translate(0.000000, 7.000000)">
                        <g id="icon">
                            <g id="list" transform="translate(6.000000, 6.000000)">
                                <path d="M9,0 C4.05,0 0,4.05 0,9 C0,13.95 4.05,18 9,18 C13.95,18 18,13.95 18,9 C18,4.05 13.95,0 9,0 L9,0 Z M9,2.7 C10.53,2.7 11.7,3.87 11.7,5.4 C11.7,6.93 10.53,8.1 9,8.1 C7.47,8.1 6.3,6.93 6.3,5.4 C6.3,3.87 7.47,2.7 9,2.7 L9,2.7 Z M9,15.48 C6.75,15.48 4.77,14.31 3.6,12.6 C3.6,10.8 7.2,9.81 9,9.81 C10.8,9.81 14.4,10.8 14.4,12.6 C13.23,14.31 11.25,15.48 9,15.48 L9,15.48 Z" id="Shape"></path>
                            </g>
                        </g>
                    </g>
                </g>
            </g>
        </g>
    </g>
</svg>
