<?xml version="1.0" encoding="UTF-8" standalone="no"?>
<svg width="18px" height="18px" viewBox="0 0 19 19" version="1.1" xmlns="http://www.w3.org/2000/svg" xmlns:xlink="http://www.w3.org/1999/xlink">
    <defs></defs>
    <g id="RHS-[ok]" stroke="none" stroke-width="1">
        <g id="RHS---Iddle" transform="translate(-30.000000, -459.000000)">
            <g id="Navbar-Copy" transform="translate(0.000000, 64.000000)">
                <g id="Nav" transform="translate(20.000000, 68.000000)">
                    <g id="li-13" transform="translate(0.000000, 320.000000)">
                        <g id="Icon" transform="translate(3.000000, 0.000000)">
                            <g id="calendar" transform="translate(7.000000, 7.000000)">
                                <path d="M16,2 L15,2 L15,4 L12,4 L12,2 L6,2 L6,4 L3,4 L3,2 L2,2 C0.899,2 0,2.9 0,4 L0,16 C0,17.1 0.899,18 2,18 L16,18 C17.1,18 18,17.1 18,16 L18,4 C18,2.9 17.1,2 16,2 L16,2 Z M16,16 L2,16 L2,8 L16,8 L16,16 L16,16 Z M5.5,0 L3.5,0 L3.5,3.5 L5.5,3.5 L5.5,0 L5.5,0 Z M14.5,0 L12.5,0 L12.5,3.5 L14.5,3.5 L14.5,0 L14.5,0 Z" id="Shape"></path>
                            </g>
                        </g>
                    </g>
                </g>
            </g>
        </g>
    </g>
</svg>