<?xml version="1.0" encoding="UTF-8" standalone="no"?>
<svg width="18px" height="17px" viewBox="0 0 18 17" version="1.1" xmlns="http://www.w3.org/2000/svg" xmlns:xlink="http://www.w3.org/1999/xlink" xmlns:sketch="http://www.bohemiancoding.com/sketch/ns">
    <!-- Generator: Sketch 3.3.2 (12043) - http://www.bohemiancoding.com/sketch -->
    <title>circles-extended</title>
    <desc>Created with Sketch.</desc>
    <defs></defs>
    <g id="Posts-types" stroke="none" stroke-width="1"   fill-rule="evenodd" sketch:type="MSPage">
        <g sketch:type="MSArtboardGroup" transform="translate(-30.000000, -748.000000)" id="Navbar-Copy"  >
            <g sketch:type="MSLayerGroup" transform="translate(0.000000, 64.000000)">
                <g id="Nav" transform="translate(20.000000, 68.000000)" sketch:type="MSShapeGroup">
                    <g id="li-3-copy-2" transform="translate(0.000000, 608.000000)">
                        <g id="Icon" transform="translate(3.000000, 0.000000)">
                            <g id="megaphone" transform="translate(7.000000, 8.000000)">
                                <g id="circles-extended">
                                    <path d="M8.79990504,7.03992403 C10.7358842,7.03992403 12.3198671,5.45594113 12.3198671,3.51996202 C12.3198671,1.58398291 10.7358842,0 8.79990504,0 C6.86392593,0 5.27994303,1.58398291 5.27994303,3.51996202 C5.27994303,5.45594113 6.86392593,7.03992403 8.79990504,7.03992403 L8.79990504,7.03992403 Z M8.79990504,1.75998101 C9.7678946,1.75998101 10.5598861,2.55197246 10.5598861,3.51996202 C10.5598861,4.48795157 9.7678946,5.27994303 8.79990504,5.27994303 C7.83191549,5.27994303 7.03992403,4.48795157 7.03992403,3.51996202 C7.03992403,2.55197246 7.83191549,1.75998101 8.79990504,1.75998101 L8.79990504,1.75998101 Z M3.51996202,9.67989555 C1.58398291,9.67989555 0,11.2638785 0,13.1998576 C0,15.1358367 1.58398291,16.7198196 3.51996202,16.7198196 C5.45594113,16.7198196 7.03992403,15.1358367 7.03992403,13.1998576 C7.03992403,11.2638785 5.45594113,9.67989555 3.51996202,9.67989555 L3.51996202,9.67989555 Z M3.51996202,14.9598386 C2.55197246,14.9598386 1.75998101,14.1678471 1.75998101,13.1998576 C1.75998101,12.231868 2.55197246,11.4398766 3.51996202,11.4398766 C4.48795157,11.4398766 5.27994303,12.231868 5.27994303,13.1998576 C5.27994303,14.1678471 4.48795157,14.9598386 3.51996202,14.9598386 L3.51996202,14.9598386 Z M8.79990504,8.00791359 C7.91991454,8.00791359 7.12792308,8.79990504 7.12792308,9.67989555 C7.12792308,10.5598861 7.91991454,11.3518775 8.79990504,11.3518775 C9.67989555,11.3518775 10.471887,10.5598861 10.471887,9.67989555 C10.471887,8.79990504 9.67989555,8.00791359 8.79990504,8.00791359 L8.79990504,8.00791359 Z M14.0798481,9.67989555 C12.143869,9.67989555 10.5598861,11.2638785 10.5598861,13.1998576 C10.5598861,15.1358367 12.143869,16.7198196 14.0798481,16.7198196 C16.0158272,16.7198196 17.5998101,15.1358367 17.5998101,13.1998576 C17.5998101,11.2638785 16.0158272,9.67989555 14.0798481,9.67989555 L14.0798481,9.67989555 Z M14.0798481,14.9598386 C13.1118585,14.9598386 12.3198671,14.1678471 12.3198671,13.1998576 C12.3198671,12.231868 13.1118585,11.4398766 14.0798481,11.4398766 C15.0478376,11.4398766 15.8398291,12.231868 15.8398291,13.1998576 C15.8398291,14.1678471 15.0478376,14.9598386 14.0798481,14.9598386 L14.0798481,14.9598386 Z" id="Shape"></path>
                                </g>
                            </g>
                        </g>
                    </g>
                </g>
            </g>
        </g>
    </g>
</svg>
