<?xml version="1.0" encoding="UTF-8" standalone="no"?>
<svg width="18px" height="20px" viewBox="0 0 18 20" version="1.1" xmlns="http://www.w3.org/2000/svg" xmlns:xlink="http://www.w3.org/1999/xlink">
    <defs></defs>
    <g id="RHS-[ok]" stroke="none" stroke-width="1">
        <g id="RHS---Iddle" transform="translate(-30.000000, -330.000000)">
            <g id="Navbar-Copy" transform="translate(0.000000, 64.000000)">
                <g id="Nav" transform="translate(20.000000, 68.000000)">
                    <g id="li-9" transform="translate(0.000000, 192.000000)">
                        <g id="Icon" transform="translate(3.000000, 0.000000)">
                            <g id="trophy" transform="translate(7.000000, 6.000000)">
                                <path d="M10.18,14.356 C10.18,12.905 11.28,12.102 13.074,10.914 C15.268,9.458 18,7.649 18,3.354 C18,2.967 17.683,2.655 17.291,2.655 L13.861,2.655 C13.377,1.759 11.932,0.8 9,0.8 C6.066,0.8 4.623,1.759 4.138,2.655 L0.707,2.655 C0.316,2.655 0,2.968 0,3.354 C0,7.649 2.73,9.458 4.926,10.913 C6.72,12.101 7.82,12.904 7.82,14.355 L7.82,15.666 C5.936,15.875 4.551,16.572 4.551,17.402 C4.551,18.396 6.543,19.201 9,19.201 C11.457,19.201 13.449,18.396 13.449,17.402 C13.449,16.572 12.064,15.875 10.18,15.666 L10.18,14.356 L10.18,14.356 Z M12.957,9.3 C13.523,8.101 13.973,6.474 14.045,4.054 L16.555,4.054 C16.315,6.755 14.693,8.118 12.957,9.3 L12.957,9.3 Z M9,2.026 C11.732,2.024 12.799,3.141 12.798,3.555 C12.798,3.973 11.732,5.088 9,5.09 C6.268,5.089 5.201,3.974 5.201,3.556 C5.2,3.142 6.268,2.024 9,2.026 L9,2.026 Z M1.445,4.054 L3.954,4.054 C4.027,6.474 4.475,8.101 5.043,9.3 C3.307,8.118 1.684,6.755 1.445,4.054 L1.445,4.054 Z" id="Shape"></path>
                            </g>
                        </g>
                    </g>
                </g>
            </g>
        </g>
    </g>
</svg>