<?xml version="1.0" encoding="UTF-8" standalone="no"?>
<svg width="30px" height="24px" viewBox="0 0 30 24" version="1.1" xmlns="http://www.w3.org/2000/svg" xmlns:xlink="http://www.w3.org/1999/xlink">
    <defs></defs>
    <g id="First-steps-for-staff" stroke="none" stroke-width="1" fill-rule="evenodd">
        <g id="First-Steps-for-Staff-1" transform="translate(-600.000000, -667.000000)">
            <g id="Logo-with-shadow-+-You-can-always-custo-+-Bring-some-individua-+-Group-5-+-Group-4-+-Group-3-+-Group-2-+-Group" transform="translate(381.000000, 147.000000)">
                <g id="Group-5-+-Group-4" transform="translate(129.000000, 477.000000)">
                    <g id="Group-4">
                        <g id="User-Copy-3" transform="translate(65.000000, 15.000000)">
                            <path d="M52,28 L28,28 C26.35,28 25,29.35 25,31 L25,49 C25,50.65 26.35,52 28,52 L52,52 C53.65,52 55,50.65 55,49 L55,31 C55,29.35 53.65,28 52,28 L52,28 Z M52,34 L40,41.5 L28,34 L28,31 L40,38.5 L52,31 L52,34 L52,34 Z" id="Shape-Copy-3"></path>
                        </g>
                    </g>
                </g>
            </g>
        </g>
    </g>
</svg>
