<?xml version="1.0" encoding="UTF-8" standalone="no"?>
<svg width="28px" height="28px" viewBox="0 0 28 28" version="1.1" xmlns="http://www.w3.org/2000/svg" xmlns:xlink="http://www.w3.org/1999/xlink">
    <defs></defs>
    <g id="First-steps-for-staff" stroke="none" stroke-width="1" fill-rule="evenodd">
        <g id="First-Steps-for-Staff-1" transform="translate(-831.000000, -665.000000)">
            <g id="Logo-with-shadow-+-You-can-always-custo-+-Bring-some-individua-+-Group-5-+-Group-4-+-Group-3-+-Group-2-+-Group" transform="translate(381.000000, 147.000000)">
                <g id="Group-5-+-Group-4" transform="translate(129.000000, 477.000000)">
                    <g id="Group-5" transform="translate(230.000000, 0.000000)">
                        <g id="User-Copy-3" transform="translate(65.000000, 15.000000)">
                            <path d="M40,40 C43.85,40 47,36.85 47,33 C47,29.15 43.85,26 40,26 C36.15,26 33,29.15 33,33 C33,36.85 36.15,40 40,40 L40,40 Z M40,43.5 C35.275,43.5 26,45.775 26,50.5 L26,54 L54,54 L54,50.5 C54,45.775 44.725,43.5 40,43.5 L40,43.5 Z" id="Shape-Copy-15"></path>
                        </g>
                    </g>
                </g>
            </g>
        </g>
    </g>
</svg>
