<?xml version="1.0" encoding="UTF-8" standalone="no"?>
<svg width="14px" height="14px" viewBox="0 0 14 14" version="1.1" xmlns="http://www.w3.org/2000/svg" xmlns:xlink="http://www.w3.org/1999/xlink">
    <defs></defs>
    <g id="Messages" stroke="none" stroke-width="1" fill="none" fill-rule="evenodd" fill-opacity="0.38">
        <g id="Messages-:-New-Message-3" transform="translate(-536.000000, -150.000000)" fill="#000000">
            <g id="Group-Copy-11-+-Rectangle-177-Copy-2-+-User-Copy-6-+-Laura-Armstrong-Copy" transform="translate(380.000000, 139.000000)">
                <g id="Rectangle-177-Copy-2-+-User-Copy-6-+-Laura-Armstrong-Copy">
                    <path d="M159.040202,21.959798 C156.857363,19.7769593 156.857363,16.2230407 159.040202,14.040202 C161.223041,11.8573634 164.776959,11.8573634 166.959798,14.040202 C169.142637,16.2230407 169.142637,19.7769593 166.959798,21.959798 C164.776959,24.1426366 161.223041,24.1426366 159.040202,21.959798 L159.040202,21.959798 L159.040202,21.959798 Z M167.949747,13.0502525 C165.216077,10.3165825 160.783923,10.3165825 158.050253,13.0502525 C156.737498,14.3630072 156,16.1434846 156,18 C156,19.8565154 156.737498,21.6369928 158.050253,22.9497475 C159.363007,24.2625021 161.143485,25 163,25 C164.856515,25 166.636993,24.2625021 167.949747,22.9497475 C169.262502,21.6369928 170,19.8565154 170,18 C170,16.1434846 169.262502,14.3630072 167.949747,13.0502525 L167.949747,13.0502525 L167.949747,13.0502525 Z M165.969848,16.020101 L164.979899,15.0301515 L163,17.0100505 L161.020101,15.0301515 L160.030152,16.020101 L162.010051,18 L160.030152,19.979899 L161.020101,20.9698485 L163,18.9899495 L164.979899,20.9698485 L165.969848,19.979899 L163.989949,18 L165.969848,16.020101 L165.969848,16.020101 Z" id="Shape-Copy"></path>
                </g>
            </g>
        </g>
    </g>
</svg>