<?xml version="1.0" encoding="UTF-8" standalone="no"?>
<svg width="14px" height="14px" viewBox="0 0 16 16" version="1.1" xmlns="http://www.w3.org/2000/svg" xmlns:xlink="http://www.w3.org/1999/xlink">
    <defs></defs>
    <g id="RHS-[ok]" stroke="none" stroke-width="1">
        <g id="RHS---Iddle" transform="translate(-32.000000, -397.000000)">
            <g id="Navbar-Copy" transform="translate(0.000000, 64.000000)">
                <g id="Nav" transform="translate(20.000000, 68.000000)">
                    <g id="li-7" transform="translate(0.000000, 256.000000)">
                        <g id="Icon" transform="translate(3.000000, 0.000000)">
                            <path d="M12,15 C13.6568542,15 15,13.6568542 15,12 C15,10.3431458 13.6568542,9 12,9 C10.3431458,9 9,10.3431458 9,12 C9,13.6568542 10.3431458,15 12,15 Z M20,15 C21.6568542,15 23,13.6568542 23,12 C23,10.3431458 21.6568542,9 20,9 C18.3431458,9 17,10.3431458 17,12 C17,13.6568542 18.3431458,15 20,15 Z M20,23 C21.6568542,23 23,21.6568542 23,20 C23,18.3431458 21.6568542,17 20,17 C18.3431458,17 17,18.3431458 17,20 C17,21.6568542 18.3431458,23 20,23 Z M12,23 C13.6568542,23 15,21.6568542 15,20 C15,18.3431458 13.6568542,17 12,17 C10.3431458,17 9,18.3431458 9,20 C9,21.6568542 10.3431458,23 12,23 Z" id="Oval-5"></path>
                        </g>
                    </g>
                </g>
            </g>
        </g>
    </g>
</svg>