<?xml version="1.0" encoding="UTF-8" standalone="no"?>
<svg width="14px" height="14px" viewBox="0 0 14 14" version="1.1" xmlns="http://www.w3.org/2000/svg" xmlns:xlink="http://www.w3.org/1999/xlink" xmlns:sketch="http://www.bohemiancoding.com/sketch/ns">
    <!-- Generator: bin/sketchtool 1.4 (305) - http://www.bohemiancoding.com/sketch -->
    <title>Shape Copy 6</title>
    <desc>Created with bin/sketchtool.</desc>
    <defs></defs>
    <g id="New-post" stroke="none" stroke-width="1" fill="none" fill-rule="evenodd" sketch:type="MSPage">
        <g id="New-post-:-post-options-for-other-staff" sketch:type="MSArtboardGroup" transform="translate(-662.000000, -1205.000000)">
            <g id="Group" sketch:type="MSLayerGroup" transform="translate(380.000000, 539.000000)">
                <g id="Target-to:-Informati-+-Shape-Copy-6-+-Target-to:-Informati-+-Shape-Copy-7-+-Target-to:-Informati-+-Shape-Copy-8" transform="translate(0.000000, 666.000000)" sketch:type="MSShapeGroup">
                    <g id="Target-to:-Informati-+-Shape-Copy-6">
                        <path d="M289,0 C285.15,0 282,3.15 282,7 C282,10.85 285.15,14 289,14 C292.85,14 296,10.85 296,7 C296,3.15 292.85,0 289,0 L289,0 Z M292.5,9.52 L291.52,10.5 L289,7.98 L286.48,10.5 L285.5,9.52 L288.02,7 L285.5,4.48 L286.48,3.5 L289,6.02 L291.52,3.5 L292.5,4.48 L289.98,7 L292.5,9.52 L292.5,9.52 Z" id="Shape-Copy-6"></path>
                    </g>
                </g>
            </g>
        </g>
    </g>
</svg>
