<?xml version="1.0" encoding="UTF-8" standalone="no"?>
<svg width="32px" height="40px" viewBox="0 0 32 40" version="1.1" xmlns="http://www.w3.org/2000/svg" xmlns:xlink="http://www.w3.org/1999/xlink">
    <defs></defs>
    <g id="Feed" stroke="none" stroke-width="1" fill="none" fill-rule="evenodd">
        <g id="Feed-v3" transform="translate(-390.000000, -5057.000000)">
            <g id="Group" transform="translate(380.000000, 4843.000000)">
                <g id="Group-Copy" transform="translate(10.000000, 137.000000)">
                    <g id="2015/16-Electronic-C-+-13,2MB-+-Shape-Copy-15-+-pdf-copy-Copy" transform="translate(0.000000, 77.000000)">
                        <g id="doc">
                            <rect id="Rectangle-path" fill="#D9DEE2" x="2.1754386" y="0" width="29.5789474" height="39.754386"></rect>
                            <rect id="Rectangle-path" fill="#F4F4F4" x="3.75438596" y="0" width="28.1052632" height="39.754386"></rect>
                            <rect id="Rectangle-path" fill="#2B5899" x="0.280701754" y="4.24561404" width="19.9298246" height="11.6140351"></rect>
                            <g id="Group" transform="translate(3.157895, 7.017544)" fill="#F1F2F2">
                                <path d="M0.315789474,0.350877193 L2.03508772,0.350877193 C2.35087719,0.350877193 2.66666667,0.385964912 2.9122807,0.49122807 C3.15789474,0.561403509 3.40350877,0.701754386 3.57894737,0.842105263 C3.75438596,0.98245614 3.89473684,1.15789474 4,1.40350877 C4.10526316,1.61403509 4.21052632,1.85964912 4.24561404,2.10526316 C4.28070175,2.35087719 4.31578947,2.63157895 4.31578947,2.94736842 C4.31578947,3.26315789 4.28070175,3.54385965 4.24561404,3.78947368 C4.21052632,4.03508772 4.10526316,4.28070175 4,4.49122807 C3.89473684,4.70175439 3.75438596,4.9122807 3.57894737,5.05263158 C3.40350877,5.19298246 3.19298246,5.33333333 2.9122807,5.40350877 C2.66666667,5.47368421 2.35087719,5.54385965 2.03508772,5.54385965 L0.315789474,5.54385965 L0.315789474,0.350877193 L0.315789474,0.350877193 Z M1.0877193,1.01754386 L1.0877193,4.84210526 L1.96491228,4.84210526 C2.49122807,4.84210526 2.87719298,4.66666667 3.12280702,4.35087719 C3.36842105,4.03508772 3.50877193,3.54385965 3.50877193,2.9122807 C3.50877193,2.59649123 3.47368421,2.35087719 3.43859649,2.10526316 C3.36842105,1.85964912 3.29824561,1.68421053 3.15789474,1.50877193 C3.05263158,1.33333333 2.87719298,1.19298246 2.66666667,1.12280702 C2.45614035,1.01754386 2.21052632,0.98245614 1.92982456,0.98245614 L1.0877193,0.98245614 L1.0877193,1.01754386 Z" id="Shape"></path>
                                <path d="M5.05263158,3.33333333 L5.05263158,2.59649123 C5.05263158,1.85964912 5.22807018,1.29824561 5.61403509,0.877192982 C6,0.456140351 6.52631579,0.245614035 7.15789474,0.245614035 C7.8245614,0.245614035 8.31578947,0.456140351 8.70175439,0.877192982 C9.0877193,1.29824561 9.26315789,1.85964912 9.26315789,2.59649123 L9.26315789,3.33333333 C9.26315789,4.07017544 9.0877193,4.63157895 8.70175439,5.01754386 C8.31578947,5.43859649 7.78947368,5.61403509 7.15789474,5.61403509 C6.49122807,5.61403509 6,5.40350877 5.61403509,5.01754386 C5.22807018,4.59649123 5.05263158,4.03508772 5.05263158,3.33333333 L5.05263158,3.33333333 Z M5.85964912,2.59649123 L5.85964912,3.33333333 C5.85964912,3.85964912 5.96491228,4.28070175 6.21052632,4.56140351 C6.45614035,4.84210526 6.77192982,4.98245614 7.19298246,4.98245614 C7.57894737,4.98245614 7.92982456,4.84210526 8.1754386,4.56140351 C8.42105263,4.28070175 8.52631579,3.89473684 8.52631579,3.33333333 L8.52631579,2.59649123 C8.52631579,2.07017544 8.38596491,1.64912281 8.14035088,1.36842105 C7.89473684,1.0877193 7.57894737,0.947368421 7.15789474,0.947368421 C6.77192982,0.947368421 6.45614035,1.0877193 6.21052632,1.36842105 C5.96491228,1.64912281 5.85964912,2.03508772 5.85964912,2.59649123 L5.85964912,2.59649123 Z" id="Shape"></path>
                                <path d="M10.877193,2.63157895 L10.877193,3.29824561 C10.877193,3.85964912 10.9824561,4.28070175 11.2280702,4.56140351 C11.4736842,4.84210526 11.7894737,4.98245614 12.1754386,4.98245614 C12.5614035,4.98245614 12.8421053,4.87719298 13.0526316,4.66666667 C13.2631579,4.45614035 13.3684211,4.21052632 13.3684211,3.92982456 L14.1403509,3.92982456 L14.1403509,3.96491228 C14.1403509,4.14035088 14.1052632,4.28070175 14.0701754,4.45614035 C14.0350877,4.63157895 13.9298246,4.77192982 13.8245614,4.9122807 C13.7192982,5.05263158 13.5789474,5.19298246 13.4385965,5.29824561 C13.2982456,5.40350877 13.0877193,5.50877193 12.877193,5.57894737 C12.6666667,5.64912281 12.4210526,5.68421053 12.1754386,5.68421053 C11.5438596,5.68421053 11.0175439,5.47368421 10.6666667,5.0877193 C10.3157895,4.66666667 10.1052632,4.10526316 10.1052632,3.33333333 L10.1052632,2.66666667 C10.1052632,1.89473684 10.2807018,1.33333333 10.6666667,0.912280702 C11.0526316,0.49122807 11.5438596,0.280701754 12.1754386,0.280701754 C12.4912281,0.280701754 12.7719298,0.315789474 13.0175439,0.421052632 C13.2631579,0.526315789 13.4736842,0.666666667 13.6491228,0.807017544 C13.8245614,0.98245614 13.9298246,1.15789474 14,1.36842105 C14.0701754,1.57894737 14.1403509,1.78947368 14.1403509,2.03508772 L14.1403509,2.07017544 L13.3684211,2.07017544 C13.3684211,1.92982456 13.3333333,1.78947368 13.2982456,1.64912281 C13.2631579,1.50877193 13.1578947,1.40350877 13.0877193,1.29824561 C12.9824561,1.19298246 12.877193,1.0877193 12.7017544,1.05263158 C12.5614035,0.98245614 12.3859649,0.947368421 12.1754386,0.947368421 C11.7894737,0.947368421 11.4736842,1.0877193 11.2280702,1.36842105 C10.9824561,1.64912281 10.877193,2.07017544 10.877193,2.63157895 L10.877193,2.63157895 Z" id="Shape"></path>
                            </g>
                            <g id="Group" transform="translate(11.578947, 21.754386)" fill="#2B5899">
                                <rect id="Rectangle-path" x="0.315789474" y="0.210526316" width="11.7894737" height="0.771929825"></rect>
                                <rect id="Rectangle-path" x="0.315789474" y="2.28070175" width="11.7894737" height="0.771929825"></rect>
                                <rect id="Rectangle-path" x="0.315789474" y="4.31578947" width="11.7894737" height="0.771929825"></rect>
                                <rect id="Rectangle-path" x="0.315789474" y="6.35087719" width="11.7894737" height="0.771929825"></rect>
                                <rect id="Rectangle-path" x="0.315789474" y="8.35087719" width="11.7894737" height="0.771929825"></rect>
                                <rect id="Rectangle-path" x="0.315789474" y="10.3859649" width="11.7894737" height="0.771929825"></rect>
                            </g>
                        </g>
                    </g>
                </g>
            </g>
        </g>
    </g>
</svg>