<?xml version="1.0" encoding="UTF-8" standalone="no"?>
<svg width="16px" height="15px" viewBox="0 0 16 15" version="1.1" xmlns="http://www.w3.org/2000/svg" xmlns:xlink="http://www.w3.org/1999/xlink" xmlns:sketch="http://www.bohemiancoding.com/sketch/ns">
    <!-- Generator: bin/sketchtool 1.4 (305) - http://www.bohemiancoding.com/sketch -->
    <title>Shape Copy 2</title>
    <desc>Created with bin/sketchtool.</desc>
    <defs></defs>
    <g id="New-post" stroke="none" stroke-width="1"   fill-rule="evenodd" sketch:type="MSPage">
        <g id="New-post-:-post-options-for-other-staff" sketch:type="MSArtboardGroup" transform="translate(-946.000000, -160.000000)"  >
            <g id="more-button-iddle-+-dropdown" sketch:type="MSLayerGroup" transform="translate(933.000000, 108.000000)">
                <g id="dropdown" transform="translate(0.000000, 23.000000)" sketch:type="MSShapeGroup">
                    <g id="text" transform="translate(0.000000, 18.000000)">
                        <g id="item-+-item-copy-+-item-copy-2">
                            <g id="item" transform="translate(1.000000, 0.000000)">
                                <g id="APG4345-+-Shape-Copy" transform="translate(8.000000, 6.000000)">
                                    <g id="Shape-Copy-2-+-Rectangle-495">
                                        <path d="M4,16.36 L4,19.4 L7.04,19.4 L15.84,10.52 L12.8,7.48 L4,16.36 L4,16.36 Z M18.16,8.2 C18.48,7.88 18.48,7.4 18.16,7.08 L16.32,5.24 C16,4.92 15.52,4.92 15.2,5.24 L13.76,6.68 L16.8,9.72 L18.16,8.2 L18.16,8.2 Z M11.2,17.8 L9.6,19.4 L20,19.4 L20,17.8 L11.2,17.8 L11.2,17.8 Z" id="Shape-Copy-2"></path>
                                    </g>
                                </g>
                            </g>
                        </g>
                    </g>
                </g>
            </g>
        </g>
    </g>
</svg>
