<?xml version="1.0" encoding="UTF-8" standalone="no"?>
<svg width="48px" height="48px" viewBox="0 0 48 48" version="1.1" xmlns="http://www.w3.org/2000/svg" xmlns:xlink="http://www.w3.org/1999/xlink" xmlns:sketch="http://www.bohemiancoding.com/sketch/ns">
    <!-- Generator: bin/sketchtool 1.4 (305) - http://www.bohemiancoding.com/sketch -->
    <title>User Copy 3</title>
    <desc>Created with bin/sketchtool.</desc>
    <defs>
        <circle id="path-1" cx="24" cy="24" r="24"></circle>
    </defs>
    <g id="Clubs-&amp;-Societes" stroke="none" stroke-width="1" fill="none" fill-rule="evenodd" sketch:type="MSPage">
        <g id="Event&amp;Ticket---1" sketch:type="MSArtboardGroup" transform="translate(-434.000000, -897.000000)">
            <g id="Sell-tickets-for-fre-+-Group-+-Post-at-Copy" sketch:type="MSLayerGroup" transform="translate(434.000000, 848.000000)">
                <g id="Group" transform="translate(0.000000, 49.000000)">
                    <g id="User-Copy-3-+-Sell-tickets-online">
                        <g id="User-Copy-3">
                            <mask id="mask-2" sketch:name="Mask" fill="white">
                                <use xlink:href="#path-1"></use>
                            </mask>
                            <use id="Mask" stroke="#1E88E5" stroke-width="2" sketch:type="MSShapeGroup" xlink:href="#path-1"></use>
                            <path d="M28.296,29.76 L24,27 L19.704,29.76 L21,24.816 L17.052,21.6 L22.152,21.288 L24,16.56 L25.848,21.288 L30.948,21.6 L27,24.816 L28.296,29.76 Z M33.6,24 C33.6,22.668 34.68,21.6 36,21.6 L36,16.8 C36,15.468 34.92,14.4 33.6,14.4 L14.4,14.4 C13.0745166,14.4 12,15.4745166 12,16.8 L12,21.6 C13.332,21.6 14.4,22.68 14.4,24 C14.4,25.3254834 13.3254834,26.4 12,26.4 L12,31.2 C12,32.5254834 13.0745166,33.6 14.4,33.6 L33.6,33.6 C34.9254834,33.6 36,32.5254834 36,31.2 L36,26.4 C34.6745166,26.4 33.6,25.3254834 33.6,24 L33.6,24 Z" id="Shape-Copy-3" fill="#1E88E5" sketch:type="MSShapeGroup" mask="url(#mask-2)"></path>
                        </g>
                    </g>
                </g>
            </g>
        </g>
    </g>
</svg>