<?xml version="1.0" encoding="UTF-8" standalone="no"?>
<svg width="14px" height="11px" viewBox="0 0 14 11" version="1.1" xmlns="http://www.w3.org/2000/svg" xmlns:xlink="http://www.w3.org/1999/xlink">
    <defs></defs>
    <g id="Marketplace" stroke="none" stroke-width="1" fill-rule="evenodd">
        <g id="Marketplace---1a" transform="translate(-395.000000, -349.000000)">
            <g id="Group" transform="translate(380.000000, 271.000000)">
                <g id="Item-2-Copy-3">
                    <g id="Shape-+-Rectangle-64-+-Technology-3-+-Shape-+-Rectangle-64-+-Technology-2-+-Shape-+-Rectangle-64-+-Technology" transform="translate(15.000000, 76.000000)">
                        <g id="Shape-+-Rectangle-64-+-Technology">
                            <g id="Shape-+-Rectangle-64" transform="translate(0.000000, 2.000000)">
                                <path d="M9.57894737,8.84210526 L1.47368421,8.84210526 L1.47368421,1.47368421 L9.57894737,1.47368421 L12.1947368,5.15789474 L9.57894737,8.84210526 Z M10.78,0.618947368 C10.5147368,0.243157895 10.0726316,0 9.57894737,0 L1.47368421,0 C0.659790895,0 0,0.659790895 0,1.47368421 L0,8.84210526 C0,9.65599858 0.659790895,10.3157895 1.47368421,10.3157895 L9.57894737,10.3157895 C10.0726316,10.3157895 10.5147368,10.0652632 10.78,9.68947368 L14,5.15789474 L10.78,0.618947368 L10.78,0.618947368 Z" id="Shape"></path>
                            </g>
                        </g>
                    </g>
                </g>
            </g>
        </g>
    </g>
</svg>