<?xml version="1.0" encoding="UTF-8" standalone="no"?>
<svg width="16px" height="15px" viewBox="0 0 16 15" version="1.1" xmlns="http://www.w3.org/2000/svg" xmlns:xlink="http://www.w3.org/1999/xlink" xmlns:sketch="http://www.bohemiancoding.com/sketch/ns">
    <!-- Generator: bin/sketchtool 1.4 (305) - http://www.bohemiancoding.com/sketch -->
    <title>add-user</title>
    <desc>Created with bin/sketchtool.</desc>
    <defs></defs>
    <g id="Clubs-&amp;-Societes" stroke="none" stroke-width="1" fill-rule="evenodd" sketch:type="MSPage">
        <g id="Group-view---Clubs-root-2" sketch:type="MSArtboardGroup" transform="translate(-388.000000, -482.000000)">
            <g id="Clubs-&amp;-Societies-Copy" sketch:type="MSLayerGroup" transform="translate(380.000000, 473.000000)">
                <g id="Mentors-+-Icon-Copy-4" sketch:type="MSShapeGroup">
                    <g id="Icon-Copy-4">
                        <g id="add-user" transform="translate(8.000000, 9.000000)">
                            <path d="M8.08,12.44 L8,12.52 L7.912,12.44 C4.112,8.992 1.6,6.712 1.6,4.4 C1.6,2.8 2.8,1.6 4.4,1.6 C5.632,1.6 6.832,2.4 7.256,3.488 L8.744,3.488 C9.168,2.4 10.368,1.6 11.6,1.6 C13.2,1.6 14.4,2.8 14.4,4.4 C14.4,6.712 11.888,8.992 8.08,12.44 L8.08,12.44 Z M11.6,0 C10.208,0 8.872,0.648 8,1.664 C7.128,0.648 5.792,0 4.4,0 C1.936,0 0,1.928 0,4.4 C0,7.416 2.72,9.888 6.84,13.624 L8,14.68 L9.16,13.624 C13.28,9.888 16,7.416 16,4.4 C16,1.928 14.064,0 11.6,0 L11.6,0 Z" id="Shape-Copy-5"></path>
                        </g>
                    </g>
                </g>
            </g>
        </g>
    </g>
</svg>