<?xml version="1.0" encoding="UTF-8" standalone="no"?>
<svg width="16px" height="16px" viewBox="0 0 16 16" version="1.1" xmlns="http://www.w3.org/2000/svg" xmlns:xlink="http://www.w3.org/1999/xlink">
    <defs></defs>
    <g id="Clubs-&amp;-Societes" stroke-width="1" fill-rule="evenodd">
        <g id="Group-view---Clubs-root-4" transform="translate(-564.000000, -977.000000)">
            <g id="Group" transform="translate(380.000000, 925.000000)">
                <path d="M192,68 C196.418278,68 200,64.418278 200,60 C200,55.581722 196.418278,52 192,52 C187.581722,52 184,55.581722 184,60 C184,64.418278 187.581722,68 192,68 Z M189.333333,56.4164444 C189.475853,56.2970364 189.630888,56.1853339 189.798444,56.0813333 C189.966001,55.9773328 190.146073,55.8858522 190.338667,55.8068889 C190.53126,55.7279255 190.738295,55.6662965 190.959778,55.622 C191.18126,55.5777035 191.421036,55.5555556 191.679111,55.5555556 C192.041187,55.5555556 192.367628,55.6037032 192.658444,55.7 C192.949261,55.7962968 193.19674,55.9339991 193.400889,56.1131111 C193.605038,56.2922231 193.761999,56.5079247 193.871778,56.7602222 C193.981556,57.0125198 194.036444,57.2927392 194.036444,57.6008889 C194.036444,57.897483 193.996,58.1517026 193.915111,58.3635556 C193.834222,58.5754085 193.731186,58.7602955 193.606,58.9182222 C193.480814,59.0761489 193.344075,59.2119254 193.195778,59.3255556 C193.047481,59.4391858 192.90689,59.5460736 192.774,59.6462222 C192.64111,59.7463709 192.525556,59.8445921 192.427333,59.9408889 C192.329111,60.0371857 192.268445,60.1450364 192.245333,60.2644444 L192.083556,61.0733333 L190.858667,61.0733333 L190.731556,60.1431111 C190.727704,60.1199999 190.724815,60.096889 190.722889,60.0737778 C190.720963,60.0506666 190.72,60.0275557 190.72,60.0044444 C190.72,59.8349621 190.760444,59.6866673 190.841333,59.5595556 C190.922223,59.4324438 191.024296,59.3159265 191.147556,59.21 C191.270815,59.1040735 191.403703,59.0020005 191.546222,58.9037778 C191.688741,58.8055551 191.821629,58.6996302 191.944889,58.586 C192.068149,58.4723698 192.170222,58.34526 192.251111,58.2046667 C192.332,58.0640734 192.372444,57.8974824 192.372444,57.7048889 C192.372444,57.4737766 192.296371,57.2898525 192.144222,57.1531111 C191.992073,57.0163697 191.783112,56.948 191.517333,56.948 C191.313184,56.948 191.142741,56.969185 191.006,57.0115556 C190.869259,57.0539261 190.751778,57.1011109 190.653556,57.1531111 C190.555333,57.2051114 190.46963,57.2522961 190.396444,57.2946667 C190.323259,57.3370372 190.250074,57.3582222 190.176889,57.3582222 C190.011258,57.3582222 189.888,57.2869637 189.807111,57.1444444 L189.333333,56.4164444 Z M190.396444,63.1591111 C190.396444,63.0204438 190.422444,62.891408 190.474444,62.772 C190.526445,62.652592 190.597703,62.548593 190.688222,62.46 C190.778741,62.371407 190.885629,62.3011114 191.008889,62.2491111 C191.132149,62.1971109 191.266962,62.1711111 191.413333,62.1711111 C191.555853,62.1711111 191.68874,62.1971109 191.812,62.2491111 C191.93526,62.3011114 192.043111,62.371407 192.135556,62.46 C192.228,62.548593 192.300222,62.652592 192.352222,62.772 C192.404222,62.891408 192.430222,63.0204438 192.430222,63.1591111 C192.430222,63.2977785 192.404222,63.4277772 192.352222,63.5491111 C192.300222,63.6704451 192.228,63.775407 192.135556,63.864 C192.043111,63.952593 191.93526,64.0219257 191.812,64.072 C191.68874,64.1220743 191.555853,64.1471111 191.413333,64.1471111 C191.266962,64.1471111 191.132149,64.1220743 191.008889,64.072 C190.885629,64.0219257 190.778741,63.952593 190.688222,63.864 C190.597703,63.775407 190.526445,63.6704451 190.474444,63.5491111 C190.422444,63.4277772 190.396444,63.2977785 190.396444,63.1591111 Z" id="Oval-454"></path>
            </g>
        </g>
    </g>
</svg>
