<?xml version="1.0" encoding="UTF-8" standalone="no"?>
<svg width="20px" height="17px" viewBox="0 0 20 17" version="1.1" xmlns="http://www.w3.org/2000/svg" xmlns:xlink="http://www.w3.org/1999/xlink">
    <defs></defs>
    <g id="New-post" stroke="none" stroke-width="1" fill="none" fill-rule="evenodd">
        <g id="New-post-:-option-2" transform="translate(-475.000000, -1269.000000)" fill="#5A5A5A">
            <g id="Group" transform="translate(380.000000, 1123.000000)">
                <g id="Dropdown-menu" transform="translate(76.000000, 125.000000)">
                    <g id="option" transform="translate(0.000000, 11.100000)">
                        <g id="Post-type-button-3" transform="translate(15.000000, 4.000000)">
                            <g id="Shape-+-Rectangle-43">
                                <g id="image" transform="translate(4.000000, 6.000000)">
                                    <path d="M19,0 L1,0 C0.447,0 0,0.447 0,1 L0,15 C0,15.552 0.447,16 1,16 L19,16 C19.553,16 20,15.552 20,15 L20,1 C20,0.448 19.553,0 19,0 L19,0 Z M18,14 L2,14 L2,2 L18,2 L18,14 L18,14 Z M14.315,8.877 L11.084,10.482 L7.314,4.381 L4,12 L16,12 L14.315,8.877 L14.315,8.877 Z M13.25,7 C13.94,7 14.5,6.44 14.5,5.75 C14.5,5.06 13.94,4.5 13.25,4.5 C12.56,4.5 12,5.06 12,5.75 C12,6.44 12.56,7 13.25,7 L13.25,7 Z" id="Shape"></path>
                                </g>
                            </g>
                        </g>
                    </g>
                </g>
            </g>
        </g>
    </g>
</svg>