<?xml version="1.0" encoding="UTF-8" standalone="no"?>
<svg width="18px" height="18px" viewBox="0 0 18 18" version="1.1" xmlns="http://www.w3.org/2000/svg" xmlns:xlink="http://www.w3.org/1999/xlink">
    <defs></defs>
    <g id="Group-pages" stroke-width="1" fill-rule="evenodd">
        <g id="Group-view---Empty" transform="translate(-644.000000, -329.000000)">
            <g id="Feed-Tabs" transform="translate(380.000000, 315.000000)">
                <g id="Tab--Copy" transform="translate(258.000000, 1.000000)">
                    <g id="icon-+-FEED-Copy" transform="translate(0.000000, 7.000000)">
                        <g id="icon">
                            <rect id="Rectangle-39" x="0" y="0" width="30" height="30" fill="#ffffff"></rect>
                            <g id="list" transform="translate(6.000000, 6.000000)">
                                <g id="info-outline">
                                    <path d="M8.1,13.5 L9.9,13.5 L9.9,8.1 L8.1,8.1 L8.1,13.5 L8.1,13.5 Z M9,0 C4.05,0 0,4.05 0,9 C0,13.95 4.05,18 9,18 C13.95,18 18,13.95 18,9 C18,4.05 13.95,0 9,0 L9,0 Z M9,16.2 C5.04,16.2 1.8,12.96 1.8,9 C1.8,5.04 5.04,1.8 9,1.8 C12.96,1.8 16.2,5.04 16.2,9 C16.2,12.96 12.96,16.2 9,16.2 L9,16.2 Z M8.1,6.3 L9.9,6.3 L9.9,4.5 L8.1,4.5 L8.1,6.3 L8.1,6.3 Z" id="Shape"></path>
                                </g>
                            </g>
                        </g>
                    </g>
                </g>
            </g>
        </g>
    </g>
</svg>
