<?xml version="1.0" encoding="UTF-8" standalone="no"?>
<svg width="16px" height="16px" viewBox="0 0 16 16" version="1.1" xmlns="http://www.w3.org/2000/svg" xmlns:xlink="http://www.w3.org/1999/xlink" xmlns:sketch="http://www.bohemiancoding.com/sketch/ns">
    <!-- Generator: bin/sketchtool 1.4 (305) - http://www.bohemiancoding.com/sketch -->
    <title>video</title>
    <desc>Created with bin/sketchtool.</desc>
    <defs></defs>
    <g id="Custom-Groups" stroke="none" stroke-width="1" fill-rule="evenodd" sketch:type="MSPage">
        <g id="Group-view---Custom-Groups-root-2" sketch:type="MSArtboardGroup" transform="translate(-917.000000, -527.000000)">
            <g id="Group-filter" sketch:type="MSLayerGroup" transform="translate(896.000000, 451.000000)">
                <g id="Dropdown-menu" transform="translate(0.000000, 16.000000)" sketch:type="MSShapeGroup">
                    <g id="option" transform="translate(1.000000, 50.000000)">
                        <g id="Post-type-button-4" transform="translate(14.000000, 4.000000)">
                            <g id="Shape-+-Rectangle-43">
                                <g id="video" transform="translate(6.000000, 6.000000)">
                                    <path d="M12.8888889,8 C12.1525092,8 11.5555556,7.40304633 11.5555556,6.66666667 C11.5555556,5.930287 12.1525092,5.33333333 12.8888889,5.33333333 C13.6252686,5.33333333 14.2222222,5.930287 14.2222222,6.66666667 C14.2222222,7.40304633 13.6252686,8 12.8888889,8 L12.8888889,8 Z M10.2222222,4.44444444 C9.48584256,4.44444444 8.88888889,3.84749078 8.88888889,3.11111111 C8.88888889,2.37473144 9.48584256,1.77777778 10.2222222,1.77777778 C10.9586019,1.77777778 11.5555556,2.37473144 11.5555556,3.11111111 C11.5555556,3.84749078 10.9586019,4.44444444 10.2222222,4.44444444 L10.2222222,4.44444444 Z M5.77777778,4.44444444 C5.04139811,4.44444444 4.44444444,3.84749078 4.44444444,3.11111111 C4.44444444,2.37473144 5.04139811,1.77777778 5.77777778,1.77777778 C6.51415744,1.77777778 7.11111111,2.37473144 7.11111111,3.11111111 C7.11111111,3.84749078 6.51415744,4.44444444 5.77777778,4.44444444 L5.77777778,4.44444444 Z M3.11111111,8 C2.37473144,8 1.77777778,7.40304633 1.77777778,6.66666667 C1.77777778,5.930287 2.37473144,5.33333333 3.11111111,5.33333333 C3.84749078,5.33333333 4.44444444,5.930287 4.44444444,6.66666667 C4.44444444,7.40304633 3.84749078,8 3.11111111,8 L3.11111111,8 Z M8,0 C3.581722,-1.18423789e-15 7.89491929e-16,3.581722 0,8 C-3.94745964e-16,12.418278 3.581722,16 8,16 C8.73637967,16 9.33333333,15.4030463 9.33333333,14.6666667 C9.33333333,14.32 9.2,14.0088889 8.98666667,13.7777778 C8.78222222,13.5377778 8.64888889,13.2266667 8.64888889,12.8888889 C8.64888889,12.1525092 9.24584256,11.5555556 9.98222222,11.5555556 L11.5555556,11.5555556 C14.0101544,11.5555556 16,9.56571 16,7.11111111 C16,3.18222222 12.4177778,0 8,0 L8,0 Z" id="Shape-Copy-8"></path>
                                </g>
                            </g>
                        </g>
                    </g>
                </g>
            </g>
        </g>
    </g>
</svg>
