<?xml version="1.0" encoding="UTF-8" standalone="no"?>
<svg width="18px" height="18px" viewBox="0 0 18 18" version="1.1" xmlns="http://www.w3.org/2000/svg" xmlns:xlink="http://www.w3.org/1999/xlink">
    <defs></defs>
    <g id="RHS-[ok]" stroke="none" stroke-width="1">
        <g id="RHS---Iddle" transform="translate(-30.000000, -715.000000)">
            <g id="Navbar-Copy" transform="translate(0.000000, 64.000000)">
                <g id="Nav" transform="translate(20.000000, 68.000000)">
                    <g id="li-3-copy" transform="translate(0.000000, 576.000000)">
                        <g id="Icon" transform="translate(3.000000, 0.000000)">
                            <g id="megaphone" transform="translate(7.000000, 7.000000)">
                                <path d="M18,13.0909091 L18,1.63636364 C18,0.736363636 17.2636364,0 16.3636364,0 L4.90909091,0 C4.00909091,0 3.27272727,0.736363636 3.27272727,1.63636364 L3.27272727,13.0909091 C3.27272727,13.9909091 4.00909091,14.7272727 4.90909091,14.7272727 L16.3636364,14.7272727 C17.2636364,14.7272727 18,13.9909091 18,13.0909091 L18,13.0909091 Z M0,3.27272727 L0,16.3636364 C0,17.2636364 0.736363636,18 1.63636364,18 L14.7272727,18 L14.7272727,16.3636364 L1.63636364,16.3636364 L1.63636364,3.27272727 L0,3.27272727 L0,3.27272727 Z" id="Shape"></path>
                            </g>
                        </g>
                    </g>
                </g>
            </g>
        </g>
    </g>
</svg>