<?xml version="1.0" encoding="UTF-8" standalone="no"?>
<svg width="22px" height="18px" viewBox="0 0 22 18" version="1.1" xmlns="http://www.w3.org/2000/svg" xmlns:xlink="http://www.w3.org/1999/xlink">
    <defs></defs>
    <g id="RHS-[ok]" stroke="none" stroke-width="1">
        <g id="RHS---Iddle" transform="translate(-28.000000, -683.000000)">
            <g id="Navbar-Copy" transform="translate(0.000000, 64.000000)">
                <g id="Nav" transform="translate(20.000000, 68.000000)">
                    <g id="li-14-copy" transform="translate(0.000000, 544.000000)">
                        <g id="Icon" transform="translate(3.000000, 0.000000)">
                            <g id="stopwatch" transform="translate(5.000000, 7.000000)">
                                <path d="M20,14 L20,2 L2,2 L2,14 L20,14 L20,14 Z M20,0 C21.1045695,0 22,0.8954305 22,2 L22,14 C22,15.1045695 21.1045695,16 20,16 L15,16 L15,18 L7,18 L7,16 L2,16 C0.8954305,16 2.22044605e-16,15.1045695 0,14 L0,2 C-1.11022302e-16,0.8954305 0.8954305,0 2,0 L20,0 L20,0 Z M4,4 L10,4 L10,8 L4,8 L4,4 L4,4 Z M4,10 L10,10 L10,12 L4,12 L4,10 L4,10 Z M12,4 L18,4 L18,6 L12,6 L12,4 L12,4 Z M12,8 L18,8 L18,12 L12,12 L12,8 L12,8 Z" id="Shape-Copy-9"></path>
                            </g>
                        </g>
                    </g>
                </g>
            </g>
        </g>
    </g>
</svg>