<?xml version="1.0" encoding="UTF-8" standalone="no"?>
<svg width="10px" height="14px" viewBox="0 0 10 14" version="1.1" xmlns="http://www.w3.org/2000/svg" xmlns:xlink="http://www.w3.org/1999/xlink" xmlns:sketch="http://www.bohemiancoding.com/sketch/ns">
    <!-- Generator: bin/sketchtool 1.4 (305) - http://www.bohemiancoding.com/sketch -->
    <title>Shape</title>
    <desc>Created with bin/sketchtool.</desc>
    <defs></defs>
    <g id="Group-pages" stroke="none" stroke-width="1" fill-rule="evenodd">
        <g id="Group-view---Full-:-Events-:-Event-with-image" sketch:type="MSArtboardGroup" transform="translate(-538.000000, -503.000000)">
            <g id="Caption" sketch:type="MSLayerGroup" transform="translate(380.000000, 339.000000)">
                <g id="Melbourne-Bartender--+-event-+-event-copy" transform="translate(19.000000, 132.000000)" sketch:type="MSShapeGroup">
                    <g id="event-+-event-copy">
                        <g id="event-copy" transform="translate(139.000000, 30.000000)">
                            <path d="M4.9,2 C2.17,2 0,4.17 0,6.9 C0,10.54 4.9,16 4.9,16 C4.9,16 9.8,10.54 9.8,6.9 C9.8,4.17 7.63,2 4.9,2 L4.9,2 Z M4.9,8.65 C3.92,8.65 3.15,7.88 3.15,6.9 C3.15,5.92 3.92,5.15 4.9,5.15 C5.88,5.15 6.65,5.92 6.65,6.9 C6.65,7.88 5.88,8.65 4.9,8.65 L4.9,8.65 Z" id="Shape"></path>
                        </g>
                    </g>
                </g>
            </g>
        </g>
    </g>
</svg>