<?xml version="1.0" encoding="UTF-8" standalone="no"?>
<svg width="18px" height="15px" viewBox="0 0 18 15" version="1.1" xmlns="http://www.w3.org/2000/svg" xmlns:xlink="http://www.w3.org/1999/xlink">
    <defs></defs>
    <g id="RHS-[ok]" stroke="none" stroke-width="1">
        <g id="RHS---Iddle" transform="translate(-30.000000, -653.000000)">
            <g id="Navbar-Copy" transform="translate(0.000000, 64.000000)">
                <g id="Nav" transform="translate(20.000000, 68.000000)">
                    <g id="li-13-copy" transform="translate(0.000000, 512.000000)">
                        <g id="Icon" transform="translate(3.000000, 0.000000)">
                            <g id="calendar" transform="translate(7.000000, 9.000000)">
                                <path d="M16.2,0 L1.8,0 C0.81,0 0,0.81 0,1.8 L0,12.6 C0,13.59 0.81,14.4 1.8,14.4 L16.2,14.4 C17.19,14.4 18,13.59 18,12.6 L18,1.8 C18,0.81 17.19,0 16.2,0 L16.2,0 Z M16.2,3.6 L9,8.1 L1.8,3.6 L1.8,1.8 L9,6.3 L16.2,1.8 L16.2,3.6 L16.2,3.6 Z" id="Shape"></path>
                            </g>
                        </g>
                    </g>
                </g>
            </g>
        </g>
    </g>
</svg>