<?xml version="1.0" encoding="UTF-8" standalone="no"?>
<svg width="10px" height="18px" viewBox="-2 -2 15 23" version="1.1" xmlns="http://www.w3.org/2000/svg" xmlns:xlink="http://www.w3.org/1999/xlink">
    <defs></defs>
    <g id="RHS-[ok]" stroke="none" stroke-width="1">
        <g id="RHS---Iddle" transform="translate(-34.000000, -555.000000)">
            <g id="Navbar-Copy" transform="translate(0.000000, 64.000000)">
                <g id="Nav" transform="translate(20.000000, 68.000000)">
                    <g id="li-7-copy" transform="translate(0.000000, 416.000000)">
                        <g id="Icon" transform="translate(3.000000, 0.000000)">
                            <path d="M17.241,22.755 L17.241,25 L15.241,25 L15.241,22.857 C13.529,22.757 12.175,22.268 11,21.06 L12.718,19.32 C13.577,20.19 14.741,20.48 16,20.48 C17.565,20.48 18.405,19.881 18.405,18.778 C18.405,18.295 18.272,17.889 17.985,17.618 C17.718,17.367 17.413,17.231 16.783,17.135 L15.141,16.903 C13.977,16.729 13.119,16.362 12.507,15.762 C11.859,15.105 11.534,14.216 11.534,13.055 C11.534,10.9 12.916,9.312 15.241,8.955 L15.241,7 L17.241,7 L17.241,8.932 C18.623,9.077 19.706,9.552 20.656,10.483 L18.977,12.165 C18.118,11.333 17.088,11.218 16.19,11.218 C14.778,11.218 14.091,12.01 14.091,12.958 C14.091,13.306 14.206,13.674 14.492,13.944 C14.759,14.196 15.198,14.408 15.752,14.485 L17.354,14.717 C18.595,14.891 19.377,15.239 19.95,15.78 C20.676,16.476 21,17.482 21,18.7 C21,20.95 19.433,22.362 17.241,22.755 L17.241,22.755 Z" id="Shape"></path>
                        </g>
                    </g>
                </g>
            </g>
        </g>
    </g>
</svg>