<?xml version="1.0" encoding="UTF-8" standalone="no"?>
<svg width="15px" height="16px" viewBox="0 0 15 16" version="1.1" xmlns="http://www.w3.org/2000/svg" xmlns:xlink="http://www.w3.org/1999/xlink">
    <defs></defs>
    <g id="RHS-[ok]" stroke="none" stroke-width="1">
        <g id="RHS---Iddle" transform="translate(-32.000000, -364.000000)">
            <g id="Navbar-Copy" transform="translate(0.000000, 64.000000)">
                <g id="Nav" transform="translate(20.000000, 68.000000)">
                    <g id="li-8" transform="translate(0.000000, 224.000000)">
                        <g id="Icon" transform="translate(3.000000, 0.000000)">
                            <g id="add-user" transform="translate(9.000000, 8.000000)">
                                <path d="M7.01071081,4.67380721 C8.30134703,4.67380721 9.34761441,3.62753982 9.34761441,2.3369036 C9.34761441,1.04626738 8.30134703,4.4408921e-16 7.01071081,4.4408921e-16 C5.72007459,4.4408921e-16 4.67380721,1.04626738 4.67380721,2.3369036 C4.67380721,3.62753982 5.72007459,4.67380721 7.01071081,4.67380721 L7.01071081,4.67380721 Z M7.01071081,7.43135346 C5.17234664,5.72541383 2.72638754,4.67380721 0,4.67380721 L0,13.2424537 C2.72638754,13.2424537 5.17234664,14.2940604 7.01071081,16 C8.84907498,14.2940604 11.2950341,13.2424537 14.0214216,13.2424537 L14.0214216,4.67380721 C11.2950341,4.67380721 8.84907498,5.72541383 7.01071081,7.43135346 L7.01071081,7.43135346 Z" id="Shape-Copy-2"></path>
                            </g>
                        </g>
                    </g>
                </g>
            </g>
        </g>
    </g>
</svg>