<?xml version="1.0" encoding="UTF-8" standalone="no"?>
<svg width="17px" height="19px" viewBox="0 0 17 19" version="1.1" xmlns="http://www.w3.org/2000/svg" xmlns:xlink="http://www.w3.org/1999/xlink">
    <defs></defs>
    <g id="Marketplace" stroke="none" stroke-width="1" fill="none" fill-rule="evenodd">
        <g id="Marketplace---1-" transform="translate(-551.000000, -142.000000)">
            <g id="TABS" transform="translate(380.000000, 128.000000)">
                <g id="Tab-active-Copy-2" transform="translate(164.000000, 1.000000)">
                    <g id="icon-+-FEED" transform="translate(0.000000, 7.000000)">
                        <g id="icon">
                            <rect id="Rectangle-39" x="0" y="0" width="30" height="30"></rect>
                            <g id="list" transform="translate(7.000000, 6.000000)" fill="#A8A8A8">
                                <path d="M8.14285714,10.8571429 C5.64442613,10.8571429 3.61904762,8.83176434 3.61904762,6.33333333 L5.42857143,6.33333333 C5.42857143,7.83239194 6.64379854,9.04761905 8.14285714,9.04761905 C9.64191575,9.04761905 10.8571429,7.83239194 10.8571429,6.33333333 L12.6666667,6.33333333 C12.6666667,8.83176434 10.6412882,10.8571429 8.14285714,10.8571429 L8.14285714,10.8571429 Z M8.14285714,1.80952381 C9.64191575,1.80952381 10.8571429,3.02475092 10.8571429,4.52380952 L5.42857143,4.52380952 C5.42857143,3.02475092 6.64379854,1.80952381 8.14285714,1.80952381 L8.14285714,1.80952381 Z M14.4761905,4.52380952 L12.6666667,4.52380952 C12.6666667,3.32402064 12.1900524,2.17337199 11.3416735,1.32499313 C10.4932947,0.476614278 9.34264603,1.0044875e-16 8.14285714,0 C5.64442613,-1.0044875e-16 3.61904762,2.02537851 3.61904762,4.52380952 L1.80952381,4.52380952 C0.805238095,4.52380952 0,5.32904762 0,6.33333333 L0,17.1904762 C0,18.1898486 0.810151405,19 1.80952381,19 L14.4761905,19 C15.4755629,19 16.2857143,18.1898486 16.2857143,17.1904762 L16.2857143,6.33333333 C16.2857143,5.32904762 15.4714286,4.52380952 14.4761905,4.52380952 L14.4761905,4.52380952 Z" id="Shape-Copy"></path>
                            </g>
                        </g>
                    </g>
                </g>
            </g>
        </g>
    </g>
</svg>