<?xml version="1.0" encoding="UTF-8" standalone="no"?>
<svg width="24px" height="24px" viewBox="0 0 24 24" version="1.1" xmlns="http://www.w3.org/2000/svg" xmlns:xlink="http://www.w3.org/1999/xlink" xmlns:sketch="http://www.bohemiancoding.com/sketch/ns">
    <!-- Generator: Sketch 3.3.2 (12043) - http://www.bohemiancoding.com/sketch -->
    <title>notifications-clubs</title>
    <desc>Created with Sketch.</desc>
    <defs></defs>
    <g id="ASSETS" stroke="none" stroke-width="1" fill="none" fill-rule="evenodd" sketch:type="MSPage">
        <g id="Artboard-4" sketch:type="MSArtboardGroup" transform="translate(-30.000000, -222.000000)">
            <g id="Shape-Copy-3-+-Rectangle-346-Copy-Copy-Copy-Copy-Copy-Copy" sketch:type="MSLayerGroup" transform="translate(30.000000, 222.000000)">
                <rect id="Rectangle-346" sketch:type="MSShapeGroup" x="0" y="0" width="24" height="24"></rect>
                <g id="Shape-+-Shape-Copy-5" transform="translate(1.000000, 1.000000)" sketch:type="MSShapeGroup">
                    <path d="M17.75,0 L17.75,0 L18.38,0 L20,0 L22,0 L22,2 L22,10.1 C22,12.1045695 20.2045695,13.9 18.2,13.9 L16.22,13.9 L16.22,11.9 L18.1811614,12.2922323 C17.5971666,15.212206 15.5130092,17.1596974 12.0926484,17.4907 L11.9,15.5 L13.9,15.5 L13.9,17.39 L11.9,17.39 L12.0810715,15.3982136 C14.8806105,15.6527171 16.6,17.3268595 16.6,19.73 L16.6,20 L16.6,22 L14.6,22 L7.4,22 L5.4,22 L5.4,20 L5.4,19.73 C5.4,17.3268595 7.11938947,15.6527171 9.91892851,15.3982136 L10.1,17.39 L8.1,17.39 L8.1,15.5 L10.1,15.5 L9.90735161,17.4907 C6.48699078,17.1596974 4.4028334,15.212206 3.81883865,12.2922323 L5.78,11.9 L5.78,13.9 L3.8,13.9 C1.7954305,13.9 0,12.1045695 0,10.1 L0,2 L0,0 L2,0 L3.62,0 L4.25,0 L5.6,0 C7.53016082,0 9.4,1.80952179 9.4,3.8 L7.4,3.8 L7.4,1.8 L14.6,1.8 L14.6,3.8 L12.6,3.8 C12.6,1.80952179 14.4698392,0 16.4,0 L17.75,0 Z M1.8,10.1 L1.8,10.1 L1.8,3.8 L1.8,1.8 L3.8,1.8 L5.6,1.8 L7.6,1.8 L7.6,3.8 L7.6,5.6 L7.6,10.1 L7.6,12.1 L5.6,12.1 L3.8,12.1 L1.8,12.1 L1.8,10.1 Z M18.2,12.1 L18.2,12.1 L16.4,12.1 L14.4,12.1 L14.4,10.1 L14.4,5.6 L14.4,3.8 L14.4,1.8 L16.4,1.8 L18.2,1.8 L20.2,1.8 L20.2,3.8 L20.2,10.1 L20.2,12.1 L18.2,12.1 Z" id="Shape" fill="#FFFFFF"></path>
                    <path d="M17.75,2 L16.4,2 C15.59,2 14.6,2.9 14.6,3.8 L7.4,3.8 C7.4,2.9 6.41,2 5.6,2 L4.25,2 L3.62,2 L2,2 L2,10.1 C2,11 2.9,11.9 3.8,11.9 L5.78,11.9 C6.14,13.7 7.31,15.23 10.1,15.5 L10.1,17.39 C8.12,17.57 7.4,18.56 7.4,19.73 L7.4,20 L14.6,20 L14.6,19.73 C14.6,18.56 13.88,17.57 11.9,17.39 L11.9,15.5 C14.69,15.23 15.86,13.7 16.22,11.9 L18.2,11.9 C19.1,11.9 20,11 20,10.1 L20,2 L18.38,2 L17.75,2 Z M3.8,10.1 L3.8,3.8 L5.6,3.8 L5.6,5.6 L5.6,10.1 L3.8,10.1 L3.8,10.1 Z M18.2,10.1 L16.4,10.1 L16.4,5.6 L16.4,3.8 L18.2,3.8 L18.2,10.1 L18.2,10.1 Z" id="Shape-Copy-5" fill="#44A6C3"></path>
                </g>
            </g>
        </g>
    </g>
</svg>