<?xml version="1.0" encoding="UTF-8" standalone="no"?>
<svg width="24px" height="24px" viewBox="0 0 24 24" version="1.1" xmlns="http://www.w3.org/2000/svg" xmlns:xlink="http://www.w3.org/1999/xlink" xmlns:sketch="http://www.bohemiancoding.com/sketch/ns">
    <!-- Generator: Sketch 3.3.2 (12043) - http://www.bohemiancoding.com/sketch -->
    <title>notifications-study</title>
    <desc>Created with Sketch.</desc>
    <defs></defs>
    <g id="ASSETS" stroke="none" stroke-width="1" fill="none" fill-rule="evenodd" sketch:type="MSPage">
        <g id="Artboard-4" sketch:type="MSArtboardGroup" transform="translate(-30.000000, -102.000000)">
            <g id="Shape-Copy-3-+-Rectangle-346-Copy-Copy-Copy" sketch:type="MSLayerGroup" transform="translate(30.000000, 102.000000)">
                <rect id="Rectangle-346" sketch:type="MSShapeGroup" x="0" y="0" width="24" height="24"></rect>
                <g id="Shape-+-Path" transform="translate(0.000000, 4.000000)" sketch:type="MSShapeGroup">
                    <path d="M15.6363636,9.45454545 L15.6363636,9.45454545 C12.9863396,9.45454545 10.9090909,7.37729677 10.9090909,4.72727273 C10.9090909,2.07724868 12.9863396,0 15.6363636,0 C18.2863877,0 20.3636364,2.07724868 20.3636364,4.72727273 C20.3636364,7.37729677 18.2863877,9.45454545 15.6363636,9.45454545 L15.6363636,9.45454545 Z M8.36363636,9.45454545 L8.36363636,9.45454545 C5.71361232,9.45454545 3.63636364,7.37729677 3.63636364,4.72727273 C3.63636364,2.07724868 5.71361232,0 8.36363636,0 C11.0136604,0 13.0909091,2.07724868 13.0909091,4.72727273 C13.0909091,7.37729677 11.0136604,9.45454545 8.36363636,9.45454545 L8.36363636,9.45454545 Z M8.36363636,7.27272727 L8.36363636,7.27272727 C12.2451192,7.27272727 16.7272727,9.07325048 16.7272727,12.4545455 L16.7272727,14.7272727 L16.7272727,16.7272727 L14.7272727,16.7272727 L2,16.7272727 L0,16.7272727 L0,14.7272727 L0,12.4545455 C0,9.07325048 4.48215353,7.27272727 8.36363636,7.27272727 L8.36363636,7.27272727 Z M15.6363636,7.27272727 L15.6363636,7.27272727 C19.5178465,7.27272727 24,9.07325048 24,12.4545455 L24,14.7272727 L24,16.7272727 L22,16.7272727 L16.5454545,16.7272727 L14.5454545,16.7272727 L14.5454545,14.7272727 L14.5454545,12.4545455 C14.5454545,11.9480468 14.2361689,11.4399347 13.6178723,11.027737 L9.85608691,8.51988 L14.2422015,7.42335136 C14.7417535,7.29846336 15.0763226,7.27272727 15.6363636,7.27272727 L15.6363636,7.27272727 Z" id="Shape" fill="#FFFFFF"></path>
                    <path d="M15.6363636,7.45454545 C17.1818182,7.45454545 18.3636364,6.27272727 18.3636364,4.72727273 C18.3636364,3.18181818 17.1818182,2 15.6363636,2 C14.0909091,2 12.9090909,3.18181818 12.9090909,4.72727273 C12.9090909,6.27272727 14.0909091,7.45454545 15.6363636,7.45454545 Z M8.36363636,7.45454545 C9.90909091,7.45454545 11.0909091,6.27272727 11.0909091,4.72727273 C11.0909091,3.18181818 9.90909091,2 8.36363636,2 C6.81818182,2 5.63636364,3.18181818 5.63636364,4.72727273 C5.63636364,6.27272727 6.81818182,7.45454545 8.36363636,7.45454545 Z M8.36363636,9.27272727 C6.27272727,9.27272727 2,10.3636364 2,12.4545455 L2,14.7272727 L14.7272727,14.7272727 L14.7272727,12.4545455 C14.7272727,10.3636364 10.4545455,9.27272727 8.36363636,9.27272727 Z M15.6363636,9.27272727 C15.3636364,9.27272727 15.0909091,9.27272727 14.7272727,9.36363636 C15.8181818,10.0909091 16.5454545,11.1818182 16.5454545,12.4545455 L16.5454545,14.7272727 L22,14.7272727 L22,12.4545455 C22,10.3636364 17.7272727,9.27272727 15.6363636,9.27272727 Z" id="Path" fill="#79BC5D"></path>
                </g>
            </g>
        </g>
    </g>
</svg>