<?xml version="1.0" encoding="UTF-8" standalone="no"?>
<svg width="24px" height="24px" viewBox="0 0 24 24" version="1.1" xmlns="http://www.w3.org/2000/svg" xmlns:xlink="http://www.w3.org/1999/xlink" xmlns:sketch="http://www.bohemiancoding.com/sketch/ns">
    <!-- Generator: Sketch 3.3.2 (12043) - http://www.bohemiancoding.com/sketch -->
    <title>notifications-subjects</title>
    <desc>Created with Sketch.</desc>
    <defs></defs>
    <g id="ASSETS" stroke="none" stroke-width="1" fill="none" fill-rule="evenodd" sketch:type="MSPage">
        <g id="Artboard-4" sketch:type="MSArtboardGroup" transform="translate(-30.000000, -182.000000)">
            <g id="Shape-Copy-3-+-Rectangle-346-Copy-Copy-Copy-Copy" sketch:type="MSLayerGroup" transform="translate(30.000000, 182.000000)">
                <rect id="Rectangle-346" sketch:type="MSShapeGroup" x="0" y="0" width="24" height="24"></rect>
                <g id="Icon-Copy-2" transform="translate(3.000000, 0.000000)" sketch:type="MSShapeGroup">
                    <path d="M18.0003797,7.45035462 L18.0003797,7.45035462 L18.0003797,17.8013546 C18.0003797,18.854222 17.5144924,19.5771063 16.733582,20.1805214 C16.5837963,20.2962619 15.9817731,20.7173747 16.1597006,20.5910709 C14.326869,21.8948807 12.0003797,20.4408249 12.0003797,18.3743546 L12.0003797,8.26035462 C12.0003797,8.72617077 12.2766485,9.2502269 12.7741982,9.50522112 C12.6603397,9.44686867 11.2638434,8.71353932 8.88992708,7.46598728 C8.88873797,7.46536237 8.88873797,7.46536237 8.88754885,7.46473747 C8.04083409,7.01976767 7.13380399,6.5430226 6.2268751,6.0662787 C5.2595235,5.55775513 5.2595235,5.55775513 5.01768488,5.43061084 L5.94837973,3.66035462 L5.25122879,5.53491605 C5.15520637,5.49920523 5.00928575,5.43204934 5.03111074,5.44036266 C5.16642397,5.49190458 5.37121255,5.49433432 5.50995561,5.42299201 C5.33612317,5.5123767 5.20111055,5.60212479 5.11256654,5.67747634 C5.1179256,5.67291574 5.1526787,5.63362307 5.2376882,5.47274489 L3.46937973,4.53835462 L4.43041741,2.78438581 L12.5795272,7.24981073 C13.4224998,7.69266269 14.0003797,8.51718415 14.0003797,9.53635462 L14.0003797,20.3383546 C14.0003797,21.3371334 13.4181136,22.284028 12.5258069,22.712209 C12.141233,22.904496 11.7202068,23.0003546 11.2983797,23.0003546 C10.7998771,23.0003546 10.3011794,22.8694704 9.8717299,22.6042914 C9.8032637,22.5625748 6.37877211,20.4636475 5.72315878,20.0618881 C5.72172873,20.0610117 5.72172873,20.0610117 5.72029869,20.0601354 C3.28540676,18.5680357 1.81300313,17.6665656 1.61038822,17.5443405 C0.8131978,17.0660262 0.141844051,16.2741944 0.112498283,15.1931305 L0.000379732218,4.88535462 C0.000362527091,4.87792528 0.000362527091,4.87792528 0.000236088204,4.85892411 C-0.00468370844,4.13529702 0.130350288,3.51282054 0.607123634,2.77168257 C1.89299754,0.771844241 5.39510075,-0.729130794 7.55260026,0.390923988 L16.5656656,4.95311331 C17.5147595,5.44296823 18.0003797,6.38429371 18.0003797,7.45035462 L18.0003797,7.45035462 Z" id="Shape" fill="#FFFFFF"></path>
                    <path d="M16.0003797,7.45035462 L16.0003797,7.45035462 C16.0003797,7.06635462 15.8653797,6.84235462 15.6483797,6.73035462 L6.64937973,2.17535462 C5.41837973,1.53635462 2.98637973,2.76935462 2.28937973,3.85335462 C1.97737973,4.33835462 2.00037973,4.68735462 2.00037973,4.88535462 L2.11237973,15.1713546 C2.11837973,15.3903546 2.39937973,15.6853546 2.63937973,15.8293546 C3.13837973,16.1303546 10.6973797,20.7653546 10.9123797,20.8963546 C11.0273797,20.9673546 11.1633797,21.0003546 11.2983797,21.0003546 C11.4123797,21.0003546 11.5273797,20.9753546 11.6313797,20.9233546 C11.8583797,20.8143546 12.0003797,20.5683546 12.0003797,20.3383546 L12.0003797,9.53635462 C12.0003797,9.31035462 11.8663797,9.13435462 11.6493797,9.02035462 L3.46937973,4.53835462 C3.56237973,4.36235462 3.92637973,3.98835462 4.59537973,3.64435462 C5.29937973,3.28235462 5.82737973,3.61535462 5.94837973,3.66035462 C5.94837973,3.66035462 13.4463797,7.60235462 13.6863797,7.72535462 C13.9263797,7.84835462 14.0003797,8.04935462 14.0003797,8.26035462 L14.0003797,18.3743546 C14.0003797,18.8863546 14.5603797,19.2743546 15.0003797,18.9613546 C15.5483797,18.5723546 16.0003797,18.3233546 16.0003797,17.8013546 L16.0003797,7.45035462 Z" id="Path" fill="#E36175"></path>
                </g>
            </g>
        </g>
    </g>
</svg>