<?xml version="1.0" encoding="UTF-8" standalone="no"?>
<svg width="24px" height="24px" viewBox="0 0 24 24" version="1.1" xmlns="http://www.w3.org/2000/svg" xmlns:xlink="http://www.w3.org/1999/xlink" xmlns:sketch="http://www.bohemiancoding.com/sketch/ns">
    <!-- Generator: Sketch 3.3.2 (12043) - http://www.bohemiancoding.com/sketch -->
    <title>notifications-custom</title>
    <desc>Created with Sketch.</desc>
    <defs></defs>
    <g id="ASSETS" stroke="none" stroke-width="1" fill="none" fill-rule="evenodd" sketch:type="MSPage">
        <g id="Artboard-4" sketch:type="MSArtboardGroup" transform="translate(-30.000000, -62.000000)">
            <g id="Shape-Copy-3-+-Rectangle-346-Copy" sketch:type="MSLayerGroup" transform="translate(30.000000, 62.000000)">
                <rect id="Rectangle-346" sketch:type="MSShapeGroup" x="0" y="0" width="24" height="24"></rect>
                <g id="Icon-Copy-2" transform="translate(3.000000, 3.000000)" sketch:type="MSShapeGroup">
                    <path d="M5.9,10 L5.9,10 C3.13857625,10 0.9,7.76142375 0.9,5 C0.9,2.23857625 3.13857625,0 5.9,0 C8.66142375,0 10.9,2.23857625 10.9,5 C10.9,7.76142375 8.66142375,10 5.9,10 L5.9,10 Z M13.9,10 L13.9,10 C11.1385763,10 8.9,7.76142375 8.9,5 C8.9,2.23857625 11.1385763,0 13.9,0 C16.6614237,0 18.9,2.23857625 18.9,5 C18.9,7.76142375 16.6614237,10 13.9,10 L13.9,10 Z M13.9,18 L13.9,18 C11.1385763,18 8.9,15.7614237 8.9,13 C8.9,10.2385763 11.1385763,8 13.9,8 C16.6614237,8 18.9,10.2385763 18.9,13 C18.9,15.7614237 16.6614237,18 13.9,18 L13.9,18 Z M5.9,18 L5.9,18 C3.13857625,18 0.9,15.7614237 0.9,13 C0.9,10.2385763 3.13857625,8 5.9,8 C8.66142375,8 10.9,10.2385763 10.9,13 C10.9,15.7614237 8.66142375,18 5.9,18 L5.9,18 Z" id="Shape" fill="#FFFFFF"></path>
                    <path d="M5.9,8 C7.55685425,8 8.9,6.65685425 8.9,5 C8.9,3.34314575 7.55685425,2 5.9,2 C4.24314575,2 2.9,3.34314575 2.9,5 C2.9,6.65685425 4.24314575,8 5.9,8 Z M13.9,8 C15.5568542,8 16.9,6.65685425 16.9,5 C16.9,3.34314575 15.5568542,2 13.9,2 C12.2431458,2 10.9,3.34314575 10.9,5 C10.9,6.65685425 12.2431458,8 13.9,8 Z M13.9,16 C15.5568542,16 16.9,14.6568542 16.9,13 C16.9,11.3431458 15.5568542,10 13.9,10 C12.2431458,10 10.9,11.3431458 10.9,13 C10.9,14.6568542 12.2431458,16 13.9,16 Z M5.9,16 C7.55685425,16 8.9,14.6568542 8.9,13 C8.9,11.3431458 7.55685425,10 5.9,10 C4.24314575,10 2.9,11.3431458 2.9,13 C2.9,14.6568542 4.24314575,16 5.9,16 Z" id="Path" fill="#8681AE"></path>
                </g>
            </g>
        </g>
    </g>
</svg>