<?xml version="1.0" encoding="UTF-8" standalone="no"?>
<svg width="16px" height="11px" viewBox="0 0 16 11" version="1.1" xmlns="http://www.w3.org/2000/svg" xmlns:xlink="http://www.w3.org/1999/xlink" xmlns:sketch="http://www.bohemiancoding.com/sketch/ns">
    <!-- Generator: Sketch 3.3.2 (12043) - http://www.bohemiancoding.com/sketch -->
    <title>notifications-download</title>
    <desc>Created with Sketch.</desc>
    <defs></defs>
    <g id="ASSETS" stroke="none" stroke-width="1" fill="none" fill-rule="evenodd" sketch:type="MSPage">
        <g id="Artboard-4" sketch:type="MSArtboardGroup" transform="translate(-30.000000, -314.000000)" fill="#1E88E5">
            <g id="Shape-+-Shape" sketch:type="MSLayerGroup" transform="translate(30.000000, 314.000000)">
                <g id="Shape" sketch:type="MSShapeGroup">
                    <path d="M12.9333333,4 C12.4666667,1.73333333 10.4666667,0 8,0 C6.06666667,0 4.4,1.06666667 3.6,2.66666667 C1.53333333,2.93333333 0,4.6 0,6.66666667 C0,8.86666667 1.8,10.6666667 4,10.6666667 L12.6666667,10.6666667 C14.5333333,10.6666667 16,9.2 16,7.33333333 C16,5.6 14.6,4.13333333 12.9333333,4 L12.9333333,4 Z M11.3333333,6 L8,9.33333333 L4.66666667,6 L6.66666667,6 L6.66666667,3.33333333 L9.33333333,3.33333333 L9.33333333,6 L11.3333333,6 L11.3333333,6 Z"></path>
                </g>
            </g>
        </g>
    </g>
</svg>