<?xml version="1.0" encoding="UTF-8" standalone="no"?>
<svg width="24px" height="24px" viewBox="0 0 24 24" version="1.1" xmlns="http://www.w3.org/2000/svg" xmlns:xlink="http://www.w3.org/1999/xlink" xmlns:sketch="http://www.bohemiancoding.com/sketch/ns">
    <!-- Generator: Sketch 3.3.2 (12043) - http://www.bohemiancoding.com/sketch -->
    <title>notifications-mentors</title>
    <desc>Created with Sketch.</desc>
    <defs></defs>
    <g id="ASSETS" stroke="none" stroke-width="1" fill="none" fill-rule="evenodd" sketch:type="MSPage">
        <g id="Artboard-4" sketch:type="MSArtboardGroup" transform="translate(-30.000000, -22.000000)">
            <g id="Shape-Copy-3-+-Rectangle-346" sketch:type="MSLayerGroup" transform="translate(30.000000, 22.000000)">
                <rect id="Rectangle-346" sketch:type="MSShapeGroup" x="0" y="0" width="24" height="24"></rect>
                <g id="Shape-+-Path" transform="translate(3.000000, 2.000000)" sketch:type="MSShapeGroup">
                    <path d="M9.01071081,8.67380721 L9.01071081,8.67380721 C6.61550509,8.67380721 4.67380721,6.73210932 4.67380721,4.3369036 C4.67380721,1.94169788 6.61550509,0 9.01071081,0 C11.4059165,0 13.3476144,1.94169788 13.3476144,4.3369036 C13.3476144,6.73210932 11.4059165,8.67380721 9.01071081,8.67380721 L9.01071081,8.67380721 Z M10.3711364,7.96532405 L10.3711364,7.96532405 L7.65028522,7.96532405 C9.9171714,5.86173052 12.8663307,4.67380721 16.0214216,4.67380721 L18.0214216,4.67380721 L18.0214216,6.67380721 L18.0214216,15.2424537 L18.0214216,17.2424537 L16.0214216,17.2424537 C13.8885154,17.2424537 11.9073629,18.0404633 10.3711364,19.4660294 L9.01071081,20.7284582 L7.65028522,19.4660294 C6.11405874,18.0404633 4.13290618,17.2424537 2,17.2424537 L0,17.2424537 L0,15.2424537 L0,6.67380721 L0,4.67380721 L2,4.67380721 C5.15509091,4.67380721 8.10425021,5.86173052 10.3711364,7.96532405 L10.3711364,7.96532405 Z" id="Shape" fill="#FFFFFF"></path>
                    <path d="M9.01071081,6.67380721 C10.301347,6.67380721 11.3476144,5.62753982 11.3476144,4.3369036 C11.3476144,3.04626738 10.301347,2 9.01071081,2 C7.72007459,2 6.67380721,3.04626738 6.67380721,4.3369036 C6.67380721,5.62753982 7.72007459,6.67380721 9.01071081,6.67380721 Z M9.01071081,9.43135346 C7.17234664,7.72541383 4.72638754,6.67380721 2,6.67380721 L2,15.2424537 C4.72638754,15.2424537 7.17234664,16.2940604 9.01071081,18 C10.849075,16.2940604 13.2950341,15.2424537 16.0214216,15.2424537 L16.0214216,6.67380721 C13.2950341,6.67380721 10.849075,7.72541383 9.01071081,9.43135346 Z" id="Path" fill="#87C3B9"></path>
                </g>
            </g>
        </g>
    </g>
</svg>