<?xml version="1.0" encoding="UTF-8" standalone="no"?>
<svg width="18px" height="18px" viewBox="0 0 18 18" version="1.1" xmlns="http://www.w3.org/2000/svg" xmlns:xlink="http://www.w3.org/1999/xlink" xmlns:sketch="http://www.bohemiancoding.com/sketch/ns">
    <!-- Generator: bin/sketchtool 1.4 (305) - http://www.bohemiancoding.com/sketch -->
    <title>Shape Copy</title>
    <desc>Created with bin/sketchtool.</desc>
    <defs></defs>
    <g id="Mentor-Groups" stroke="none" stroke-width="1" fill="none" fill-rule="evenodd" sketch:type="MSPage">
        <g id="Group-view---Mentor-Groups-root-3" sketch:type="MSArtboardGroup" transform="translate(-406.000000, -812.000000)" stroke="#FFFFFF" stroke-width="2" fill="#000000" fill-opacity="0.38">
            <g id="Group" sketch:type="MSLayerGroup" transform="translate(380.000000, 766.000000)">
                <g id="Rectangle-177-Copy-2-+-User-Copy-6-+-Laura-Armstrong-10-Copy-Copy-Copy-Copy" transform="translate(0.000000, 26.000000)" sketch:type="MSShapeGroup">
                    <path d="M31.040202,32.959798 C28.8573634,30.7769593 28.8573634,27.2230407 31.040202,25.040202 C33.2230407,22.8573634 36.7769593,22.8573634 38.959798,25.040202 C41.1426366,27.2230407 41.1426366,30.7769593 38.959798,32.959798 C36.7769593,35.1426366 33.2230407,35.1426366 31.040202,32.959798 L31.040202,32.959798 L31.040202,32.959798 Z M39.9497475,24.0502525 C37.2160774,21.3165825 32.7839226,21.3165825 30.0502525,24.0502525 C28.7374979,25.3630072 28,27.1434846 28,29 C28,30.8565154 28.7374979,32.6369928 30.0502525,33.9497475 C31.3630072,35.2625021 33.1434846,36 35,36 C36.8565154,36 38.6369928,35.2625021 39.9497475,33.9497475 C41.2625021,32.6369928 42,30.8565154 42,29 C42,27.1434846 41.2625021,25.3630072 39.9497475,24.0502525 L39.9497475,24.0502525 L39.9497475,24.0502525 Z M37.9698485,27.020101 L36.979899,26.0301515 L35,28.0100505 L33.020101,26.0301515 L32.0301515,27.020101 L34.0100505,29 L32.0301515,30.979899 L33.020101,31.9698485 L35,29.9899495 L36.979899,31.9698485 L37.9698485,30.979899 L35.9899495,29 L37.9698485,27.020101 L37.9698485,27.020101 Z" id="Shape-Copy"></path>
                </g>
            </g>
        </g>
    </g>
</svg>