<?xml version="1.0" encoding="UTF-8" standalone="no"?>
<svg width="32px" height="40px" viewBox="0 0 32 40" version="1.1" xmlns="http://www.w3.org/2000/svg" xmlns:xlink="http://www.w3.org/1999/xlink">
    <defs></defs>
    <g id="Feed" stroke="none" stroke-width="1" fill="none" fill-rule="evenodd">
        <g id="Feed-v3" transform="translate(-390.000000, -5007.000000)">
            <g id="Group" transform="translate(380.000000, 4843.000000)">
                <g id="Group-Copy" transform="translate(10.000000, 137.000000)">
                    <g id="2015/16-Electronic-C-+-13,2MB-+-Shape-Copy-15-+-pdf-copy" transform="translate(0.000000, 27.000000)">
                        <g id="pdf-copy">
                            <rect id="Rectangle-path" fill="#D9DEE2" x="1.87368421" y="0.313043478" width="29.2502924" height="39.4086957"></rect>
                            <rect id="Rectangle-path" fill="#F4F4F4" x="3.40038986" y="0.313043478" width="27.7929825" height="39.4086957"></rect>
                            <rect id="Rectangle-path" fill="#EE3E24" x="0" y="4.52173913" width="19.7083821" height="11.5130435"></rect>
                            <path d="M15.2323587,28.8 C15.5793372,28.1043478 15.9957115,27.3043478 16.3079922,26.5043478 L16.3079922,26.5043478 L16.4467836,26.1913043 C16.0304094,24.5565217 15.7528265,23.2695652 15.9957115,22.4347826 L15.9957115,22.4347826 C16.0651072,22.226087 16.3079922,22.0869565 16.585575,22.0869565 L16.585575,22.0869565 L16.7590643,22.0869565 L16.7937622,22.0869565 C17.1754386,22.0869565 17.3489279,22.5391304 17.3489279,22.7478261 L17.3489279,22.7478261 C17.3836257,23.0608696 17.2448343,23.5826087 17.2448343,23.5826087 L17.2448343,23.5826087 C17.2448343,23.373913 17.2448343,23.026087 17.1060429,22.7478261 L17.1060429,22.7478261 C16.9672515,22.4 16.7937622,22.226087 16.6896686,22.1913043 L16.6896686,22.1913043 C16.6202729,22.226087 16.5508772,22.3304348 16.5508772,22.5043478 L16.5508772,22.5043478 C16.5161793,22.7478261 16.4814815,23.0608696 16.4814815,23.2347826 L16.4814815,23.2347826 C16.4814815,23.7913043 16.585575,24.5565217 16.82846,25.3217391 L16.82846,25.3217391 C16.8631579,25.2173913 16.8978558,25.0782609 16.9325536,24.973913 L16.9325536,24.973913 C16.9672515,24.8 17.2795322,23.6869565 17.2795322,23.6869565 L17.2795322,23.6869565 C17.2795322,23.6869565 17.2101365,25.1826087 17.1060429,25.6347826 L17.1060429,25.6347826 C17.071345,25.7391304 17.071345,25.8086957 17.0366472,25.9130435 L17.0366472,25.9130435 C17.3836257,26.9217391 17.9734893,27.826087 18.6674464,28.4869565 L18.6674464,28.4869565 C18.9450292,28.7304348 19.2920078,28.9391304 19.6042885,29.1478261 L19.6042885,29.1478261 C20.3329435,29.0434783 20.9922027,29.0086957 21.5473684,29.0086957 L21.5473684,29.0086957 C22.2760234,29.0086957 22.8311891,29.1130435 23.0393762,29.3565217 L23.0393762,29.3565217 C23.1434698,29.4608696 23.1781676,29.6 23.2128655,29.7391304 L23.2128655,29.7391304 C23.2128655,29.8086957 23.1781676,29.9130435 23.1781676,29.9478261 L23.1781676,29.9478261 C23.1781676,29.9130435 23.1781676,29.7043478 22.5883041,29.5304348 L22.5883041,29.5304348 C22.137232,29.3913043 21.2697856,29.3913043 20.2288499,29.4956522 L20.2288499,29.4956522 C21.4432749,30.0869565 22.5883041,30.3652174 22.9699805,30.1913043 L22.9699805,30.1913043 C23.0740741,30.1565217 23.1781676,29.9826087 23.1781676,29.9826087 L23.1781676,29.9826087 C23.1781676,29.9826087 23.1087719,30.2956522 23.0740741,30.3652174 L23.0740741,30.3652174 C23.0046784,30.4347826 22.9005848,30.5391304 22.7964912,30.573913 L22.7964912,30.573913 C22.2066277,30.7478261 20.679922,30.3652174 19.3614035,29.6 L19.3614035,29.6 C17.8693957,29.8086957 16.2385965,30.226087 14.9547758,30.6434783 L14.9547758,30.6434783 C13.6709552,32.9043478 12.6994152,33.9478261 11.9360624,33.5304348 L11.9360624,33.5304348 L11.6584795,33.3913043 C11.554386,33.3217391 11.5196881,33.1478261 11.554386,33.0434783 L11.554386,33.0434783 C11.6584795,32.5913043 12.2136452,31.9304348 13.3239766,31.2347826 L13.3239766,31.2347826 C13.4280702,31.1652174 13.9832359,30.8869565 13.9832359,30.8869565 L13.9832359,30.8869565 C13.9832359,30.8869565 13.5668616,31.2695652 13.4974659,31.3391304 L13.4974659,31.3391304 C12.5953216,32.0695652 11.9360624,33.0086957 11.9360624,33.3565217 L11.9360624,33.3565217 L11.9360624,33.3913043 C12.6300195,33.2521739 13.7750487,31.7217391 15.2323587,28.8 M15.7181287,29.0434783 C15.4752437,29.4956522 15.2323587,29.9478261 15.0241715,30.3304348 L15.0241715,30.3304348 C16.2385965,29.8086957 17.5918129,29.4956522 18.8409357,29.2521739 L18.8409357,29.2521739 C18.6674464,29.1478261 18.4939571,29.0086957 18.3551657,28.8695652 L18.3551657,28.8695652 C17.6612086,28.2782609 17.1407407,27.5478261 16.7590643,26.7826087 L16.7590643,26.7826087 C16.4814815,27.4434783 16.1692008,28.1391304 15.7181287,29.0434783" id="Shape" fill="#EE3E24"></path>
                            <g id="Group" transform="translate(3.816764, 7.304348)" fill="#F1F2F2">
                                <path d="M0.0346978558,0.27826087 L1.97777778,0.27826087 C2.49824561,0.27826087 2.87992203,0.417391304 3.19220273,0.730434783 C3.50448343,1.04347826 3.64327485,1.42608696 3.64327485,1.91304348 C3.64327485,2.4 3.50448343,2.7826087 3.19220273,3.09565217 C2.87992203,3.40869565 2.49824561,3.54782609 1.97777778,3.54782609 L0.832748538,3.54782609 L0.832748538,5.42608696 L0.0693957115,5.42608696 L0.0693957115,0.27826087 L0.0346978558,0.27826087 Z M0.798050682,0.939130435 L0.798050682,2.88695652 L1.52670565,2.88695652 C1.73489279,2.88695652 1.94307992,2.88695652 2.08187135,2.85217391 C2.22066277,2.8173913 2.35945419,2.7826087 2.49824561,2.71304348 C2.60233918,2.64347826 2.70643275,2.53913043 2.77582846,2.4 C2.84522417,2.26086957 2.84522417,2.12173913 2.84522417,1.91304348 C2.84522417,1.6 2.77582846,1.35652174 2.60233918,1.1826087 C2.4288499,1.00869565 2.18596491,0.939130435 1.87368421,0.939130435 L0.798050682,0.939130435 L0.798050682,0.939130435 Z" id="Shape"></path>
                                <path d="M4.40662768,0.27826087 L6.10682261,0.27826087 C6.41910331,0.27826087 6.73138402,0.313043478 6.97426901,0.417391304 C7.217154,0.486956522 7.46003899,0.626086957 7.63352827,0.765217391 C7.80701754,0.904347826 7.94580897,1.07826087 8.04990253,1.32173913 C8.1539961,1.53043478 8.25808967,1.77391304 8.29278752,2.0173913 C8.32748538,2.26086957 8.36218324,2.53913043 8.36218324,2.85217391 C8.36218324,3.16521739 8.32748538,3.44347826 8.29278752,3.68695652 C8.25808967,3.93043478 8.1539961,4.17391304 8.04990253,4.3826087 C7.94580897,4.59130435 7.80701754,4.8 7.63352827,4.93913043 C7.46003899,5.07826087 7.25185185,5.2173913 6.97426901,5.28695652 C6.73138402,5.35652174 6.41910331,5.42608696 6.10682261,5.42608696 L4.40662768,5.42608696 L4.40662768,0.27826087 L4.40662768,0.27826087 Z M5.16998051,0.939130435 L5.16998051,4.73043478 L6.0374269,4.73043478 C6.55789474,4.73043478 6.93957115,4.55652174 7.18245614,4.24347826 C7.42534113,3.93043478 7.56413255,3.44347826 7.56413255,2.8173913 C7.56413255,2.50434783 7.5294347,2.26086957 7.49473684,2.0173913 C7.42534113,1.77391304 7.35594542,1.6 7.217154,1.42608696 C7.11306043,1.25217391 6.93957115,1.11304348 6.73138402,1.04347826 C6.52319688,0.939130435 6.28031189,0.904347826 6.00272904,0.904347826 L5.16998051,0.904347826 L5.16998051,0.939130435 Z" id="Shape"></path>
                                <path d="M10.0623782,5.42608696 L9.29902534,5.42608696 L9.29902534,0.27826087 L12.4218324,0.27826087 L12.4218324,0.939130435 L10.0623782,0.939130435 L10.0623782,2.57391304 L12.2136452,2.57391304 L12.2136452,3.23478261 L10.0623782,3.23478261 L10.0623782,5.42608696 L10.0623782,5.42608696 Z" id="Shape"></path>
                            </g>
                        </g>
                    </g>
                </g>
            </g>
        </g>
    </g>
</svg>