<?xml version="1.0" encoding="UTF-8" standalone="no"?>
<svg width="14px" height="14px" viewBox="0 0 14 14" version="1.1" xmlns="http://www.w3.org/2000/svg" xmlns:xlink="http://www.w3.org/1999/xlink">
    <defs></defs>
    <g id="New-post" stroke="none" stroke-width="1" fill="none" fill-rule="evenodd">
        <g id="New-post-:-option-2" transform="translate(-573.000000, -1575.000000)" fill="#A8A8A8">
            <g id="Group-Copy-3" transform="translate(380.000000, 1388.000000)">
                <g id="dropdown-base-copy" transform="translate(114.000000, 125.000000)">
                    <path d="M91.4444444,62 L80.5555556,62 C79.7,62 79,62.7 79,63.5555556 L79,74.4444444 C79,75.3 79.7,76 80.5555556,76 L91.4444444,76 C92.3,76 93,75.3 93,74.4444444 L93,63.5555556 C93,62.7 92.3,62 91.4444444,62 L91.4444444,62 Z M89.8888889,69.7777778 L86.7777778,69.7777778 L86.7777778,72.8888889 L85.2222222,72.8888889 L85.2222222,69.7777778 L82.1111111,69.7777778 L82.1111111,68.2222222 L85.2222222,68.2222222 L85.2222222,65.1111111 L86.7777778,65.1111111 L86.7777778,68.2222222 L89.8888889,68.2222222 L89.8888889,69.7777778 L89.8888889,69.7777778 Z" id="Shape-Copy-10"></path>
                </g>
            </g>
        </g>
    </g>
</svg>