<?xml version="1.0" encoding="UTF-8" standalone="no"?>
<svg width="26px" height="27px" viewBox="4 1 18 19" version="1.1" xmlns="http://www.w3.org/2000/svg" xmlns:xlink="http://www.w3.org/1999/xlink">
    <defs>
        
    </defs>
    <g id="RHS-[ok]" stroke="none" stroke-width="1" >
        <g id="RHS---Iddle" transform="translate(-26.000000, -138.000000)" >
            <g id="Navbar-Copy" transform="translate(0.000000, 64.000000)">
                <g id="Nav" transform="translate(20.000000, 68.000000)">
                    <g id="li">
                        <g id="Icon" transform="translate(3.000000, 0.000000)">
                            <path d="M24.6720564,17.046 L23.0000564,17.046 L23.0000564,23.046 C23.0000564,23.491 22.8060564,24.046 22.0000564,24.046 L18.0000564,24.046 L18.0000564,18.046 L14.0000564,18.046 L14.0000564,24.046 L10.0000564,24.046 C9.19405639,24.046 9.00005639,23.491 9.00005639,23.046 L9.00005639,17.046 L7.32805639,17.046 C6.73005639,17.046 6.85805639,16.722 7.26805639,16.298 L15.2920564,8.266 C15.4870564,8.064 15.7430564,7.964 16.0000564,7.954 C16.2570564,7.964 16.5130564,8.063 16.7080564,8.266 L24.7310564,16.297 C25.1420564,16.722 25.2700564,17.046 24.6720564,17.046 L24.6720564,17.046 Z" id="Shape"></path>
                        </g>
                    </g>
                </g>
            </g>
        </g>
    </g>
</svg>