<?xml version="1.0" encoding="UTF-8" standalone="no"?>
<svg width="20px" height="20px" viewBox="0 0 20 20" version="1.1" xmlns="http://www.w3.org/2000/svg" xmlns:xlink="http://www.w3.org/1999/xlink" xmlns:sketch="http://www.bohemiancoding.com/sketch/ns">
    <!-- Generator: Sketch 3.3.2 (12043) - http://www.bohemiancoding.com/sketch -->
    <title>schedule</title>
    <desc>Created with Sketch.</desc>
    <defs></defs>
    <g id="Feed" stroke="none" stroke-width="1" sketch:type="MSPage">
        <g id="Feed-Iddle-v2---attach" sketch:type="MSArtboardGroup" transform="translate(-699.000000, -285.000000)">
            <g id="New-Post-block" sketch:type="MSLayerGroup" transform="translate(365.000000, 213.000000)">
                <g id="Post-bottom" transform="translate(15.000000, 64.000000)" sketch:type="MSShapeGroup">
                    <g id="Post-types-buttons" transform="translate(0.000000, 4.000000)">
                        <g id="Post-type-button-2" transform="translate(315.000000, 0.000000)">
                            <g id="Shape-+-Rectangle-43">
                                <g id="schedule" transform="translate(4.000000, 4.000000)">
                                    <path d="M10,0 C4.5,0 0,4.5 0,10 C0,15.5 4.5,20 10,20 C15.5,20 20,15.5 20,10 C20,4.5 15.5,0 10,0 L10,0 Z M10,18 C5.6,18 2,14.4 2,10 C2,5.6 5.6,2 10,2 C14.4,2 18,5.6 18,10 C18,14.4 14.4,18 10,18 L10,18 Z" id="Shape"></path>
                                    <path d="M10.5,5 L9,5 L9,11 L14.2,14.2 L15,12.9 L10.5,10.2 L10.5,5 Z" id="Shape"></path>
                                </g>
                            </g>
                        </g>
                    </g>
                </g>
            </g>
        </g>
    </g>
</svg>