<?xml version="1.0" encoding="UTF-8" standalone="no"?>
<svg width="19px" height="16px" viewBox="0 0 19 16" version="1.1" xmlns="http://www.w3.org/2000/svg" xmlns:xlink="http://www.w3.org/1999/xlink">
    <defs></defs>
    <g id="Custom-Groups" stroke="none" stroke-width="1" fill-rule="evenodd">
        <g id="Group-view---Custom-Groups-root-2" transform="translate(-916.000000, -596.000000)">
            <g id="Group-filter" transform="translate(896.000000, 451.000000)">
                <g id="Dropdown-menu" transform="translate(0.000000, 16.000000)">
                    <g id="option-copy-2" transform="translate(0.000000, 119.000000)">
                        <g id="Post-type-button-4" transform="translate(15.000000, 4.000000)">
                            <g id="Shape-+-Rectangle-43">
                                <path d="M8.84615385,20.8461538 C7.35923337,20.8461538 6.15384615,19.6407666 6.15384615,18.1538462 C6.15384615,16.6669257 7.35923337,15.4615385 8.84615385,15.4615385 C9.56019824,15.4615385 10.2449972,15.7451915 10.7499029,16.2500971 C11.2548085,16.7550028 11.5384615,17.4398018 11.5384615,18.1538462 C11.5384615,19.6407666 10.3330743,20.8461538 8.84615385,20.8461538 L8.84615385,20.8461538 Z M8.84615385,14.3076923 C6.72198173,14.3076923 5,16.029674 5,18.1538462 C5,20.2780183 6.72198173,22 8.84615385,22 C10.970326,22 12.6923077,20.2780183 12.6923077,18.1538462 C12.6923077,16.029674 10.970326,14.3076923 8.84615385,14.3076923 L8.84615385,14.3076923 Z M16.3846154,12.7692308 L19.6153846,12.7692308 L19.6153846,11.3846154 L17.1538462,11.3846154 L15.6615385,8.86923077 C15.4384615,8.48461538 15,8.23076923 14.5384615,8.23076923 C14.1769231,8.23076923 13.8461538,8.37692308 13.6153846,8.61538462 L10.7692308,11.4538462 C10.5307692,11.6923077 10.3846154,12 10.3846154,12.3846154 C10.3846154,12.8692308 10.6384615,13.2769231 11.0384615,13.5153846 L13.6153846,15.0769231 L13.6153846,18.9230769 L15,18.9230769 L15,13.9230769 L13.2692308,12.6538462 L15.0538462,10.8461538 L16.3846154,12.7692308 Z M19.6153846,20.8461538 C18.1284641,20.8461538 16.9230769,19.6407666 16.9230769,18.1538462 C16.9230769,16.6669257 18.1284641,15.4615385 19.6153846,15.4615385 C21.1023051,15.4615385 22.3076923,16.6669257 22.3076923,18.1538462 C22.3076923,19.6407666 21.1023051,20.8461538 19.6153846,20.8461538 L19.6153846,20.8461538 Z M19.6153846,14.3076923 C17.4912125,14.3076923 15.7692308,16.029674 15.7692308,18.1538462 C15.7692308,20.2780183 17.4912125,22 19.6153846,22 C20.635448,22 21.6137323,21.5947814 22.3350261,20.8734876 C23.0563198,20.1521939 23.4615385,19.1739096 23.4615385,18.1538462 C23.4615385,17.1337827 23.0563198,16.1554985 22.3350261,15.4342047 C21.6137323,14.7129109 20.635448,14.3076923 19.6153846,14.3076923 L19.6153846,14.3076923 Z M17.3076923,8.76923077 C18.0769231,8.76923077 18.6923077,8.15384615 18.6923077,7.38461538 C18.6923077,6.61538462 18.0769231,6 17.3076923,6 C16.5384615,6 15.9230769,6.61538462 15.9230769,7.38461538 C15.9230769,8.15384615 16.5384615,8.76923077 17.3076923,8.76923077 L17.3076923,8.76923077 Z" id="Shape-Copy-10"></path>
                            </g>
                        </g>
                    </g>
                </g>
            </g>
        </g>
    </g>
</svg>
