<?xml version="1.0" encoding="UTF-8" standalone="no"?>
<svg width="36px" height="36px" viewBox="0 0 36 36" version="1.1" xmlns="http://www.w3.org/2000/svg" xmlns:xlink="http://www.w3.org/1999/xlink">
    <defs></defs>
    <g id="First-steps-for-staff" stroke="none" stroke-width="1" fill-rule="evenodd">
        <g id="First-Steps-for-Staff-1" transform="translate(-712.000000, -454.000000)" >
            <g id="Logo-with-shadow-+-You-can-always-custo-+-Bring-some-individua-+-Group-5-+-Group-4-+-Group-3-+-Group-2-+-Group" transform="translate(381.000000, 147.000000)">
                <g id="Group-3-+-Group-2-+-Group" transform="translate(14.000000, 270.000000)">
                    <g id="Group-2" transform="translate(230.000000, 0.000000)">
                        <g id="User-Copy-3" transform="translate(65.000000, 15.000000)">
                            <path d="M40.0009375,22 C30.0583303,22 22,30.0583303 22,39.9990625 C22,49.9416697 30.0583303,58 40.0009375,58 C49.9397948,58 58,49.9416697 58,39.9990625 C58,30.0583303 49.9397948,22 40.0009375,22 L40.0009375,22 Z M41.68085,28.4984115 C43.4357586,28.4984115 43.9513567,29.5164835 43.9513567,30.6807979 C43.9513567,32.1338472 42.7889172,33.4781522 40.8033957,33.4781522 C39.1422322,33.4781522 38.3510234,32.6438206 38.3997708,31.2620176 C38.3997708,30.0977032 39.3728452,28.4984115 41.68085,28.4984115 L41.68085,28.4984115 Z M37.1848341,50.7797511 C35.9848966,50.7797511 35.1093172,50.050414 35.9473986,46.8537055 L37.321702,41.1821259 C37.5598146,40.2746732 37.5991875,39.9109421 37.321702,39.9109421 C36.9635956,39.9109421 35.4055518,40.5371595 34.4868496,41.1558773 L33.8887558,40.1753034 C36.8042289,37.7398052 40.1565543,36.3111296 41.5908546,36.3111296 C42.7907921,36.3111296 42.9895318,37.7285558 42.3914379,39.9109421 L40.81652,45.8731316 C40.5371595,46.9268267 40.6571533,47.2905578 40.9365137,47.2905578 C41.296495,47.2905578 42.4739336,46.8555804 43.6326233,45.942503 L44.311338,46.8537055 C41.4746107,49.6885579 38.3828967,50.7797511 37.1848341,50.7797511 L37.1848341,50.7797511 Z" id="Shape-Copy"></path>
                        </g>
                    </g>
                </g>
            </g>
        </g>
    </g>
</svg>
