<?xml version="1.0" encoding="UTF-8" standalone="no"?>
<svg width="20px" height="20px" viewBox="0 0 20 20" version="1.1" xmlns="http://www.w3.org/2000/svg" xmlns:xlink="http://www.w3.org/1999/xlink">
    <defs></defs>
    <g id="RHS-[ok]" stroke="none" stroke-width="1"  >
        <g id="RHS---Iddle" transform="translate(-29.000000, -298.000000)">
            <g id="Navbar-Copy" transform="translate(0.000000, 64.000000)">
                <g id="Nav" transform="translate(20.000000, 68.000000)">
                    <g id="li-6" transform="translate(0.000000, 160.000000)">
                        <g id="Icon" transform="translate(3.000000, 0.000000)">
                            <g id="info-with-circle" transform="translate(6.000000, 6.000000)" >
                                <path d="M10,0.4 C4.697,0.4 0.399,4.698 0.399,10 C0.399,15.303 4.697,19.601 10,19.601 C15.301,19.601 19.6,15.303 19.6,10 C19.6,4.698 15.301,0.4 10,0.4 L10,0.4 Z M10.896,3.866 C11.832,3.866 12.107,4.409 12.107,5.03 C12.107,5.805 11.487,6.522 10.428,6.522 C9.542,6.522 9.12,6.077 9.146,5.34 C9.146,4.719 9.665,3.866 10.896,3.866 L10.896,3.866 Z M8.498,15.75 C7.858,15.75 7.391,15.361 7.838,13.656 L8.571,10.631 C8.698,10.147 8.719,9.953 8.571,9.953 C8.38,9.953 7.549,10.287 7.059,10.617 L6.74,10.094 C8.295,8.795 10.083,8.033 10.848,8.033 C11.488,8.033 11.594,8.789 11.275,9.953 L10.435,13.133 C10.286,13.695 10.35,13.889 10.499,13.889 C10.691,13.889 11.319,13.657 11.937,13.17 L12.299,13.656 C10.786,15.168 9.137,15.75 8.498,15.75 L8.498,15.75 Z" id="Shape"></path>
                            </g>
                        </g>
                    </g>
                </g>
            </g>
        </g>
    </g>
</svg>