<?xml version="1.0" encoding="UTF-8" standalone="no"?>
<svg width="20px" height="19px" viewBox="0 0 20 19" version="1.1" xmlns="http://www.w3.org/2000/svg" xmlns:xlink="http://www.w3.org/1999/xlink">
    <defs></defs>
    <g id="Study-timer-NEW" stroke-width="1">
        <g id="Study-timer---1" transform="translate(-544.000000, -141.000000)">
            <g id="tab-base-+-Tab--Copy-+-Tab-active-Copy" transform="translate(380.000000, 128.000000)">
                <g id="Tab-active-Copy-2" transform="translate(159.000000, 1.000000)">
                    <g id="icon-+-FEED" transform="translate(0.000000, 7.000000)">
                        <g id="icon">
                            <g id="list" transform="translate(5.000000, 5.000000)">
                                <path d="M9,5 L9,10.11 L13.71,12.9 L14.5,11.62 L10.5,9.25 L10.5,5 L9,5 Z M10.5,0 C6.97,0 3.91,1.92 2.27,4.77 L0,2.5 L0,9 L6.5,9 L3.75,6.25 C4.96,3.73 7.5,2 10.5,2 C14.6421356,2 18,5.35786438 18,9.5 C18,13.6421356 14.6421356,17 10.5,17 C7.23,17 4.47,14.91 3.44,12 L1.34,12 C2.44,16.03 6.11,19 10.5,19 C15.74,19 20,14.75 20,9.5 C20,6.98044335 18.99911,4.56408117 17.2175144,2.78248558 C15.4359188,1.00088998 13.0195567,-6.66133815e-16 10.5,0 L10.5,0 Z" id="Shape-Copy"></path>
                            </g>
                        </g>
                    </g>
                </g>
            </g>
        </g>
    </g>
</svg>