<?xml version="1.0" encoding="UTF-8" standalone="no"?>
<svg width="20px" height="13px" viewBox="0 0 20 13" version="1.1" xmlns="http://www.w3.org/2000/svg" xmlns:xlink="http://www.w3.org/1999/xlink">
    <defs></defs>
    <g id="RHS-[ok]" stroke="none" stroke-width="1">
        <g id="RHS---Iddle" transform="translate(-29.000000, -270.000000)">
            <g id="Navbar-Copy" transform="translate(0.000000, 64.000000)">
                <g id="Nav" transform="translate(20.000000, 68.000000)">
                    <g id="li-5" transform="translate(0.000000, 128.000000)">
                        <g id="Icon" transform="translate(3.000000, 0.000000)">
                            <path d="M19.6363636,15.4545455 C21.1818182,15.4545455 22.3636364,14.2727273 22.3636364,12.7272727 C22.3636364,11.1818182 21.1818182,10 19.6363636,10 C18.0909091,10 16.9090909,11.1818182 16.9090909,12.7272727 C16.9090909,14.2727273 18.0909091,15.4545455 19.6363636,15.4545455 L19.6363636,15.4545455 Z M12.3636364,15.4545455 C13.9090909,15.4545455 15.0909091,14.2727273 15.0909091,12.7272727 C15.0909091,11.1818182 13.9090909,10 12.3636364,10 C10.8181818,10 9.63636364,11.1818182 9.63636364,12.7272727 C9.63636364,14.2727273 10.8181818,15.4545455 12.3636364,15.4545455 L12.3636364,15.4545455 Z M12.3636364,17.2727273 C10.2727273,17.2727273 6,18.3636364 6,20.4545455 L6,22.7272727 L18.7272727,22.7272727 L18.7272727,20.4545455 C18.7272727,18.3636364 14.4545455,17.2727273 12.3636364,17.2727273 L12.3636364,17.2727273 Z M19.6363636,17.2727273 C19.3636364,17.2727273 19.0909091,17.2727273 18.7272727,17.3636364 C19.8181818,18.0909091 20.5454545,19.1818182 20.5454545,20.4545455 L20.5454545,22.7272727 L26,22.7272727 L26,20.4545455 C26,18.3636364 21.7272727,17.2727273 19.6363636,17.2727273 L19.6363636,17.2727273 Z" id="Shape"></path>
                        </g>
                    </g>
                </g>
            </g>
        </g>
    </g>
</svg>