<?xml version="1.0" encoding="UTF-8" standalone="no"?>
<svg width="14px" height="14px" viewBox="0 0 14 14" version="1.1" xmlns="http://www.w3.org/2000/svg" xmlns:xlink="http://www.w3.org/1999/xlink">
    <defs></defs>
    <g id="Custom-Groups" stroke="none" stroke-width="1" fill-rule="evenodd">
        <g id="Group-view---Custom-Groups-root-2" transform="translate(-918.000000, -632.000000)">
            <g id="Group-filter" transform="translate(896.000000, 451.000000)">
                <g id="Dropdown-menu" transform="translate(0.000000, 16.000000)">
                    <g id="option-copy-3" transform="translate(0.000000, 154.000000)">
                        <g id="Post-type-button-4" transform="translate(15.000000, 4.000000)">
                            <g id="Shape-+-Rectangle-43">
                                <path d="M10,13 C11.6568542,13 13,11.6568542 13,10 C13,8.34314575 11.6568542,7 10,7 C8.34314575,7 7,8.34314575 7,10 C7,11.6568542 8.34314575,13 10,13 Z M18,13 C19.6568542,13 21,11.6568542 21,10 C21,8.34314575 19.6568542,7 18,7 C16.3431458,7 15,8.34314575 15,10 C15,11.6568542 16.3431458,13 18,13 Z M18,21 C19.6568542,21 21,19.6568542 21,18 C21,16.3431458 19.6568542,15 18,15 C16.3431458,15 15,16.3431458 15,18 C15,19.6568542 16.3431458,21 18,21 Z M10,21 C11.6568542,21 13,19.6568542 13,18 C13,16.3431458 11.6568542,15 10,15 C8.34314575,15 7,16.3431458 7,18 C7,19.6568542 8.34314575,21 10,21 Z" id="Oval-5-Copy-4"></path>
                            </g>
                        </g>
                    </g>
                </g>
            </g>
        </g>
    </g>
</svg>
