<?xml version="1.0" encoding="UTF-8" standalone="no"?>
<svg width="14px" height="19px" viewBox="0 0 14 19" version="1.1" xmlns="http://www.w3.org/2000/svg" xmlns:xlink="http://www.w3.org/1999/xlink">
    <defs></defs>
    <g id="Study-timer" stroke="none" stroke-width="1" fill="none" fill-rule="evenodd">
        <g id="Study-timer---2" transform="translate(-395.000000, -253.000000)" fill="#FFFFFF">
            <g id="Group-+-Group-Copy" transform="translate(331.000000, 203.000000)">
                <g id="Group">
                    <g id="Clubs-&amp;-Societies-+-Icon-Copy-4-+-Group" transform="translate(0.000000, 24.000000)">
                        <g id="subject-item">
                            <g id="Vegetarian-Associati-+-Affordable,-nutritio-+-Icon-Copy" transform="translate(50.000000, 15.000000)">
                                <g id="Icon-Copy">
                                    <path d="M28.0003797,16.4503546 L28.0003797,26.8013546 C28.0003797,27.3233546 27.5483797,27.5723546 27.0003797,27.9613546 C26.5603797,28.2743546 26.0003797,27.8863546 26.0003797,27.3743546 L26.0003797,17.2603546 C26.0003797,17.0493546 25.9263797,16.8483546 25.6863797,16.7253546 C25.4463797,16.6023546 17.9483797,12.6603546 17.9483797,12.6603546 C17.8273797,12.6153546 17.2993797,12.2823546 16.5953797,12.6443546 C15.9263797,12.9883546 15.5623797,13.3623546 15.4693797,13.5383546 L23.6493797,18.0203546 C23.8663797,18.1343546 24.0003797,18.3103546 24.0003797,18.5363546 L24.0003797,29.3383546 C24.0003797,29.5683546 23.8583797,29.8143546 23.6313797,29.9233546 C23.5273797,29.9753546 23.4123797,30.0003546 23.2983797,30.0003546 C23.1633797,30.0003546 23.0273797,29.9673546 22.9123797,29.8963546 C22.6973797,29.7653546 15.1383797,25.1303546 14.6393797,24.8293546 C14.3993797,24.6853546 14.1183797,24.3903546 14.1123797,24.1713546 L14.0003797,13.8853546 C14.0003797,13.6873546 13.9773797,13.3383546 14.2893797,12.8533546 C14.9863797,11.7693546 17.4183797,10.5363546 18.6493797,11.1753546 L27.6483797,15.7303546 C27.8653797,15.8423546 28.0003797,16.0663546 28.0003797,16.4503546 L28.0003797,16.4503546 Z" id="Shape"></path>
                                </g>
                            </g>
                        </g>
                    </g>
                </g>
            </g>
        </g>
    </g>
</svg>