<?xml version="1.0" encoding="UTF-8" standalone="no"?>
<svg width="12px" height="17px" viewBox="0 0 12 17" version="1.1" xmlns="http://www.w3.org/2000/svg" xmlns:xlink="http://www.w3.org/1999/xlink">
    <defs></defs>
    <g id="Subjects" stroke="none" stroke-width="1" fill="none" fill-rule="evenodd">
        <g id="Group-view---Subjects-root-3-start2" transform="translate(-407.000000, -269.000000)" fill="#3A91E0">
            <g id="dropdown-base-copy-+-search-suggestions" transform="translate(380.000000, 227.000000)">
                <g id="Rectangle-177-Copy-2-+-User-Copy-6-+-Laura-Armstrong-10-Copy" transform="translate(15.000000, 33.000000)">
                    <g id="User-Copy-6">
                        <g id="Icon-Copy">
                            <path d="M24.0003255,14.100304 L24.0003255,22.9725897 C24.0003255,23.4200182 23.6128969,23.6334468 23.1431826,23.9668754 C22.7660398,24.2351611 22.2860398,23.9025897 22.2860398,23.4637325 L22.2860398,14.7945897 C22.2860398,14.6137325 22.2226112,14.4414468 22.0168969,14.3360182 C21.8111826,14.2305897 15.3843255,10.8517325 15.3843255,10.8517325 C15.2806112,10.8131611 14.8280398,10.5277325 14.2246112,10.8380182 C13.6511826,11.1328754 13.3391826,11.4534468 13.2594683,11.604304 L20.2708969,15.4460182 C20.4568969,15.5437325 20.5717541,15.6945897 20.5717541,15.888304 L20.5717541,25.1471611 C20.5717541,25.344304 20.4500398,25.5551611 20.2554683,25.6485897 C20.1663255,25.6931611 20.0677541,25.7145897 19.9700398,25.7145897 C19.8543255,25.7145897 19.7377541,25.686304 19.6391826,25.6254468 C19.4548969,25.5131611 12.9757541,21.540304 12.5480398,21.282304 C12.3423255,21.1588754 12.1014683,20.9060182 12.0963255,20.718304 L12.0003255,11.9017325 C12.0003255,11.7320182 11.9806112,11.4328754 12.2480398,11.0171611 C12.8454683,10.0880182 14.9300398,9.0311611 15.9851826,9.57887539 L23.6986112,13.4831611 C23.8846112,13.5791611 24.0003255,13.7711611 24.0003255,14.100304 L24.0003255,14.100304 Z" id="Shape"></path>
                        </g>
                    </g>
                </g>
            </g>
        </g>
    </g>
</svg>