<?xml version="1.0" encoding="UTF-8" standalone="no"?>
<svg width="14px" height="20px" viewBox="-2 -1 18 24" version="1.1" xmlns="http://www.w3.org/2000/svg" xmlns:xlink="http://www.w3.org/1999/xlink">
    <defs></defs>
    <g id="Navigation-[ok]" stroke="none" stroke-width="1"  fill-rule="evenodd">
        <g id="Nav-2---1-branded" transform="translate(-33.000000, -235.000000)" >
            <g id="Navbar---branded---lv1" transform="translate(0.000000, 64.000000)">
                <g id="Nav" transform="translate(20.000000, 69.000000)">
                    <g id="li-4" transform="translate(0.000000, 96.000000)">
                        <g id="Icon" transform="translate(3.000000, 0.000000)">
                            <g id="book" transform="translate(9.000000, 6.000000)">
                                <path d="M15,5.95 L15,16.301 C15,16.823 14.548,17.072 14,17.461 C13.56,17.774 13,17.386 13,16.874 L13,6.76 C13,6.549 12.926,6.348 12.686,6.225 C12.446,6.102 4.948,2.16 4.948,2.16 C4.827,2.115 4.299,1.782 3.595,2.144 C2.926,2.488 2.562,2.862 2.469,3.038 L10.649,7.52 C10.866,7.634 11,7.81 11,8.036 L11,18.838 C11,19.068 10.858,19.314 10.631,19.423 C10.527,19.475 10.412,19.5 10.298,19.5 C10.163,19.5 10.027,19.467 9.912,19.396 C9.697,19.265 2.138,14.63 1.639,14.329 C1.399,14.185 1.118,13.89 1.112,13.671 L1,3.385 C1,3.187 0.977,2.838 1.289,2.353 C1.986,1.269 4.418,0.036 5.649,0.675 L14.648,5.23 C14.865,5.342 15,5.566 15,5.95 L15,5.95 Z" id="Shape"></path>
                            </g>
                        </g>
                    </g>
                </g>
            </g>
        </g>
    </g>
</svg>