<?xml version="1.0" encoding="UTF-8" standalone="no"?>
<svg width="14px" height="20px" viewBox="0 0 14 20" version="1.1" xmlns="http://www.w3.org/2000/svg" xmlns:xlink="http://www.w3.org/1999/xlink" xmlns:sketch="http://www.bohemiancoding.com/sketch/ns">
    <!-- Generator: bin/sketchtool 1.4 (305) - http://www.bohemiancoding.com/sketch -->
    <title>info-outline</title>
    <desc>Created with bin/sketchtool.</desc>
    <defs></defs>
    <g id="Clubs-&amp;-Societes" stroke="none" stroke-width="1" fill-rule="evenodd">
        <g id="Group-view---Clubs-root-1" sketch:type="MSArtboardGroup" transform="translate(-515.000000, -141.000000)">
            <g id="Top" sketch:type="MSLayerGroup" transform="translate(380.000000, 89.000000)">
                <g id="Feed-Tabs" transform="translate(0.000000, 39.000000)" sketch:type="MSShapeGroup">
                    <g id="Tab--Copy" transform="translate(127.000000, 1.000000)">
                        <g id="icon-+-FEED-Copy" transform="translate(0.000000, 7.000000)">
                            <g id="icon">
                                <g id="list" transform="translate(8.000000, 5.000000)">
                                    <g id="info-outline">
                                        <path d="M7,8.8817842e-16 C10.8659932,1.33226763e-15 14,3.13400675 14,7 C14,9.38 12.81,11.47 11,12.74 L11,15 C11,15.5522847 10.5522847,16 10,16 L4,16 C3.44771525,16 3,15.5522847 3,15 L3,12.74 C1.19,11.47 0,9.38 0,7 C-1.77635684e-15,3.13400675 3.13400675,8.8817842e-16 7,0 L7,8.8817842e-16 Z M4,19 L4,18 L10,18 L10,19 C10,19.5522847 9.55228475,20 9,20 L5,20 C4.44771525,20 4,19.5522847 4,19 L4,19 Z M7,2 C4.23857625,2 2,4.23857625 2,7 C2,9.05 3.23,10.81 5,11.58 L5,14 L9,14 L9,11.58 C10.77,10.81 12,9.05 12,7 C12,4.23857625 9.76142375,2 7,2 L7,2 Z" id="Shape-Copy-3"></path>
                                    </g>
                                </g>
                            </g>
                        </g>
                    </g>
                </g>
            </g>
        </g>
    </g>
</svg>