<?xml version="1.0" encoding="UTF-8" standalone="no"?>
<svg width="16px" height="16px" viewBox="0 0 16 16" version="1.1" xmlns="http://www.w3.org/2000/svg" xmlns:xlink="http://www.w3.org/1999/xlink">
    <defs></defs>
    <g id="New-post" stroke="none" stroke-width="1" fill-rule="evenodd">
        <g id="New-post-:-post-options-for-students" transform="translate(-515.000000, -317.000000)">
            <g id="Group-+-Group" transform="translate(380.000000, 214.000000)">
                <g id="Group">
                    <g id="Rectangle-287-+-Shape-+-Rectangle-43-Copy-+-Shape-+-Rectangle-43-Copy-2-+-Shape-+-Rectangle-43-Copy-3-Copy" transform="translate(0.000000, 92.000000)">
                        <g id="Group" transform="translate(15.000000, 5.000000)">
                            <g id="Shape-+-Rectangle-43-Copy-4" transform="translate(114.000000, 0.000000)">
                                <path d="M14,10 C11.76,10 10,11.76 10,14 C10,16.24 11.76,18 14,18 C16.24,18 18,16.24 18,14 C18,11.76 16.24,10 14,10 L14,10 Z M14,6 C9.6,6 6,9.6 6,14 C6,18.4 9.6,22 14,22 C18.4,22 22,18.4 22,14 C22,9.6 18.4,6 14,6 L14,6 Z M14,20.4 C10.48,20.4 7.6,17.52 7.6,14 C7.6,10.48 10.48,7.6 14,7.6 C17.52,7.6 20.4,10.48 20.4,14 C20.4,17.52 17.52,20.4 14,20.4 L14,20.4 Z" id="Shape-Copy-3"></path>
                            </g>
                        </g>
                    </g>
                </g>
            </g>
        </g>
    </g>
</svg>