<?xml version="1.0" encoding="UTF-8" standalone="no"?>
<svg width="19px" height="20px" viewBox="0 0 19 20" version="1.1" xmlns="http://www.w3.org/2000/svg" xmlns:xlink="http://www.w3.org/1999/xlink">
    <defs></defs>
    <g id="RHS-[ok]" stroke="none" stroke-width="1">
        <g id="RHS---Iddle" transform="translate(-30.000000, -490.000000)">
            <g id="Navbar-Copy" transform="translate(0.000000, 64.000000)">
                <g id="Nav" transform="translate(20.000000, 68.000000)">
                    <g id="li-14" transform="translate(0.000000, 352.000000)">
                        <g id="Icon" transform="translate(3.000000, 0.000000)">
                            <g id="stopwatch" transform="translate(7.000000, 6.000000)">
                                <path d="M6.376,6.745 C5.929,7.02 7.573,10.987 7.974,11.633 C8.324,12.202 9.067,12.375 9.632,12.027 C10.2,11.675 10.377,10.933 10.027,10.367 C9.63,9.719 6.822,6.469 6.376,6.745 L6.376,6.745 Z M6.041,2.402 C6.969,2.079 7.963,1.9 9,1.9 C10.037,1.9 11.031,2.079 11.959,2.402 C12.288,2.516 12.724,2.287 12.531,1.791 C12.39,1.431 12.254,1.079 12.199,0.936 C12.068,0.597 11.599,0.317 11.395,0.271 C10.623,0.097 9.823,0 9,0 C8.177,0 7.377,0.097 6.604,0.271 C6.4,0.317 5.932,0.597 5.801,0.936 C5.746,1.079 5.609,1.431 5.469,1.791 C5.276,2.287 5.712,2.517 6.041,2.402 L6.041,2.402 Z M18.098,3.186 C17.906,2.956 17.702,2.731 17.485,2.514 C17.269,2.297 17.044,2.094 16.815,1.901 C16.662,1.772 16.212,1.667 15.927,1.952 C15.643,2.237 14.279,3.599 14.279,3.599 C14.681,3.887 15.072,4.204 15.434,4.565 C15.796,4.926 16.111,5.317 16.4,5.72 C16.4,5.72 17.763,4.358 18.047,4.073 C18.333,3.787 18.228,3.338 18.098,3.186 L18.098,3.186 Z M9,2.9 C4.525,2.9 0.899,6.526 0.899,11 C0.899,15.475 4.525,19.101 9,19.101 C13.473,19.101 17.1,15.475 17.1,11 C17.1,6.527 13.473,2.9 9,2.9 L9,2.9 Z M9,17.101 C5.632,17.101 2.9,14.37 2.9,11.001 C2.9,7.632 5.631,4.901 9,4.901 C12.369,4.901 15.101,7.632 15.101,11.001 C15.101,14.369 12.369,17.101 9,17.101 L9,17.101 Z" id="Shape"></path>
                            </g>
                        </g>
                    </g>
                </g>
            </g>
        </g>
    </g>
</svg>