<?xml version="1.0" encoding="UTF-8" standalone="no"?>
<svg width="20px" height="16px" viewBox="0 0 18 14" version="1.1" xmlns="http://www.w3.org/2000/svg" xmlns:xlink="http://www.w3.org/1999/xlink">
    <defs></defs>
    <g id="RHS-[ok]" stroke="none" stroke-width="1" >
        <g id="RHS---Iddle" transform="translate(-29.000000, -204.000000)">
            <g id="Navbar-Copy" transform="translate(0.000000, 64.000000)">
                <g id="Nav" transform="translate(20.000000, 68.000000)">
                    <g id="li-2" transform="translate(0.000000, 64.000000)">
                        <g id="Icon" transform="translate(3.000000, 0.000000)">
                            <g id="graduation-cap">
                                <g transform="translate(6.000000, 8.000000)">
                                    <path d="M3.303,9.83775 C3.767,11.71675 4.357,12.53875 6.325,13.39975 C8.294,14.25975 9.229,15.19975 10.001,15.19975 C10.772,15.19975 11.649,14.37775 13.617,13.51575 C15.586,12.65475 15.06,12.39275 15.524,10.51375 L10.001,13.19975 L3.303,9.83775 L3.303,9.83775 Z M19.512,4.93575 L11.187,0.27375 C10.535,-0.09125 9.467,-0.09125 8.815,0.27375 L0.489,4.93575 C-0.163,5.30075 -0.163,5.89875 0.489,6.26375 L8.814,10.92575 C9.466,11.29075 10.534,11.29075 11.186,10.92575 L16.568,7.91175 L10.732,6.54475 C10.507,6.59975 10.26,6.63075 10.001,6.63075 C8.949,6.63075 8.097,6.12475 8.097,5.49975 C8.097,4.87275 8.95,4.36675 10.001,4.36675 C10.817,4.36675 11.511,4.67375 11.781,5.10075 L17.963,7.12975 L19.512,6.26275 C20.163,5.89875 20.163,5.30075 19.512,4.93575 L19.512,4.93575 Z M16.968,13.76975 C16.903,14.15475 18.251,14.78775 18.379,13.66275 C18.958,8.59075 17.963,7.13175 17.963,7.13175 L16.568,7.91275 C16.568,7.91175 17.751,9.03775 16.968,13.76975 L16.968,13.76975 Z" id="Shape"></path>
                                </g>
                            </g>
                        </g>
                    </g>
                </g>
            </g>
        </g>
    </g>
</svg>