<?xml version="1.0" encoding="UTF-8" standalone="no"?>
<svg width="16px" height="12px" viewBox="0 0 16 12" version="1.1" xmlns="http://www.w3.org/2000/svg" xmlns:xlink="http://www.w3.org/1999/xlink">
    <defs></defs>
    <g id="Feed" stroke="none" stroke-width="1">
        <g id="Feed-v3" transform="translate(-541.000000, -441.000000)">
            <g id="Group" transform="translate(380.000000, 414.000000)">
                <g id="Message-Copy-+-Comments-block">
                    <g id="Message-Copy">
                        <g id="User">
                            <g id="Text-+-Walter-Porter-+-Points" transform="translate(71.000000, 0.000000)">
                                <g id="Shape-+-Rectangle-490-+-Post-anonymously" transform="translate(79.000000, 0.000000)">
                                    <path d="M19,27.6363636 C15.3636364,27.6363636 12.2363636,29.8909091 11,33.0909091 C12.2363636,36.2909091 15.3636364,38.5454545 19,38.5454545 C22.6363636,38.5454545 25.7636364,36.2909091 27,33.0909091 C25.7636364,29.8909091 22.6363636,27.6363636 19,27.6363636 L19,27.6363636 Z M19,36.7272727 C16.9636364,36.7272727 15.3636364,35.1272727 15.3636364,33.0909091 C15.3636364,31.0545455 16.9636364,29.4545455 19,29.4545455 C21.0363636,29.4545455 22.6363636,31.0545455 22.6363636,33.0909091 C22.6363636,35.1272727 21.0363636,36.7272727 19,36.7272727 L19,36.7272727 Z M19,30.9090909 C17.7636364,30.9090909 16.8181818,31.8545455 16.8181818,33.0909091 C16.8181818,34.3272727 17.7636364,35.2727273 19,35.2727273 C20.2363636,35.2727273 21.1818182,34.3272727 21.1818182,33.0909091 C21.1818182,31.8545455 20.2363636,30.9090909 19,30.9090909 L19,30.9090909 Z" id="Shape"></path>
                                </g>
                            </g>
                        </g>
                    </g>
                </g>
            </g>
        </g>
    </g>
</svg>