<?xml version="1.0" encoding="UTF-8" standalone="no"?>
<svg width="32px" height="40px" viewBox="0 0 32 40" version="1.1" xmlns="http://www.w3.org/2000/svg" xmlns:xlink="http://www.w3.org/1999/xlink">
    <defs></defs>
    <g id="Feed" stroke="none" stroke-width="1" fill="none" fill-rule="evenodd">
        <g id="Feed-v3" transform="translate(-390.000000, -5107.000000)">
            <g id="Group" transform="translate(380.000000, 4843.000000)">
                <g id="Group-Copy" transform="translate(10.000000, 137.000000)">
                    <g id="2015/16-Electronic-C-+-13,2MB-+-Shape-Copy-15-+-pdf-copy-Copy-Copy" transform="translate(0.000000, 127.000000)">
                        <g id="xls">
                            <rect id="Rectangle-path" fill="#D9DEE2" x="2.07017544" y="0" width="29.5789474" height="39.754386"></rect>
                            <rect id="Rectangle-path" fill="#F4F4F4" x="3.61403509" y="0" width="28.1052632" height="39.754386"></rect>
                            <rect id="Rectangle-path" fill="#008643" x="0.175438596" y="4.24561404" width="19.9298246" height="11.6140351"></rect>
                            <g id="Group" transform="translate(11.578947, 21.754386)" fill="#008643">
                                <rect id="Rectangle-path" x="0.315789474" y="0.210526316" width="2.84210526" height="0.771929825"></rect>
                                <rect id="Rectangle-path" x="0.315789474" y="2.28070175" width="2.84210526" height="0.771929825"></rect>
                                <rect id="Rectangle-path" x="0.315789474" y="4.31578947" width="2.84210526" height="0.771929825"></rect>
                                <rect id="Rectangle-path" x="0.315789474" y="6.35087719" width="2.84210526" height="0.771929825"></rect>
                                <rect id="Rectangle-path" x="0.315789474" y="8.35087719" width="2.84210526" height="0.771929825"></rect>
                                <rect id="Rectangle-path" x="0.315789474" y="10.3859649" width="2.84210526" height="0.771929825"></rect>
                            </g>
                            <g id="Group" transform="translate(20.701754, 21.754386)" fill="#008643">
                                <rect id="Rectangle-path" x="0.0701754386" y="0.210526316" width="2.84210526" height="0.771929825"></rect>
                                <rect id="Rectangle-path" x="0.0701754386" y="2.28070175" width="2.84210526" height="0.771929825"></rect>
                                <rect id="Rectangle-path" x="0.0701754386" y="4.31578947" width="2.84210526" height="0.771929825"></rect>
                                <rect id="Rectangle-path" x="0.0701754386" y="6.35087719" width="2.84210526" height="0.771929825"></rect>
                                <rect id="Rectangle-path" x="0.0701754386" y="8.35087719" width="2.84210526" height="0.771929825"></rect>
                                <rect id="Rectangle-path" x="0.0701754386" y="10.3859649" width="2.84210526" height="0.771929825"></rect>
                            </g>
                            <g id="Group" transform="translate(16.140351, 21.754386)" fill="#008643">
                                <rect id="Rectangle-path" x="0.140350877" y="0.210526316" width="2.84210526" height="0.771929825"></rect>
                                <rect id="Rectangle-path" x="0.140350877" y="2.28070175" width="2.84210526" height="0.771929825"></rect>
                                <rect id="Rectangle-path" x="0.140350877" y="4.31578947" width="2.84210526" height="0.771929825"></rect>
                                <rect id="Rectangle-path" x="0.140350877" y="6.35087719" width="2.84210526" height="0.771929825"></rect>
                                <rect id="Rectangle-path" x="0.140350877" y="8.35087719" width="2.84210526" height="0.771929825"></rect>
                                <rect id="Rectangle-path" x="0.140350877" y="10.3859649" width="2.84210526" height="0.771929825"></rect>
                            </g>
                            <g id="Group" transform="translate(3.859649, 7.017544)" fill="#F1F2F2">
                                <path d="M4.31578947,0.350877193 L2.63157895,2.94736842 L4.28070175,5.50877193 L3.36842105,5.50877193 L2.14035088,3.54385965 L2.10526316,3.54385965 L0.877192982,5.50877193 L0,5.50877193 L1.68421053,2.9122807 L0,0.350877193 L0.947368421,0.350877193 L2.1754386,2.35087719 L2.21052632,2.35087719 L3.43859649,0.350877193 L4.31578947,0.350877193 L4.31578947,0.350877193 Z" id="Shape"></path>
                                <path d="M8.03508772,4.84210526 L8.03508772,5.54385965 L4.9122807,5.54385965 L4.9122807,0.350877193 L5.68421053,0.350877193 L5.68421053,4.84210526 L8.03508772,4.84210526 L8.03508772,4.84210526 Z" id="Shape"></path>
                                <path d="M8.35087719,4.10526316 L9.12280702,4.10526316 C9.15789474,4.35087719 9.26315789,4.56140351 9.47368421,4.73684211 C9.68421053,4.9122807 9.96491228,4.98245614 10.3157895,4.98245614 C10.6666667,4.98245614 10.9473684,4.9122807 11.122807,4.73684211 C11.3333333,4.59649123 11.4385965,4.38596491 11.4385965,4.10526316 C11.4385965,3.89473684 11.3684211,3.75438596 11.2280702,3.61403509 C11.0877193,3.50877193 10.877193,3.40350877 10.5964912,3.33333333 L9.71929825,3.12280702 C9.54385965,3.0877193 9.40350877,3.01754386 9.26315789,2.94736842 C9.12280702,2.87719298 8.98245614,2.77192982 8.87719298,2.66666667 C8.77192982,2.56140351 8.66666667,2.42105263 8.59649123,2.28070175 C8.52631579,2.10526316 8.49122807,1.92982456 8.49122807,1.75438596 C8.49122807,1.43859649 8.56140351,1.15789474 8.73684211,0.912280702 C8.9122807,0.666666667 9.12280702,0.49122807 9.40350877,0.385964912 C9.68421053,0.280701754 9.96491228,0.210526316 10.3157895,0.210526316 C10.6315789,0.210526316 10.9473684,0.280701754 11.2280702,0.385964912 C11.5087719,0.49122807 11.7192982,0.666666667 11.8947368,0.912280702 C12.0701754,1.15789474 12.1754386,1.40350877 12.1754386,1.71929825 L11.4035088,1.71929825 C11.3684211,1.47368421 11.2631579,1.26315789 11.0877193,1.12280702 C10.9122807,0.98245614 10.6315789,0.877192982 10.3157895,0.877192982 C10,0.877192982 9.75438596,0.947368421 9.54385965,1.0877193 C9.36842105,1.22807018 9.26315789,1.43859649 9.26315789,1.68421053 C9.26315789,2.03508772 9.50877193,2.28070175 10,2.42105263 L10.877193,2.63157895 C11.0526316,2.66666667 11.1929825,2.70175439 11.3333333,2.77192982 C11.4736842,2.84210526 11.5789474,2.87719298 11.7192982,2.98245614 C11.8245614,3.05263158 11.9298246,3.15789474 12,3.26315789 C12.0701754,3.36842105 12.1403509,3.47368421 12.1754386,3.61403509 C12.2105263,3.75438596 12.245614,3.89473684 12.245614,4.07017544 C12.245614,4.56140351 12.0701754,4.94736842 11.6842105,5.22807018 C11.3333333,5.50877193 10.8421053,5.64912281 10.245614,5.64912281 C9.96491228,5.64912281 9.71929825,5.61403509 9.50877193,5.54385965 C9.29824561,5.47368421 9.12280702,5.40350877 8.98245614,5.29824561 C8.84210526,5.19298246 8.73684211,5.0877193 8.63157895,4.94736842 C8.52631579,4.80701754 8.45614035,4.66666667 8.42105263,4.52631579 C8.38596491,4.38596491 8.38596491,4.24561404 8.35087719,4.10526316 L8.35087719,4.10526316 Z" id="Shape"></path>
                            </g>
                        </g>
                    </g>
                </g>
            </g>
        </g>
    </g>
</svg>