<?xml version="1.0" encoding="UTF-8" standalone="no"?>
<svg width="12px" height="12px" viewBox="0 0 12 12" version="1.1" xmlns="http://www.w3.org/2000/svg" xmlns:xlink="http://www.w3.org/1999/xlink">
    <defs></defs>
    <g id="Feed" stroke="none" stroke-width="1" fill-rule="evenodd">
        <g id="Feed-comment-field-active" transform="translate(-629.000000, -391.000000)" >
            <g id="Message-Copy" transform="translate(400.000000, 362.000000)">
                <g id="User">
                    <g id="Text" transform="translate(71.000000, 4.000000)">
                        <g id="a-minute-ago-copy-+-Shape-+-a-minute-ago-copy-+-Shape-Copy" transform="translate(111.000000, 23.000000)">
                            <g id="a-minute-ago-copy-+-Shape-Copy" transform="translate(47.000000, 0.000000)">
                                <path d="M11.4,4.4 L10.2,4.4 L10.2,9.8 L2.4,9.8 L2.4,11 C2.4,11.36 2.64,11.6 3,11.6 L9.6,11.6 L12,14 L12,5 C12,4.64 11.76,4.4 11.4,4.4 L11.4,4.4 Z M9,8 L9,2.6 C9,2.24 8.76,2 8.4,2 L0.6,2 C0.24,2 0,2.24 0,2.6 L0,11 L2.4,8.6 L8.4,8.6 C8.76,8.6 9,8.36 9,8 L9,8 Z" id="Shape"></path>
                            </g>
                        </g>
                    </g>
                </g>
            </g>
        </g>
    </g>
</svg>