<?xml version="1.0" encoding="UTF-8" standalone="no"?>
<svg width="16px" height="15px" viewBox="0 0 16 15" version="1.1" xmlns="http://www.w3.org/2000/svg" xmlns:xlink="http://www.w3.org/1999/xlink">
    <defs></defs>
    <g id="Feed" stroke="none" stroke-width="1" fill-rule="evenodd">
        <g id="Feed-comment-field-active" transform="translate(-1012.000000, -370.000000)" >
            <g id="Message-Copy" transform="translate(400.000000, 362.000000)">
                <g id="icon-copy-3" transform="translate(605.000000, 0.000000)">
                    <path d="M18.6,8 C17.24,8 15.88,8.64 15,9.68 C14.12,8.64 12.76,8 11.4,8 C8.92,8 7,9.92 7,12.4 C7,15.44 9.72,17.92 13.88,21.6 L15,22.64 L16.12,21.6 C20.2,17.84 23,15.36 23,12.4 C23,9.92 21.08,8 18.6,8 L18.6,8 Z M15.08,20.48 L15,20.48 L14.92,20.4 C11.08,16.96 8.6,14.72 8.6,12.4 C8.6,10.8 9.8,9.6 11.4,9.6 C12.6,9.6 13.8,10.4 14.28,11.52 L15.8,11.52 C16.2,10.4 17.4,9.6 18.6,9.6 C20.2,9.6 21.4,10.8 21.4,12.4 C21.4,14.72 18.92,16.96 15.08,20.48 L15.08,20.48 Z" id="Shape-Copy-5"></path>
                </g>
            </g>
        </g>
    </g>
</svg>