<?xml version="1.0" encoding="UTF-8" standalone="no"?>
<svg width="14px" height="12px" viewBox="0 0 14 12" version="1.1" xmlns="http://www.w3.org/2000/svg" xmlns:xlink="http://www.w3.org/1999/xlink">
    <defs></defs>
    <g id="Feed" stroke="none" stroke-width="1" fill-rule="evenodd">
        <g id="Feed-comment-field-active" transform="translate(-406.000000, -153.000000)">
            <g id="Tabs" transform="translate(361.000000, 135.000000)">
                <g id="icon-+-FEED" transform="translate(37.000000, 9.000000)">
                    <g id="icon">
                        <g id="list" transform="translate(8.000000, 9.000000)">
                            <path d="M11.4,5 L5.6,5 C5.048,5 5,5.447 5,6 C5,6.553 5.048,7 5.6,7 L11.4,7 C11.952,7 12,6.553 12,6 C12,5.447 11.952,5 11.4,5 L11.4,5 Z M13.4,10 L5.6,10 C5.048,10 5,10.447 5,11 C5,11.553 5.048,12 5.6,12 L13.4,12 C13.952,12 14,11.553 14,11 C14,10.447 13.952,10 13.4,10 L13.4,10 Z M5.6,2 L13.4,2 C13.952,2 14,1.553 14,1 C14,0.447 13.952,0 13.4,0 L5.6,0 C5.048,0 5,0.447 5,1 C5,1.553 5.048,2 5.6,2 L5.6,2 Z M2.4,5 L0.6,5 C0.048,5 0,5.447 0,6 C0,6.553 0.048,7 0.6,7 L2.4,7 C2.952,7 3,6.553 3,6 C3,5.447 2.952,5 2.4,5 L2.4,5 Z M2.4,10 L0.6,10 C0.048,10 0,10.447 0,11 C0,11.553 0.048,12 0.6,12 L2.4,12 C2.952,12 3,11.553 3,11 C3,10.447 2.952,10 2.4,10 L2.4,10 Z M2.4,0 L0.6,0 C0.048,0 0,0.447 0,1 C0,1.553 0.048,2 0.6,2 L2.4,2 C2.952,2 3,1.553 3,1 C3,0.447 2.952,0 2.4,0 L2.4,0 Z" id="Shape"></path>
                        </g>
                    </g>
                </g>
            </g>
        </g>
    </g>
</svg>