<?xml version="1.0" encoding="UTF-8" standalone="no"?>
<svg width="20px" height="20px" viewBox="0 0 20 20" version="1.1" xmlns="http://www.w3.org/2000/svg" xmlns:xlink="http://www.w3.org/1999/xlink">
    <defs></defs>
    <g id="Feed" stroke="none" stroke-width="1" fill-rule="evenodd">
        <g id="Feed-comment-field-active" transform="translate(-1050.000000, -776.000000)">
            <g id="Comment-area" transform="translate(522.000000, 764.000000)">
                <path d="M541.5,21 C542.3,21 543,20.3 543,19.5 C543,18.7 542.3,18 541.5,18 C540.7,18 540,18.7 540,19.5 C540,20.3 540.7,21 541.5,21 L541.5,21 Z M534.5,21 C535.3,21 536,20.3 536,19.5 C536,18.7 535.3,18 534.5,18 C533.7,18 533,18.7 533,19.5 C533,20.3 533.7,21 534.5,21 L534.5,21 Z M538,28 C540.6,28 542.8,26.3 543.7,24 L532.3,24 C533.2,26.3 535.4,28 538,28 L538,28 Z M538,12 C532.5,12 528,16.5 528,22 C528,27.5 532.5,32 538,32 C543.5,32 548,27.5 548,22 C548,16.5 543.5,12 538,12 L538,12 Z M530,22 C530,17.6 533.6,14 538,14 C542.4,14 546,17.6 546,22 C546,26.4 542.4,30 538,30 C533.6,30 530,26.4 530,22 Z" id="Shape"></path>
            </g>
        </g>
    </g>
</svg>